<?xml version="1.0" encoding="utf-8"?>
<!-- Generator: Adobe Illustrator 27.5.0, SVG Export Plug-In . SVG Version: 6.00 Build 0)  -->
<svg version="1.1" id="Слой_1" xmlns="http://www.w3.org/2000/svg" xmlns:xlink="http://www.w3.org/1999/xlink" x="0px" y="0px"
	 viewBox="0 0 200 200" style="enable-background:new 0 0 200 200;" xml:space="preserve">
<g>
	<linearGradient id="SVGID_1_" gradientUnits="userSpaceOnUse" x1="100" y1="200" x2="100" y2="-9.094947e-13">
		<stop  offset="0" style="stop-color:#277DE1"/>
		<stop  offset="1" style="stop-color:#111380"/>
	</linearGradient>
	<rect style="fill:url(#SVGID_1_);" width="200" height="200"/>
	
		<linearGradient id="SVGID_00000153667813882245123520000017928039297216099464_" gradientUnits="userSpaceOnUse" x1="29.2539" y1="152.7681" x2="180.7461" y2="152.7681">
		<stop  offset="0" style="stop-color:#111380"/>
		<stop  offset="1" style="stop-color:#1F55BC"/>
	</linearGradient>
	<polygon style="fill:url(#SVGID_00000153667813882245123520000017928039297216099464_);" points="180.746,152.769 105,196.5 
		29.254,152.769 105,109.036 	"/>
	<g>
		<g>
			<path style="fill:#E1E2E3;" d="M105.602,142.335c0.048-0.031,0.086-0.066,0.139-0.098c1.266-0.73,3.093-0.517,4.358,0.214
				l4.584,2.646h0.941v1.267h-0.001c0.087,1.707-3.476,2.561-5.524,1.38l-4.358-2.86c-0.59-0.34-0.893-0.78-0.933-1.226h-0.017
				l0.173-1.258L105.602,142.335z"/>
			<path style="fill:#F0AF17;" d="M105.741,143.658l4.358,2.86c1.267,0.73,3.318,0.73,4.584,0l0,0c1.266-0.73,1.266-2.604,0-3.333
				c0,0-3.226-1.83-4.842-2.321c-2.119-0.644-3.335-0.23-4.153,0.25C104.96,141.544,104.476,142.928,105.741,143.658z"/>
		</g>
		<g>
			<path style="fill:#E1E2E3;" d="M93.232,149.683c0.048-0.032,0.086-0.068,0.139-0.098c1.266-0.732,3.093-0.518,4.358,0.213
				l4.584,2.646h0.941v1.267h-0.002c0.09,1.701-3.469,2.565-5.523,1.38l-4.358-2.86c-0.59-0.34-0.893-0.779-0.934-1.225h-0.016
				l0.173-1.259L93.232,149.683z"/>
			<path style="fill:#F0AF17;" d="M93.371,151.006l4.358,2.859c1.266,0.73,3.318,0.73,4.584,0l0,0c1.266-0.73,1.266-2.603,0-3.334
				c0,0-3.226-1.829-4.842-2.32c-2.12-0.643-3.336-0.23-4.153,0.251C92.589,148.89,92.105,150.275,93.371,151.006z"/>
		</g>
		<path style="fill:#241D19;" d="M115.353,143.587c0.019,0.671-0.097,1.253-0.907,1.727c-1.292,0.746-3.395,0.746-4.688,0
			c-0.65-0.378-0.971-0.868-0.971-1.357c0-0.795-0.104-5.482-0.209-10.322h7.039C115.515,138.008,115.394,142.391,115.353,143.587z"
			/>
		<g>
			<g>
				<path style="fill:#231F20;" d="M131.132,147.685l0.95-0.607l-1.311-0.766v0.001c-0.284-0.128-0.68-0.081-1.118,0.172
					c-0.864,0.499-1.564,1.604-1.564,2.468c0,0.336,0.107,0.582,0.288,0.733l-0.003,0.002l0.076,0.045
					c0.035,0.023,0.069,0.048,0.109,0.064l1.093,0.646l0.142-0.925C130.423,149.099,130.94,148.374,131.132,147.685z"/>
				<path style="fill:#414042;" d="M132.474,147.886c0,0.864-0.7,1.969-1.564,2.468c-0.863,0.499-1.564,0.203-1.564-0.662
					c0-0.863,0.701-1.968,1.564-2.467C131.773,146.727,132.474,147.023,132.474,147.886z"/>
				<path style="fill:#231F20;" d="M131.756,148.301c0,0.467-0.379,1.064-0.847,1.334c-0.467,0.27-0.846,0.109-0.846-0.357
					s0.379-1.064,0.846-1.334C131.377,147.673,131.756,147.834,131.756,148.301z"/>
				<rect x="124.034" y="166.402" style="fill:#231F20;" width="2.119" height="3.083"/>
				<path style="fill:#231F20;" d="M109.135,149.807l-1.012-0.495l1.217-0.908l0.001,0.001c0.268-0.157,0.666-0.156,1.13,0.047
					c0.914,0.399,1.733,1.419,1.83,2.277c0.037,0.334-0.043,0.591-0.205,0.762l0.003,0.002l-0.07,0.052
					c-0.032,0.026-0.063,0.057-0.102,0.077l-1.015,0.764l-0.243-0.903C109.997,151.134,109.402,150.473,109.135,149.807z"/>
				<path style="fill:#414042;" d="M107.824,150.157c0.096,0.858,0.915,1.878,1.829,2.278c0.914,0.4,1.577,0.026,1.481-0.832
					c-0.097-0.858-0.916-1.879-1.83-2.277C108.391,148.927,107.727,149.299,107.824,150.157z"/>
				<path style="fill:#231F20;" d="M108.584,150.489c0.052,0.464,0.495,1.016,0.989,1.231c0.494,0.217,0.853,0.015,0.801-0.449
					c-0.052-0.465-0.495-1.016-0.989-1.232C108.891,149.823,108.532,150.025,108.584,150.489z"/>
				
					<linearGradient id="SVGID_00000036245268259774988990000006852679234321757879_" gradientUnits="userSpaceOnUse" x1="118.5615" y1="18.3008" x2="96.1514" y2="5.3623" gradientTransform="matrix(1 -0.5774 1 0.5774 2.6245 210.4893)">
					<stop  offset="0" style="stop-color:#111380"/>
					<stop  offset="1" style="stop-color:#2368CE"/>
				</linearGradient>
				<path style="fill:url(#SVGID_00000036245268259774988990000006852679234321757879_);" d="M125.413,152.094l15.562,3.711
					c-0.076,0.485-0.222,0.968-0.413,1.44l-15.8-2.76l1.662,10.922c-0.819,0.111-1.654,0.195-2.497,0.239l-3.308-10.785
					l-14.804,5.607c-0.444-0.416-0.827-0.841-1.156-1.278l14.053-6.482l-10.982-5.239c0.269-0.181,0.552-0.354,0.851-0.525
					c0.299-0.173,0.598-0.337,0.911-0.491l12.192,4.54l8.11-6.313c0.758,0.189,1.493,0.411,2.213,0.668L125.413,152.094z"/>
				<path style="fill:#231F20;" d="M109.111,161.443l0.951-0.605l-1.311-0.767v0.001c-0.284-0.127-0.68-0.08-1.118,0.173
					c-0.864,0.499-1.564,1.604-1.564,2.468c0,0.335,0.108,0.582,0.288,0.733c-0.005,0.002,1.271,0.754,1.275,0.757l0.142-0.925
					C108.403,162.857,108.92,162.135,109.111,161.443z"/>
				<path style="fill:#414042;" d="M110.453,161.645c0,0.864-0.7,1.969-1.563,2.468c-0.864,0.498-1.564,0.202-1.564-0.661
					c0-0.864,0.7-1.97,1.564-2.468C109.753,160.485,110.453,160.781,110.453,161.645z"/>
				<path style="fill:#231F20;" d="M109.735,162.061c0,0.467-0.379,1.063-0.846,1.334c-0.468,0.27-0.847,0.109-0.847-0.358
					c0-0.467,0.379-1.063,0.847-1.334C109.356,161.433,109.735,161.593,109.735,162.061z"/>
				<path style="fill:#231F20;" d="M137.643,158.494l-1.012-0.496l1.217-0.908l0.001,0.001c0.268-0.158,0.666-0.155,1.13,0.047
					c0.914,0.399,1.733,1.419,1.83,2.277c0.037,0.334-0.043,0.591-0.205,0.762c-0.2,0.155,0.002,0.003-1.184,0.895l-0.243-0.903
					C138.505,159.82,137.91,159.158,137.643,158.494z"/>
				<path style="fill:#414042;" d="M136.332,158.844c0.096,0.858,0.915,1.879,1.829,2.278c0.914,0.399,1.577,0.026,1.482-0.832
					c-0.097-0.858-0.916-1.879-1.83-2.278C136.898,157.613,136.235,157.985,136.332,158.844z"/>
				<path style="fill:#231F20;" d="M137.092,159.176c0.052,0.464,0.495,1.016,0.989,1.231c0.494,0.216,0.853,0.016,0.801-0.449
					c-0.052-0.464-0.495-1.016-0.989-1.231C137.398,158.511,137.04,158.712,137.092,159.176z"/>
				<polygon style="fill:#111380;" points="126.424,165.407 126.424,167.157 123.927,167.396 123.927,165.646 				"/>
				
					<linearGradient id="SVGID_00000062186665222449083600000012595446397632807569_" gradientUnits="userSpaceOnUse" x1="126.2273" y1="163.4119" x2="118.3186" y2="158.8459">
					<stop  offset="0" style="stop-color:#111380"/>
					<stop  offset="1" style="stop-color:#2368CE"/>
				</linearGradient>
				<polygon style="fill:url(#SVGID_00000062186665222449083600000012595446397632807569_);" points="120.619,154.861 
					120.619,157.511 123.927,167.396 123.927,165.646 				"/>
				
					<linearGradient id="SVGID_00000005238197605368815550000001223629349235160455_" gradientUnits="userSpaceOnUse" x1="118.3229" y1="161.4878" x2="108.501" y2="155.8171">
					<stop  offset="0" style="stop-color:#111380"/>
					<stop  offset="1" style="stop-color:#2368CE"/>
				</linearGradient>
				<polygon style="fill:url(#SVGID_00000005238197605368815550000001223629349235160455_);" points="105.815,160.469 
					105.815,162.219 120.619,157.511 120.619,154.861 				"/>
				<polygon style="fill:#111380;" points="104.659,159.19 104.659,160.94 105.815,162.219 105.815,160.469 				"/>
				
					<linearGradient id="SVGID_00000005263246819513740400000013855942314750043290_" gradientUnits="userSpaceOnUse" x1="118.0945" y1="153.7773" x2="107.5891" y2="147.712">
					<stop  offset="0" style="stop-color:#111380"/>
					<stop  offset="1" style="stop-color:#2368CE"/>
				</linearGradient>
				<polygon style="fill:url(#SVGID_00000005263246819513740400000013855942314750043290_);" points="107.729,147.469 
					107.729,149.219 116.347,153.799 118.712,152.708 				"/>
				
					<linearGradient id="SVGID_00000014608768140854075160000015563844988227412379_" gradientUnits="userSpaceOnUse" x1="139.4082" y1="160.9927" x2="125.6056" y2="153.0238">
					<stop  offset="0" style="stop-color:#111380"/>
					<stop  offset="1" style="stop-color:#2368CE"/>
				</linearGradient>
				<polygon style="fill:url(#SVGID_00000014608768140854075160000015563844988227412379_);" points="140.561,157.245 
					140.561,158.995 125.173,157.188 124.762,154.485 				"/>
				<path style="fill:#111380;" d="M140.975,155.805v1.749c0,0-0.177,0.986-0.413,1.441v-1.75L140.975,155.805z"/>
				
					<linearGradient id="SVGID_00000057862287891960936890000004626253907847677587_" gradientUnits="userSpaceOnUse" x1="130.4793" y1="149.7423" x2="127.6979" y2="148.1364">
					<stop  offset="0" style="stop-color:#111380"/>
					<stop  offset="1" style="stop-color:#2368CE"/>
				</linearGradient>
				<polygon style="fill:url(#SVGID_00000057862287891960936890000004626253907847677587_);" points="132.007,145.348 
					132.007,147.097 127.124,152.501 125.413,152.094 				"/>
			</g>
			
				<linearGradient id="SVGID_00000120541513285304444560000002037314100141906561_" gradientUnits="userSpaceOnUse" x1="128.1174" y1="147.1881" x2="115.8516" y2="140.1064">
				<stop  offset="0" style="stop-color:#111380"/>
				<stop  offset="1" style="stop-color:#2368CE"/>
			</linearGradient>
			<path style="fill:url(#SVGID_00000120541513285304444560000002037314100141906561_);" d="M119.441,133.889v18.984l0,0
				c0,0.388,0.257,0.776,0.77,1.072c1.025,0.592,2.688,0.592,3.713,0c0.513-0.296,0.769-0.685,0.769-1.072v-18.984H119.441z"/>
			
				<linearGradient id="SVGID_00000169531647255266571850000013529999959281902513_" gradientUnits="userSpaceOnUse" x1="130.3002" y1="145.1118" x2="116.8787" y2="121.865">
				<stop  offset="0" style="stop-color:#111380"/>
				<stop  offset="1" style="stop-color:#1E53BA"/>
			</linearGradient>
			<path style="fill:url(#SVGID_00000169531647255266571850000013529999959281902513_);" d="M139.617,139.211
				c-0.49,0.479-1.051,0.95-1.681,1.4c-0.45,0.32-0.939,0.64-1.47,0.939c-3.42,1.98-7.641,3.09-11.771,3.12
				c-1.8,0.011-3.569-0.189-5.26-0.601c-1.55-0.389-3.03-0.959-4.38-1.739l-0.14-0.09l-0.79-0.5c-0.051-0.04-0.11-0.08-0.16-0.11
				l-8.6-7.17c-0.851-0.54-1.25-1.25-1.231-1.97c0-0.01-0.01-0.02-0.01-0.03c0-1.109,0.14-2.391,0.979-3.73
				c0.021-0.041,0.04-0.07,0.07-0.11l0.96,1.319l10.39-6c2.19-1.259,5.601-1.419,7.65-0.339l12.43,4.959l0.05,0.03l0.35,0.181
				l0.78,0.41l0.02,0.009c0.7,0.411,1.3,0.831,1.811,1.271c0.27,0.229,0.51,0.471,0.73,0.71c0.11-0.84,0.25-1.46,0.46-1.11
				c0,0.01,0.01,0.01,0.01,0.021c0.5,0.94,0.78,2.33,1,3.91h-0.02C142.066,135.741,141.297,137.551,139.617,139.211z"/>
			
				<linearGradient id="SVGID_00000178913426139475549890000004874513529650638473_" gradientUnits="userSpaceOnUse" x1="123.0016" y1="141.3519" x2="123.0016" y2="120.4009">
				<stop  offset="0" style="stop-color:#14238F"/>
				<stop  offset="1" style="stop-color:#215EC5"/>
			</linearGradient>
			<path style="fill:url(#SVGID_00000178913426139475549890000004874513529650638473_);" d="M139.617,135.411
				c-0.66,0.8-1.541,1.56-2.61,2.279c-0.33,0.221-0.69,0.45-1.061,0.661c-3.279,1.89-7.3,2.969-11.25,3
				c-1.79,0.01-3.569-0.19-5.26-0.631c-1.439-0.359-2.809-0.91-4.069-1.63l-0.141-0.08l-0.76-0.479c-0.05-0.03-0.1-0.07-0.16-0.11
				l-8.27-6.89c-1.16-0.74-1.45-1.811-0.931-2.8c0.021-0.041,0.04-0.07,0.07-0.11c0.29-0.49,0.77-0.95,1.45-1.34l10.149-5.86
				c2.101-1.21,5.391-1.369,7.36-0.34l11.95,4.771l0.04,0.029l0.88,0.46l0.21,0.11l0.02,0.01c0.99,0.57,1.78,1.18,2.381,1.82
				c0.55,0.57,0.939,1.17,1.189,1.779c0,0.01,0.01,0.01,0.01,0.021C141.526,131.831,141.066,133.682,139.617,135.411z"/>
			<path style="fill:#231F20;" d="M138.267,137.521c0,0-0.899,2.399-1.899,2.939c-0.94,0.51-1.761,0.85-1.86,0.88
				c-0.01,0.011-0.01,0.011-0.01,0.011l-0.931-0.67c0,0,0.62-0.431,0.62-0.931l1.2-0.649L138.267,137.521z"/>
			<path style="fill:#414042;" d="M134.507,141.341c-0.01,0.011-0.01,0.011-0.01,0.011l-0.931-0.67c0,0,0.62-0.431,0.62-0.931
				l1.593-0.865C135.636,140.396,134.617,141.251,134.507,141.341z"/>
		</g>
		<path style="fill:#241D19;" d="M132.477,134.761c-1.34,1.33-7.6,3.63-10.96,4.43c-3.35,0.801-8.3-3.329-10.01-5.039
			c-0.96-0.961-4.28-3.62-6.23-4.351c-1.52-0.56-1.85,0.561-1.85,1.29c0,2.729-0.39,17.37-0.46,19.72
			c0.06,0.601-0.1,1.26-0.91,1.721c-0.18,0.1-0.38,0.189-0.59,0.26c-1.28,0.48-2.98,0.38-4.1-0.26
			c-0.641-0.37-0.971-0.86-0.971-1.35c0-1.551-0.399-17.91-0.399-21.311c0-0.16,0.01-0.311,0.02-0.47
			c0.22-3.29,2.69-6.961,6.54-7.591c3.96-0.64,6.51-1.52,9.03-0.5c0.02,0.01,0.41,1.08,0.75,2.311l20.18,7.14
			C132.517,130.761,133.807,133.432,132.477,134.761z"/>
		<g>
			<path style="fill:#808285;" d="M139.617,139.211v2.37l-1.681-0.97C138.566,140.161,139.127,139.69,139.617,139.211z"/>
			<path style="fill:#BCBEC0;" d="M139.617,100.941v34.27c-0.49,0.479-1.051,0.95-1.681,1.4l-0.93-0.53v-36.65l0.38,0.22
				L139.617,100.941z"/>
			<polygon style="fill:#BCBEC0;" points="51.545,114.885 51.545,155.17 54.156,153.663 54.156,113.377 			"/>
			<path style="fill:#D1D3D4;" d="M142.227,96.851v43.23l-2.609,1.5v-2.37c1.68-1.66,2.449-3.47,2.18-5.22h0.02
				c-0.22-1.58-0.5-2.97-1-3.91c0-0.011-0.01-0.011-0.01-0.021c-0.25-0.609-0.64-1.209-1.189-1.779v-27.34l-2.23-1.29
				L142.227,96.851z"/>
			<polygon style="fill:#D1D3D4;" points="139.617,102.361 137.007,103.871 86.117,133.261 86.117,171.751 83.507,173.261 
				83.507,130.761 137.007,99.861 137.387,99.651 139.617,100.941 			"/>
			<polygon style="fill:#E6E7E8;" points="48.935,113.377 48.935,153.663 51.545,155.17 51.545,114.885 			"/>
			<polygon style="fill:#E6E7E8;" points="83.504,130.76 83.504,134.762 48.937,114.807 48.937,110.804 107.662,80.896 
				135.24,96.589 			"/>
			<polygon style="fill:#F1F2F2;" points="142.227,96.851 137.387,99.651 137.007,99.861 83.507,130.761 54.156,113.811 
				53.776,113.602 48.936,110.802 107.667,76.901 			"/>
			<polygon style="fill:#E6E7E8;" points="80.893,131.83 80.893,171.754 83.503,173.262 83.503,133.337 			"/>
		</g>
		<g>
			<path style="fill:#D1D3D4;" d="M111.144,93.578c-2.089,0-2.925-1.02-3.893-2.2c-0.753-0.918-1.606-1.959-3.283-2.772
				c-3.891-1.889-12.667,1.91-12.755,1.949c-0.188,0.08-0.41-0.003-0.494-0.193c-0.083-0.19,0.004-0.411,0.193-0.494
				c0.373-0.163,9.182-3.973,13.384-1.936c1.825,0.885,2.773,2.043,3.535,2.972c0.917,1.118,1.579,1.926,3.313,1.926
				c1.466,0,2.956-0.595,4.396-1.17c1.903-0.76,3.701-1.478,5.243-0.725c0.187,0.09,0.264,0.315,0.173,0.501
				c-0.091,0.187-0.317,0.263-0.501,0.173c-1.247-0.604-2.892,0.052-4.637,0.747C114.311,92.956,112.753,93.578,111.144,93.578z"/>
		</g>
		<path style="fill:#FFFFFF;" d="M106.211,59.596l-1.83-1.101l-0.006,0.021c-0.157-0.135-0.406-0.149-0.703,0.022L70.4,77.747
			c-0.481,0.278-0.871,0.893-0.871,1.374v21.767c0,0.203,0.08,0.335,0.196,0.416l-0.012,0.011l1.846,1.111l0.104-1.899l32.008-18.48
			c0.481-0.278,0.871-0.893,0.871-1.374V61.019L106.211,59.596z"/>
		<g>
			<path style="fill:#BCBEC0;" d="M89.928,99.281c0,0-2.805-1.616-4.211-2.495c-1.406-0.879-1.392-2.406-1.392-4.544l7.593-3.975
				c0,0-0.606,3.718,0.684,4.462c1.076,0.622,4.324,1.964,4.324,1.964v0.572L89.928,99.281z"/>
			<path style="fill:#D1D3D4;" d="M89.928,98.709c0,0-2.282-1.222-3.688-2.102c-1.406-0.879-1.538-2.405-1.539-4.543l7.218-4.368
				c0,0-0.679,3.897,0.61,4.642c1.289,0.744,4.397,2.355,4.397,2.355L89.928,98.709z"/>
		</g>
		<path style="fill:#E6E7E8;" d="M106.392,81.786c0,0.481-0.39,1.096-0.871,1.374l-33.272,19.209
			c-0.48,0.278-0.871,0.113-0.871-0.367V80.234c0-0.481,0.391-1.096,0.871-1.374l33.272-19.21c0.482-0.278,0.871-0.113,0.871,0.369
			V81.786z"/>
		<g style="opacity:0.3;">
			<path style="fill:#FFFFFF;" d="M63.791,92.782c0,1.427-1.157,3.252-2.584,4.076l-5.07,2.927
				c-1.427,0.824-2.584,0.335-2.584-1.092v-5.07c0-1.427,1.157-3.252,2.584-4.076l5.07-2.927c1.427-0.824,2.584-0.335,2.584,1.092
				V92.782z"/>
		</g>
		<path style="fill:#3EB5FF;" d="M105.757,80.887c0,0.463-0.376,1.057-0.84,1.324l-32.065,18.513
			c-0.464,0.268-0.84,0.109-0.84-0.355v-18.8c0-0.464,0.376-1.057,0.84-1.324l32.065-18.513c0.464-0.267,0.84-0.109,0.84,0.355
			V80.887z"/>
		<g>
			<polygon style="fill:#D1D3D4;" points="118.712,101.487 91.834,117.006 79.936,110.136 79.936,109.504 106.814,94.618 
				118.712,100.855 			"/>
			<polygon style="fill:#E6E7E8;" points="118.712,100.855 91.834,116.373 79.936,109.504 106.814,93.986 			"/>
			<polygon style="fill:#FFFFFF;" points="91.066,105.459 82.825,110.216 81.742,109.591 89.982,104.833 			"/>
			<polygon style="fill:#FFFFFF;" points="106.283,106.42 91.267,115.09 83.457,110.581 98.474,101.911 			"/>
			<polygon style="fill:#FFFFFF;" points="97.842,101.547 92.447,104.661 91.363,104.035 96.759,100.921 			"/>
			<polygon style="fill:#FFFFFF;" points="108.018,95.672 103.794,98.11 102.71,97.485 106.934,95.046 			"/>
			<polygon style="fill:#FFFFFF;" points="116.578,100.615 112.355,103.053 104.426,98.475 108.649,96.037 			"/>
			<polygon style="fill:#FFFFFF;" points="103.118,98.5 98.894,100.938 97.811,100.313 102.035,97.874 			"/>
			<polygon style="fill:#FFFFFF;" points="111.56,103.373 107.336,105.812 106.253,105.187 110.477,102.748 			"/>
			<polygon style="fill:#FFFFFF;" points="109.114,103.534 107.614,104.399 106.531,103.774 108.031,102.909 			"/>
			<polygon style="fill:#FFFFFF;" points="106.624,100.524 102.4,102.962 99.527,101.303 103.75,98.865 			"/>
		</g>
		<g>
			
				<linearGradient id="SVGID_00000149382676465433494330000013555475353390999704_" gradientUnits="userSpaceOnUse" x1="116.2959" y1="48.3617" x2="130.2783" y2="48.3617">
				<stop  offset="0.2358" style="stop-color:#C4BEFA"/>
				<stop  offset="1" style="stop-color:#5A5CDB"/>
			</linearGradient>
			<path style="opacity:0.5;fill:url(#SVGID_00000149382676465433494330000013555475353390999704_);" d="M129.421,44.032
				c-0.006-0.791-0.158-1.46-0.424-2.01l1.03,0.026l-2.039-1.229l-0.002,0.005c-1.202-0.809-3.05-0.708-5.127,0.492
				c-3.626,2.094-6.563,6.727-6.563,10.344c0,1.567,0.55,2.687,1.466,3.287l-0.029,0.007l2.435,1.468l-0.242-0.991
				c0.536-0.041,1.113-0.175,1.721-0.412l0.98,0.506l3.564-1.468l3.134-3.285l0.955-6.558L129.421,44.032z M124.034,44.337
				l1.804-1.953c1.111,0.237,1.827,1.183,1.827,2.712c0,0.552-0.098,1.135-0.268,1.727l-1.45-0.856h-3.407L124.034,44.337z
				 M118.625,52.6l0.953-0.068l0.369-2.357l0.191-1.224l0.068-0.438l0.52-0.567v3.953l1.725,0.985
				C120.799,53.697,119.379,53.552,118.625,52.6z"/>
			<path style="fill:#FF4A4A;" d="M118.431,52.958c0,3.626,2.938,4.868,6.564,2.774c3.626-2.094,6.563-6.727,6.563-10.354
				c0-3.617-2.938-4.859-6.563-2.765C121.368,44.707,118.431,49.34,118.431,52.958z M120.181,51.942
				c0-2.647,2.157-6.047,4.814-7.579c2.656-1.532,4.805-0.626,4.805,2.031c0,2.656-2.148,6.047-4.805,7.579
				C122.338,55.505,120.181,54.598,120.181,51.942z"/>
			<polygon style="fill:#FF4A4A;" points="123.296,47.435 128.432,47.435 123.296,53.365 			"/>
		</g>
		<g>
			<path style="opacity:0.3;fill:#FFFFFF;" d="M47.037,107.585l8.296-4.79c0.663-0.383,1.245-0.396,1.614-0.117l0.002-0.007
				l2.812,1.652l-2.404,1.688v5.935c0,1.118-0.905,2.547-2.023,3.192l-6.96,4.019l0.079,2.685l-2.963-1.742l0.01-0.007
				c-0.299-0.181-0.485-0.523-0.485-1.02v-8.296C45.014,109.659,45.92,108.229,47.037,107.585z"/>
			<path style="fill:#7DE5FF;" d="M47.87,120.758c0,1.118,0.906,1.501,2.023,0.857l8.296-4.791c1.118-0.644,2.023-2.074,2.023-3.191
				v-8.296c0-1.117-0.905-1.5-2.023-0.854l-8.296,4.789c-1.117,0.646-2.023,2.074-2.023,3.191V120.758z"/>
			<g>
				<g>
					<path style="fill:#FFFFFF;" d="M57.934,115.336c-0.004,0.003-0.009,0.005-0.013,0.008l-7.383,4.263
						c-0.129,0.074-0.251,0.092-0.339,0.049c-0.088-0.044-0.133-0.144-0.125-0.276l0.368-5.778c0.017-0.253,0.219-0.56,0.464-0.701
						l6.646-3.838c0.244-0.141,0.447-0.067,0.463,0.167l0.361,5.252c0.014,0.035,0.02,0.076,0.02,0.124
						C58.397,114.86,58.189,115.188,57.934,115.336z M51.033,118.393l6.393-3.69l-0.308-4.461l-5.778,3.336L51.033,118.393z"/>
				</g>
				<g>
					<path style="fill:#FFFFFF;" d="M55.766,111.022c-0.256,0.147-0.464,0.06-0.464-0.196v-1.357c0-0.557-0.452-0.748-1.009-0.427
						l-0.115,0.066c-0.556,0.321-1.008,1.035-1.008,1.591v1.357c0,0.257-0.208,0.584-0.464,0.732
						c-0.257,0.147-0.465,0.06-0.465-0.196v-1.357c0-1.067,0.869-2.438,1.937-3.055l0.115-0.066c1.067-0.616,1.936-0.25,1.936,0.818
						v1.357C56.229,110.547,56.021,110.874,55.766,111.022z"/>
				</g>
				<g>
					<path style="fill:#FFFFFF;" d="M56.394,114.927c-0.004,0.002-0.009,0.005-0.013,0.008l-4.303,2.483
						c-0.128,0.074-0.251,0.092-0.338,0.05c-0.088-0.044-0.133-0.143-0.125-0.274l0.184-3.075c0.016-0.254,0.218-0.562,0.463-0.703
						l3.935-2.271c0.245-0.142,0.448-0.067,0.464,0.168l0.177,2.761c0.014,0.034,0.021,0.075,0.021,0.122
						C56.857,114.451,56.649,114.778,56.394,114.927z M52.571,116.205l3.315-1.914l-0.126-1.968l-3.063,1.769L52.571,116.205z"/>
				</g>
			</g>
		</g>
		<g>
			<path style="opacity:0.3;fill:#FFFFFF;" d="M149.616,89.499l4.705-2.716c0.375-0.217,0.706-0.225,0.915-0.066l0.001-0.004
				l1.595,0.937l-1.363,0.957v3.366c0,0.634-0.514,1.444-1.148,1.811l-3.947,2.279l0.045,1.523l-1.681-0.988l0.006-0.004
				c-0.169-0.102-0.275-0.296-0.275-0.579v-4.705C148.469,90.675,148.982,89.865,149.616,89.499z"/>
			<path style="fill:#7DE5FF;" d="M150.089,96.97c0,0.634,0.514,0.851,1.147,0.485l4.704-2.716c0.634-0.366,1.148-1.176,1.148-1.81
				v-4.705c0-0.634-0.514-0.851-1.148-0.485l-4.704,2.716c-0.634,0.366-1.147,1.177-1.147,1.81V96.97z"/>
			<g>
				<g>
					<path style="fill:#FFFFFF;" d="M155.796,93.895c-0.003,0.002-0.005,0.003-0.007,0.004l-4.188,2.418
						c-0.073,0.042-0.143,0.052-0.192,0.027c-0.05-0.024-0.075-0.081-0.07-0.156l0.209-3.277c0.009-0.144,0.124-0.318,0.263-0.398
						l3.77-2.176c0.139-0.08,0.253-0.039,0.263,0.094l0.204,2.978c0.008,0.021,0.012,0.044,0.012,0.071
						C156.059,93.626,155.94,93.812,155.796,93.895z M151.883,95.628l3.625-2.093l-0.175-2.53l-3.276,1.892L151.883,95.628z"/>
				</g>
				<g>
					<path style="fill:#FFFFFF;" d="M154.566,91.449c-0.146,0.084-0.264,0.034-0.264-0.111v-0.77c0-0.315-0.256-0.424-0.571-0.242
						l-0.065,0.038c-0.315,0.182-0.572,0.587-0.572,0.902v0.77c0,0.146-0.117,0.331-0.263,0.415
						c-0.146,0.084-0.264,0.034-0.264-0.111v-0.77c0-0.605,0.493-1.383,1.099-1.732l0.065-0.038c0.605-0.35,1.098-0.141,1.098,0.464
						v0.77C154.829,91.179,154.712,91.365,154.566,91.449z"/>
				</g>
				<g>
					<path style="fill:#FFFFFF;" d="M154.922,93.663c-0.002,0.001-0.005,0.002-0.007,0.004l-2.44,1.409
						c-0.072,0.042-0.142,0.052-0.191,0.028s-0.075-0.081-0.07-0.156l0.104-1.743c0.009-0.144,0.124-0.318,0.263-0.399l2.231-1.288
						c0.139-0.08,0.254-0.039,0.263,0.095l0.101,1.565c0.008,0.02,0.012,0.044,0.012,0.07
						C155.185,93.393,155.067,93.579,154.922,93.663z M152.755,94.388l1.88-1.086l-0.071-1.116l-1.736,1.003L152.755,94.388z"/>
				</g>
			</g>
		</g>
		<g>
			<path style="opacity:0.2;fill:#FFFFFF;" d="M51.089,72.713c-0.486-0.482-0.778-1.215-0.778-2.188
				c0-2.719,2.204-6.196,4.924-7.766c0.893-0.516,1.719-0.737,2.441-0.738c1.037-2.849,3.298-5.724,5.938-7.248
				c2.614-1.509,4.852-1.259,5.903,0.349c0.696-0.778,1.479-1.464,2.326-1.953c1.71-0.987,3.214-0.982,4.096-0.169L75.941,53
				l3.197,2.541l-4.169,3.262c-0.822,1.367-1.97,2.619-3.257,3.46V62.3l-4.629,2.672L54.132,75.106l-2.897-2.261
				c-0.038-0.031-0.079-0.059-0.115-0.094L51.08,72.72L51.089,72.713z"/>
			<path style="fill:#FFFFFF;" d="M58.405,65.274c0.894-0.516,1.72-0.737,2.442-0.738c1.037-2.849,3.298-5.724,5.938-7.248
				c2.614-1.509,4.853-1.259,5.903,0.349c0.695-0.778,1.48-1.464,2.326-1.953c2.719-1.57,4.923-0.638,4.923,2.081
				c0,2.591-2.009,5.852-4.551,7.513v0.038L58.405,75.12c-2.719,1.57-4.923,0.638-4.923-2.081
				C53.482,70.32,55.686,66.844,58.405,65.274z"/>
		</g>
		<g>
			<g style="opacity:0.3;">
				<polygon style="fill:#FFFFFF;" points="150.911,73.718 137.631,90.695 135.078,89.266 135.078,79.956 148.359,72.289 				"/>
			</g>
			<g>
				<polygon style="fill:#E6E7E8;" points="150.911,83.028 137.631,90.695 137.631,81.386 150.911,73.718 				"/>
				<polygon style="fill:#F1F2F2;" points="137.631,82.192 144.27,83.013 137.631,90.695 				"/>
				<polygon style="fill:#F1F2F2;" points="150.911,74.525 144.27,83.013 150.911,83.028 				"/>
				<polygon style="fill:#FFFFFF;" points="137.631,81.386 144.27,82.102 150.911,73.718 				"/>
			</g>
		</g>
		<g>
			<g style="opacity:0.3;">
				<polygon style="fill:#FFFFFF;" points="40.333,83.756 29.289,97.873 27.167,96.684 27.167,88.943 38.211,82.567 				"/>
			</g>
			<g>
				<polygon style="fill:#E6E7E8;" points="40.333,91.497 29.289,97.873 29.289,90.132 40.333,83.756 				"/>
				<polygon style="fill:#F1F2F2;" points="29.289,90.802 34.81,91.484 29.289,97.873 				"/>
				<polygon style="fill:#F1F2F2;" points="40.333,84.426 34.81,91.484 40.333,91.497 				"/>
				<polygon style="fill:#FFFFFF;" points="29.289,90.132 34.81,90.727 40.333,83.756 				"/>
			</g>
		</g>
		<g>
			
				<linearGradient id="SVGID_00000016061062065894816750000012663515336957447091_" gradientUnits="userSpaceOnUse" x1="463.664" y1="54.0994" x2="477.417" y2="54.0994" gradientTransform="matrix(-1 0 0 1 612.666 0)">
				<stop  offset="0.2358" style="stop-color:#C4BEFA"/>
				<stop  offset="1" style="stop-color:#5A5CDB"/>
			</linearGradient>
			<path style="opacity:0.5;fill:url(#SVGID_00000016061062065894816750000012663515336957447091_);" d="M137.137,49.829
				l7.736-4.467c0.617-0.356,1.161-0.369,1.505-0.109l0.002-0.006l2.622,1.541l-2.242,1.574v5.535c0,1.042-0.845,2.375-1.887,2.976
				l-6.491,3.747l0.074,2.504l-2.764-1.625l0.01-0.007c-0.278-0.168-0.453-0.487-0.453-0.952v-7.736
				C135.249,51.763,136.095,50.431,137.137,49.829z"/>
			<path style="fill:#7DE5FF;" d="M137.913,62.114c0,1.042,0.845,1.399,1.887,0.797l7.736-4.466
				c1.042-0.602,1.888-1.935,1.888-2.977v-7.736c0-1.042-0.846-1.399-1.888-0.797l-7.736,4.466
				c-1.042,0.602-1.887,1.934-1.887,2.976V62.114z"/>
			<path style="fill:#FFFFFF;" d="M141.092,58.375c0.615,0.359,1.425,0.251,2.239-0.215c0.548-0.313,1.098-0.788,1.591-1.392
				l0.001,0.039l1.577,0.872c0.172,0.097,0.398,0.064,0.624-0.065c0.228-0.129,0.453-0.356,0.624-0.649
				c0.341-0.585,0.339-1.228-0.004-1.421l-1.561-0.901h-0.035c0.645-1.754,0.47-3.409-0.559-3.99
				c-0.626-0.353-1.443-0.242-2.26,0.226c-0.816,0.467-1.631,1.29-2.253,2.357C139.833,55.37,139.84,57.667,141.092,58.375z
				 M141.849,53.671c0.409-0.702,0.946-1.244,1.485-1.552c0.538-0.308,1.077-0.382,1.489-0.15c0.823,0.465,0.827,2.002,0.026,3.377
				c-0.409,0.702-0.951,1.246-1.494,1.557c-0.542,0.31-1.086,0.387-1.497,0.155C141.035,56.593,141.031,55.075,141.849,53.671z"/>
		</g>
		<g>
			<path style="opacity:0.3;fill:#FFFFFF;" d="M99.795,44.131l-2.368-1.576l-0.005,0.01c-0.563-0.419-1.448-0.397-2.454,0.184
				l-6.057,3.497c-1.704,0.984-3.086,3.164-3.086,4.869v6.056c0,0.681,0.227,1.173,0.6,1.468l-0.006,0.005l2.663,1.775v-2.042
				l5.886-3.398c1.705-0.984,3.087-3.164,3.087-4.869v-5.247L99.795,44.131z"/>
			<g>
				<path style="fill:#7DE5FF;" d="M100.532,51.762c0,1.705-1.383,3.885-3.087,4.869l-6.057,3.497
					c-1.705,0.984-3.087,0.4-3.087-1.304v-6.056c0-1.705,1.382-3.885,3.087-4.869l6.057-3.497c1.704-0.984,3.087-0.4,3.087,1.305
					V51.762z"/>
			</g>
			<g>
				<g>
					<path style="fill:#FFFFFF;" d="M91.809,58.027l-0.905,0.522c-0.626,0.361-1.136,0.146-1.136-0.48v-3.641
						c0-0.626,0.51-1.43,1.136-1.792l0.905-0.522c0.626-0.362,1.136-0.146,1.136,0.48v3.64
						C92.944,56.861,92.435,57.665,91.809,58.027z M90.903,53.563c-0.115,0.067-0.21,0.215-0.21,0.331v3.641
						c0,0.116,0.095,0.156,0.21,0.089l0.905-0.522c0.115-0.067,0.21-0.216,0.21-0.332v-3.64c0-0.116-0.095-0.156-0.21-0.089
						L90.903,53.563z"/>
				</g>
				<g>
					<path style="fill:#FFFFFF;" d="M95.874,55.802c-1.071,0.619-2.974,1.633-3.681,1.479c-0.111-0.024-0.176-0.121-0.176-0.262
						v-4.14c0-0.228,0.165-0.513,0.382-0.676c0.367-0.374,1.476-2.028,1.51-2.379V49.63c0.001-1.308,0.001-2.172,0.847-2.66
						c0.318-0.184,0.676-0.207,0.954-0.062c0.228,0.119,0.6,0.457,0.517,1.376c-0.032,0.361-0.087,0.964-0.006,1.028
						c0.001,0,0.029,0.008,0.191-0.086c0.184-0.106,0.689-0.386,0.942-0.527l0.139-0.077c0.14-0.081,0.282-0.135,0.419-0.16
						c0.021-0.006,0.042-0.009,0.063-0.011c0.405-0.037,0.657,0.217,0.657,0.663c0,0.062,0,0.172-0.027,0.318
						c0.28,0.048,0.462,0.279,0.462,0.656c0,0.313-0.115,0.669-0.313,1c0.041,0.117,0.062,0.265,0.062,0.441
						c0,0.412-0.214,0.912-0.535,1.314c0.011,0.088,0.013,0.19,0.004,0.312C98.184,54.468,96.565,55.403,95.874,55.802z
						 M92.943,56.219c0.435-0.069,1.442-0.484,2.931-1.343c0.435-0.251,1.455-0.84,1.486-1.26c0.012-0.147-0.011-0.221-0.057-0.306
						c-0.056-0.103-0.045-0.26,0.028-0.428c0.074-0.167,0.201-0.324,0.346-0.424c0.107-0.074,0.212-0.27,0.212-0.394
						c0-0.162-0.031-0.227-0.044-0.239c-0.131-0.026-0.187-0.148-0.163-0.326c0.023-0.178,0.144-0.377,0.299-0.527
						c0.048-0.046,0.159-0.173,0.159-0.348c0-0.124-0.098-0.167-0.217-0.099c-0.206,0.119-0.387,0.087-0.444-0.076
						c-0.058-0.164,0.022-0.421,0.194-0.632c0.017-0.022,0.032-0.059,0.032-0.167c0-0.083-0.043-0.131-0.117-0.131
						c-0.005,0.001-0.011,0.002-0.016,0.002c-0.029,0.005-0.057,0.015-0.084,0.031l-0.156,0.086
						c-0.246,0.137-0.741,0.412-0.921,0.515c-0.389,0.225-0.676,0.283-0.877,0.178c-0.358-0.187-0.301-0.811-0.23-1.601
						c0.058-0.634-0.235-0.833-0.433-0.849c-0.036,0.267-0.036,0.747-0.036,1.215l-0.001,0.199
						c-0.001,0.717-1.158,2.483-1.892,3.333V56.219z"/>
				</g>
			</g>
		</g>
		<path style="fill:#EBC4A5;" d="M124.583,99.808l-1.45,3.62c0,0-3.11-2.01-4.13-2.58c-0.851-0.48-1.601-1.2-2.05-1.07
			c-0.73,0.22-2.38,0.56-3.061,0.22c-0.68-0.34,0.36-0.73,0.36-0.73c-0.51,0-0.94,0.04-1.271-0.05c-1.13-0.32-0.09-0.82-0.09-0.82
			c-0.38,0-0.99-0.23-0.79-0.7c0.11-0.28,0.561-0.37,0.891-0.49c-0.16-0.03-0.271-0.08-0.351-0.15c-0.27-0.24-0.029-0.66,0.391-0.78
			c0.54-0.14,3.09-0.26,4.06-0.39c0.23-0.03,0.46-0.01,0.68,0.04c0.011,0,0.011,0,0.011,0c0.01,0,0.029,0.01,0.04,0.01
			c0.06,0.01,0.14,0.04,0.25,0.08c0.27,0.09,0.51,0.21,0.689,0.31c0.32,0.16,0.64,0.35,0.94,0.55c0.05,0.03,0.09,0.06,0.13,0.09
			c1.16,0.78,2.06,1.66,2.06,1.66l2.15,0.94L124.583,99.808z"/>
		<path style="fill:#F5D4B3;" d="M121.893,98.628c0,0-0.97-0.95-2.189-1.75c-0.301-0.2-0.62-0.39-0.94-0.55
			c-0.18-0.1-0.42-0.22-0.689-0.31c-0.11-0.04-0.19-0.07-0.25-0.08c-0.011,0-0.03-0.01-0.04-0.01c0,0,0,0-0.011,0
			c-0.22-0.05-0.449-0.07-0.68-0.04c-0.97,0.13-3.52,0.25-4.06,0.39c-0.42,0.12-0.66,0.54-0.391,0.78
			c-0.029-0.07-0.13-0.28,0.17-0.39c0.34-0.14,4.273-0.427,4.553-0.297c0.782,0.295,1.447,1.127,1.112,1.462
			c-0.385,0.385-3.07-1.294-3.438-0.045c-0.177,0.601,2.277,1.394,2.781,1.659c0.713,0.375,0.957,0.897,3.176,0.897
			c0,0,1.808,0.734,2.317,0.734c0.351,0,0.39-0.58,0.73-1.51L121.893,98.628z"/>
		<g>
			
				<linearGradient id="SVGID_00000110454809800370780870000003065068788590675840_" gradientUnits="userSpaceOnUse" x1="480.084" y1="71.4995" x2="493.6572" y2="71.4995" gradientTransform="matrix(-1 0 0 1 612.666 0)">
				<stop  offset="0.2358" style="stop-color:#C4BEFA"/>
				<stop  offset="1" style="stop-color:#5A5CDB"/>
			</linearGradient>
			<path style="opacity:0.5;fill:url(#SVGID_00000110454809800370780870000003065068788590675840_);" d="M132.582,64.496
				l-2.364-1.579l-0.008,0.016c-0.55-0.359-1.378-0.321-2.317,0.221l-5.885,3.397c-1.656,0.956-2.999,3.074-2.999,4.73v5.884
				c0,0.782,0.307,1.311,0.797,1.562l-0.011,0.006l2.34,1.568l0.433-2.192l5.325-3.074c1.656-0.956,2.999-3.074,2.999-4.73v-5.438
				L132.582,64.496z"/>
			<g>
				<path style="fill:#FF4A4A;" d="M133.298,71.909c0,1.656-1.343,3.774-2.999,4.73l-5.884,3.397
					c-1.656,0.956-2.999,0.389-2.999-1.268v-5.884c0-1.656,1.343-3.774,2.999-4.73l5.884-3.397c1.656-0.956,2.999-0.389,2.999,1.268
					V71.909z"/>
			</g>
			<g>
				<path style="fill:#FFFFFF;" d="M127.357,76.63c-0.17,0.098-0.332,0.12-0.446,0.06c-0.009-0.005-0.924-0.485-1.896-0.454
					c-1.324,0.042-2.197-0.648-2.334-1.848c-0.174-1.516,0.843-3.51,2.313-4.539c0.896-0.627,1.717-0.786,2.362-0.533
					c0.645-0.998,1.463-1.788,2.361-2.194c1.471-0.67,2.487,0.15,2.313,1.868c-0.14,1.388-1.04,3.135-2.349,4.559
					c-1.031,1.122-1.857,2.583-1.864,2.598c-0.111,0.198-0.276,0.372-0.45,0.476C127.365,76.625,127.361,76.627,127.357,76.63z
					 M125.344,70.826c-0.066,0.038-0.134,0.081-0.202,0.129c-0.713,0.499-1.382,1.614-1.268,2.616
					c0.096,0.832,0.737,1.31,1.717,1.279c0.696-0.022,1.343,0.164,1.755,0.32c0.402-0.631,1.042-1.559,1.792-2.376
					c0.952-1.036,1.604-2.279,1.702-3.245c0.114-1.134-0.554-1.477-1.267-1.153c-0.966,0.44-1.562,1.577-1.711,1.895
					c-0.22,0.472-0.79,0.802-1.011,0.584C126.714,70.74,126.198,70.333,125.344,70.826z"/>
			</g>
		</g>
		<g>
			
				<linearGradient id="SVGID_00000057137939283289040730000000504903055218054052_" gradientUnits="userSpaceOnUse" x1="568.0351" y1="101.704" x2="575.7705" y2="101.704" gradientTransform="matrix(-1 0 0 1 612.666 0)">
				<stop  offset="0.2358" style="stop-color:#C4BEFA"/>
				<stop  offset="1" style="stop-color:#5A5CDB"/>
			</linearGradient>
			<path style="opacity:0.5;fill:url(#SVGID_00000057137939283289040730000000504903055218054052_);" d="M44.631,97.713l-1.348-0.9
				l-0.005,0.009c-0.313-0.204-0.785-0.183-1.32,0.126l-3.354,1.936c-0.943,0.545-1.709,1.752-1.709,2.696v3.353
				c0,0.445,0.175,0.747,0.454,0.89l-0.006,0.004l1.333,0.894l0.247-1.249l3.034-1.752c0.943-0.545,1.709-1.752,1.709-2.696v-3.098
				L44.631,97.713z"/>
			<g>
				<path style="fill:#FF5783;" d="M45.038,101.938c0,0.943-0.765,2.151-1.709,2.695l-3.353,1.937
					c-0.944,0.545-1.709,0.221-1.709-0.723v-3.353c0-0.944,0.765-2.151,1.709-2.696l3.353-1.936
					c0.944-0.545,1.709-0.222,1.709,0.722V101.938z"/>
			</g>
			<g>
				<path style="fill:#FFFFFF;" d="M41.652,104.627c-0.096,0.056-0.188,0.068-0.254,0.034c-0.005-0.002-0.526-0.275-1.08-0.259
					c-0.754,0.025-1.252-0.369-1.33-1.053c-0.099-0.863,0.48-2,1.318-2.586c0.511-0.357,0.979-0.448,1.346-0.304
					c0.368-0.569,0.835-1.019,1.347-1.25c0.838-0.381,1.417,0.086,1.318,1.064c-0.08,0.791-0.593,1.787-1.339,2.598
					c-0.587,0.639-1.058,1.472-1.062,1.48c-0.064,0.112-0.157,0.212-0.256,0.271C41.657,104.625,41.655,104.626,41.652,104.627z
					 M40.506,101.32c-0.038,0.022-0.076,0.047-0.116,0.073c-0.405,0.284-0.787,0.92-0.722,1.491c0.055,0.475,0.42,0.746,0.978,0.729
					c0.397-0.013,0.765,0.093,1,0.182c0.229-0.359,0.594-0.889,1.022-1.354c0.542-0.59,0.914-1.299,0.97-1.85
					c0.065-0.646-0.315-0.842-0.723-0.657c-0.55,0.251-0.89,0.899-0.975,1.08c-0.125,0.27-0.45,0.457-0.575,0.333
					C41.286,101.271,40.992,101.039,40.506,101.32z"/>
			</g>
		</g>
		<g>
			<path style="opacity:0.3;fill:#FFFFFF;" d="M49.486,81.672l6.31-3.643c1.147-0.663,2.147-0.634,2.717-0.058l0.005-0.008
				l2.568,1.484l-2.074,1.287v4.964c0,1.776-1.439,4.047-3.216,5.073l-5.681,3.279l-0.083,2.46l-2.813-1.722l0.001-0.001
				c-0.587-0.244-0.951-0.84-0.951-1.732v-6.31C46.269,84.969,47.71,82.698,49.486,81.672z"/>
			<path style="fill:#76DB76;" d="M49.229,94.816c0,1.776,1.44,2.385,3.216,1.359l6.311-3.643c1.776-1.026,3.216-3.297,3.216-5.073
				v-6.31c0-1.776-1.439-2.385-3.216-1.359l-6.311,3.643c-1.775,1.025-3.216,3.296-3.216,5.073V94.816z"/>
			<path style="fill:#FFFFFF;" d="M51.161,86.903c0.453-0.714,1.186-1.137,1.639-0.946l3.38,2.877l2.223-4.374
				c0.452-0.714,1.186-1.137,1.638-0.946c0.452,0.191,0.452,0.925,0,1.638l-3.041,5.666c-0.227,0.357-0.522,0.641-0.819,0.813
				c-0.296,0.171-0.593,0.229-0.818,0.133l-4.2-3.223C50.709,88.351,50.709,87.617,51.161,86.903z"/>
		</g>
		<g style="opacity:0.8;">
			
				<linearGradient id="SVGID_00000170271834838265974640000011636179386458356149_" gradientUnits="userSpaceOnUse" x1="497.7749" y1="36.5602" x2="501.5091" y2="28.4136" gradientTransform="matrix(-1 0 0 1 612.666 0)">
				<stop  offset="0.2358" style="stop-color:#C4BEFA"/>
				<stop  offset="1" style="stop-color:#5A5CDB"/>
			</linearGradient>
			<path style="opacity:0.5;fill:url(#SVGID_00000170271834838265974640000011636179386458356149_);" d="M110.4,29.365l3.835-2.214
				c0.697-0.403,1.306-0.386,1.651-0.036l0.003-0.005l1.561,0.902l-1.261,0.782v3.018c0,1.08-0.875,2.46-1.954,3.083l-3.452,1.993
				l-0.051,1.495l-1.71-1.046l0.001,0c-0.357-0.148-0.578-0.511-0.578-1.053v-3.835C108.445,31.369,109.32,29.989,110.4,29.365z"/>
			<path style="fill:#76DB76;" d="M110.244,37.354c0,1.08,0.875,1.45,1.955,0.826l3.835-2.214c1.079-0.624,1.955-2.004,1.955-3.083
				v-3.835c0-1.08-0.876-1.45-1.955-0.826l-3.835,2.214c-1.08,0.624-1.955,2.004-1.955,3.084V37.354z"/>
			<path style="fill:#FFFFFF;" d="M111.418,32.544c0.275-0.434,0.721-0.691,0.996-0.575l2.055,1.749l1.351-2.658
				c0.274-0.434,0.721-0.691,0.995-0.575c0.275,0.116,0.275,0.562,0,0.996l-1.848,3.443c-0.138,0.217-0.318,0.39-0.498,0.494
				c-0.181,0.104-0.36,0.139-0.498,0.081l-2.553-1.958C111.144,33.424,111.144,32.979,111.418,32.544z"/>
		</g>
		<path style="fill:#808285;" d="M132.259,94.381c0.572,0.331,0.572,0.867,0,1.197l-6.896,3.981c-0.572,0.33-1.501,0.33-2.074,0
			l-6.895-3.981c-0.573-0.331-0.573-0.867,0-1.197l6.895-3.981c0.573-0.331,1.502-0.331,2.074,0L132.259,94.381z"/>
		<g>
			<path style="fill:#A7A9AC;" d="M86.262,118.889v0.061l-7.958-4.594c-0.255-0.148-0.669-0.148-0.924,0l-3.712,2.143v-0.045h-0.393
				v0.414h0.002c-0.007,0.102,0.057,0.203,0.189,0.28l8.108,4.681c0.255,0.147,0.669,0.147,0.924,0l3.912-2.259
				c0.124-0.071,0.188-0.164,0.191-0.258l0,0v-0.423H86.262z"/>
			<path style="fill:#BCBEC0;" d="M86.411,118.623c0.256,0.146,0.256,0.386,0,0.533l-3.912,2.259c-0.255,0.147-0.669,0.147-0.924,0
				l-8.108-4.681c-0.255-0.147-0.255-0.387,0-0.533l3.913-2.26c0.255-0.147,0.669-0.147,0.924,0L86.411,118.623z"/>
			
				<linearGradient id="SVGID_00000105404773727030452020000013071389300508013487_" gradientUnits="userSpaceOnUse" x1="76.551" y1="114.3709" x2="82.9431" y2="120.7629">
				<stop  offset="0" style="stop-color:#277DE1"/>
				<stop  offset="1" style="stop-color:#111380"/>
			</linearGradient>
			<polygon style="fill:url(#SVGID_00000105404773727030452020000013071389300508013487_);" points="85.407,118.299 81.015,120.835 
				74.087,116.835 78.479,114.3 			"/>
		</g>
		<g style="opacity:0.3;">
			<path style="fill:#FFFFFF;" d="M44.38,68.854c0,0.993-0.806,2.264-1.799,2.837l-3.529,2.038c-0.993,0.574-1.799,0.233-1.799-0.76
				v-3.529c0-0.994,0.806-2.264,1.799-2.837l3.529-2.038c0.993-0.573,1.799-0.233,1.799,0.76V68.854z"/>
		</g>
		<g style="opacity:0.3;">
			<path style="fill:#FFFFFF;" d="M85.908,65.09c0,0.994-0.806,2.264-1.799,2.837l-3.529,2.038c-0.993,0.573-1.799,0.233-1.799-0.76
				v-3.529c0-0.993,0.806-2.264,1.799-2.837l3.529-2.038c0.993-0.574,1.799-0.233,1.799,0.76V65.09z"/>
		</g>
		<g style="opacity:0.3;">
			<path style="fill:#FFFFFF;" d="M112.992,44.782c0,0.993-0.806,2.264-1.799,2.837l-3.529,2.038
				c-0.993,0.574-1.799,0.233-1.799-0.76v-3.529c0-0.994,0.806-2.264,1.799-2.837l3.529-2.038c0.993-0.573,1.799-0.233,1.799,0.76
				V44.782z"/>
		</g>
		<g style="opacity:0.3;">
			<path style="fill:#FFFFFF;" d="M117.17,62.301c0,1.29-1.046,2.938-2.335,3.683l-4.58,2.644c-1.289,0.745-2.335,0.303-2.335-0.986
				v-4.581c0-1.289,1.046-2.938,2.335-3.682l4.58-2.645c1.289-0.745,2.335-0.303,2.335,0.987V62.301z"/>
		</g>
		<g style="opacity:0.3;">
			<path style="fill:#FFFFFF;" d="M144.896,69.887c0,1.209-0.98,2.754-2.188,3.452l-4.293,2.479
				c-1.209,0.698-2.188,0.284-2.188-0.925V70.6c0-1.209,0.979-2.754,2.188-3.452l4.293-2.479c1.208-0.698,2.188-0.284,2.188,0.925
				V69.887z"/>
		</g>
		<g style="opacity:0.3;">
			<path style="fill:#FFFFFF;" d="M76.496,43.502c0,1.427-1.157,3.252-2.584,4.076l-5.07,2.927
				c-1.427,0.824-2.584,0.335-2.584-1.092v-5.07c0-1.427,1.157-3.252,2.584-4.076l5.07-2.927c1.427-0.824,2.584-0.335,2.584,1.092
				V43.502z"/>
		</g>
		<path style="fill:#F5D4B3;" d="M101.467,114.302l-1.61,2.699c0,0-0.63-0.35-1.7-0.58c-1.01-0.21-2.039-1.449-2.369-1.66
			c-0.971-0.64-2.811-1.1-2.811-1.63c0-0.02,0-0.04,0.01-0.061c0.03-0.409,0.48-0.419,0.57-0.399c-1.08-0.71-1.3-0.89-1.18-1.39
			c0.01-0.04,0.019-0.07,0.05-0.1c0.14-0.221,0.53-0.101,0.73-0.021c-0.02-0.01-0.05-0.03-0.069-0.04
			c-0.011-0.01-0.021-0.01-0.03-0.02c-0.28-0.17-0.72-0.511-0.55-0.88c0.03-0.061,0.069-0.11,0.11-0.141c0-0.011,0-0.011,0-0.011
			c0.31-0.289,0.97,0.011,1.329,0.211c0.07,0.039,0.16,0.09,0.25,0.15c-0.149-0.15-0.12-0.32-0.01-0.471
			c0.021,0,0.021-0.01,0.021-0.021c0.149-0.18,0.31-0.199,0.55-0.199c0.46,0,3.45,1.36,4.2,1.769c0.13,0.07,0.29,0.2,0.47,0.37
			l0.01,0.01C100.276,112.69,101.467,114.302,101.467,114.302z"/>
		<path style="fill:#EBC4A5;" d="M101.467,114.302l-1.61,2.699c0,0-0.63-0.35-1.7-0.58c-1.01-0.21-2.039-1.449-2.369-1.66
			c-0.971-0.64-2.811-1.1-2.811-1.63c0-0.02,0-0.04,0.01-0.061c0.09,0.281,2.191,0.853,2.601,1.19
			c1.413,1.169,3.145,1.771,4.455,0.461c1.228-1.229-0.224-2.44-0.606-2.831C100.276,112.69,101.467,114.302,101.467,114.302z"/>
		<g style="opacity:0.3;">
			<path style="fill:#FFFFFF;" d="M160.651,67.248c0,0.994-0.805,2.264-1.799,2.837l-3.528,2.038
				c-0.994,0.573-1.799,0.233-1.799-0.761v-3.529c0-0.993,0.805-2.264,1.799-2.837l3.528-2.037c0.994-0.574,1.799-0.233,1.799,0.76
				V67.248z"/>
		</g>
		<g>
			<path style="fill:#D6D6D6;" d="M133.971,100.618c-0.071-1.014-0.238-2.05-0.489-3.028
				C133.744,98.46,133.911,99.45,133.971,100.618z"/>
			<path style="fill:#FFDE17;" d="M134.017,106.711c-0.03,1.721-0.1,3.761-0.24,5.891c0,0.656-0.082,0.862-0.25,1.159
				c-0.166,0.308-0.904,1.32-1.34,1.471c0,0,0.183,14.142,0.2,15.439c-2.868,2.352-8.319,4.89-11.91,3.95
				c-2.514-0.669-4.532-3.174-5.92-5.38c-1.333-2.24-2.99-7.06-2.99-7.16c0.089-2.909,0.389-10.39,0.44-13.29
				c0-2.239,0.3-5.03,0.68-7.23c0.643-3.576,0.685-3.454,3.191-5.729c1.779-1.51,2.08-1.24,2.08-1.24l6.239-2.24l0.301-0.1
				c0,0,0.149,0,0.399,0.02h0.01c0.141,0.03,0.33,0.07,0.54,0.12c0.23,0.05,0.48,0.11,0.78,0.2v-0.44c0.18-0.04,0.38-0.06,0.58-0.08
				c1.55-0.4,2.82-0.1,3.84,0.67h0.01C134.411,95.558,134.094,102.345,134.017,106.711z"/>
			<path style="fill:#FFFFFF;" d="M126.069,92.442c0,0,1.969,1.331,1.024,2.821c-0.943,1.49-3.849,2.319-6.234,1.91
				c-2.133-0.366-4.721-1.291-4.958-1.291c-0.237,0,2.038-1.877,2.038-1.877L126.069,92.442z"/>
			<path style="fill:#F5D4B3;" d="M114.469,88.287c0.122,0.284,0.264,0.527,0.406,0.709c1.805,2.332,5.271,2.453,7.42,1.865
				c0.893-0.243,1.034-2.697,0.913-5.495c-0.183-3.974-0.913-8.657-0.913-8.657l-8.859,0.608
				C113.435,77.318,113.11,85.205,114.469,88.287z"/>
			<path style="fill:#EBC4A5;" d="M121.202,86.482l0.026-0.013l1.982-1.101c0.038,0.819,0.052,1.612,0.025,2.316
				c-0.013,0.166-0.013,0.332-0.025,0.486c0,0.077-0.013,0.153-0.013,0.217c-0.025,0.32-0.063,0.602-0.103,0.87h0.013l3.097-0.998
				v5.281c-0.006,0.015,0,1.244-1.218,1.876c-1.654,0.858-4.179,0.836-5.844,0c-1.394-0.7-1.204-1.646-1.204-1.646
				c-0.001-0.027,0-2.862,0-2.862l0,0c-0.593-0.153-0.993-0.314-1.28-0.454c-0.951-0.476-1.784-1.176-2.19-2.169
				C118.319,90.461,121.202,86.482,121.202,86.482z"/>
			<path style="fill:#B87951;" d="M112.492,76.824c0.944,0.868,2.039,1.208,2.794,2.152c1.535,1.938-0.227,4.606,0.981,4.794
				c1.208,0.202,1.032-3.712,3.247-2.227c0.604,0.402,1.157,1.837,1.157,3.548c0,1.649,0.517,3.624,0.818,4.165
				c0.667,1.183,4.178,2.731,6.04,0.881c1.032-1.044,1.951-2.315,2.63-3.8c0.013-0.013,0.013-0.025,0.013-0.025
				c0.428-0.944,0.767-1.976,0.981-3.07c0.856-4.203,0.089-8.369-1.296-10.13c-3.096-3.964-8.293-4.404-12.257-3.008
				c-2.605,0.931-3.498-0.352-4.015-0.453c-0.075-0.013-0.126-0.013-0.188,0.025C110.579,71.324,110.718,75.175,112.492,76.824z"/>
			<path style="fill:#A96C45;" d="M112.492,76.824c0.944,0.868,2.039,1.208,2.794,2.152c0.378,0.491,0.554,1.032,0.629,1.561
				c0.013,0.013,0.013,0.025,0.013,0.038c0.038,0.365,0.038,0.73,0,1.083v0.05c-0.013,0.138-0.025,0.289-0.038,0.415
				c-0.101,0.894-0.201,1.561,0.378,1.648c0.44,0.076,0.692-0.403,0.956-0.969c0.089-0.189,0.177-0.39,0.277-0.579
				c0.025-0.05,0.05-0.101,0.075-0.151c0.013-0.025,0.025-0.038,0.025-0.05c0.163-0.302,0.353-0.579,0.616-0.705
				c0.063-0.05,0.139-0.076,0.214-0.088h0.013c0.277-0.063,0.63,0.013,1.07,0.315c0.604,0.402,1.157,1.837,1.157,3.548
				c0,1.649,0.517,3.624,0.818,4.165c0.667,1.183,4.178,2.731,6.04,0.881c0.944-0.957,1.787-2.102,2.429-3.423
				c-0.39,0.667-1.359,1.888-3.473,1.284c-2.857-0.818-1.334-3.461-2.392-8.733c-1.069-5.26-6.418-3.688-8.582-4.405
				c-2.165-0.705-2.668-3.851-1.926-5.209c-0.075-0.013-0.126-0.013-0.188,0.025C110.579,71.324,110.718,75.175,112.492,76.824z"/>
			<path style="fill:#FFDE17;" d="M122.303,108.207c-1.115,5.523-5.361,13.565-10.731,13.879h-0.008
				c-1.862,0.112-3.829-0.258-5.611-0.795c-2.093-0.644-3.156-1.164-3.78-1.429c-0.95-0.438-2.302-1.126-2.424-1.227l0,0
				c-0.526-0.381-0.488-1.881-0.306-2.257c0.298-0.746,0.907-1.476,1.598-1.877c0.562-0.329,1.052-0.354,1.396-0.137
				c0,0,3.299,1.821,5.298,1.821c2.703,0,3.5-0.938,4.166-3.571c1.043-4.206,0.795-11.053,0.795-11.053
				c0-0.555,0.088-1.028,0.272-1.421c0.643-1.549,2.464-1.87,4.607-0.626c3.066,1.777,4.318,5.105,4.318,5.105
				C122.31,105.683,122.658,107.156,122.303,108.207z"/>
			<g>
				<path style="fill:#2B3990;" d="M112.567,78.736c0,0.013,0.013,0.025,0.013,0.038c0.089,0.289,1.473,0.528,1.397,1.435
					l-0.151,2.68c-0.013,0.126-0.151,0.214-0.302,0.264l-0.072-0.656c0,0-0.569,0.203-0.759,0.492c0,0.013,0,0.013,0,0.013
					c-0.024,0.025-0.037,0.05-0.05,0.076c-0.025,0.063-0.051,0.44,0.214,0.717c0.188,0.188,0.742,0.151,1.145,0.038
					c0.441-0.113,0.507-0.6,0.62-1.984c0-0.05,2.351,0.813,2.602,0.952c0.089-0.189,0.177-0.39,0.277-0.579
					c0.025-0.05,0.05-0.101,0.075-0.151c0.013-0.025,0.025-0.038,0.025-0.05c0.163-0.302,0.353-0.579,0.616-0.705l-1.95-0.667
					l-0.353-0.113l-1.183-0.403c0.013-0.503-0.063-0.843-0.402-1.107c-0.151-0.113-0.718-0.579-0.919-0.73l-0.013-0.579
					c0,0-0.528,0.264-0.667,0.402C112.556,78.296,112.479,78.396,112.567,78.736z"/>
				<path style="opacity:0.7;fill:#FFFFFF;" d="M112.572,78.731c0,0.013,0.012,0.025,0.012,0.038
					c0.089,0.289,1.469,0.534,1.393,1.44l-0.151,2.68c-0.013,0.126-0.151,0.214-0.302,0.264c0,0-0.601,0.083-0.827-0.156
					c0,0,0,0,0-0.013C112.459,82.695,112.572,78.731,112.572,78.731z"/>
			</g>
			<path style="fill:#FFCD19;" d="M134.017,106.711c-0.03,1.721-0.1,3.761-0.24,5.891c0,0.17-0.02,0.37-0.029,0.539
				c-0.043,0.676-1.034,1.838-1.561,2.091c0,0,0.183,14.142,0.2,15.439c0,0-5.77,4.73-11.32,4.061
				c-2.824-0.284-5.344-3.502-6.802-5.952c-1.206-2.062-2.605-6.377-2.701-6.693c-0.24,0.021-0.489,0.028-0.729,0.028
				c-1.65,0-3.327-0.354-4.877-0.823c-1.053-0.316-2.119-0.709-3.131-1.14c-0.531-0.231-1.143-0.512-1.76-0.82
				c-0.639-0.319-0.982-0.499-1.158-0.599c-0.168-0.095-0.3-0.186-0.411-0.406c-0.169-0.336-0.177-0.789-0.177-1.145
				c0-0.139,0.019-0.606,0.122-0.804c0,0,5.614,4.924,12.204,3.224c0.57-0.13,1.141-0.32,1.75-0.541
				c5.021-1.939,6.49-9.189,8.49-14.439v-0.01c1.03-2.671,2.17-4.82,4-5.5c5.43-2.04,5.74-4.82,4.76-6.36h0.01
				c0.951,0.713,1.957,1.922,2.721,4.42c0.39,1.467,0.649,2.9,0.649,4.78C134.026,101.951,134.076,103.891,134.017,106.711z"/>
		</g>
		<g>
			
				<linearGradient id="SVGID_00000104664366335831287210000006518409346854486974_" gradientUnits="userSpaceOnUse" x1="479.4433" y1="140.4609" x2="479.4433" y2="100.0796" gradientTransform="matrix(-1 0 0 1 611.9609 0)">
				<stop  offset="0" style="stop-color:#111380"/>
				<stop  offset="1" style="stop-color:#277DE1"/>
			</linearGradient>
			<path style="fill:url(#SVGID_00000104664366335831287210000006518409346854486974_);" d="M120.063,132.105v-0.053l2.108-18.006
				c0.104-2.212,2.134-5.109,4.539-6.498l11.613-6.705c1.493-0.862,2.843-0.975,3.679-0.439v-0.003l2.448,1.389l-1.297,2.396
				l1.818,13.484c0,0.061,0.009,0.126,0.017,0.182l0.044,0.89v0.156c0,6.813-5.602,14.273-12.511,18.263
				c-2.294,1.324-4.437,2.087-6.284,2.285l-1.043,1.014c0,0-1.915-1.2-2.568-1.575c-1.613-0.924-2.625-2.691-2.625-5.534v-0.025
				L120.063,132.105z"/>
			
				<linearGradient id="SVGID_00000033366127290836507000000010491374620677760146_" gradientUnits="userSpaceOnUse" x1="476.7007" y1="120.5746" x2="476.7007" y2="87.4459" gradientTransform="matrix(-1 0.5774 0 1 611.9609 -257.0256)">
				<stop  offset="0" style="stop-color:#111380"/>
				<stop  offset="1" style="stop-color:#277DE1"/>
			</linearGradient>
			<path style="fill:url(#SVGID_00000033366127290836507000000010491374620677760146_);" d="M122.786,133.748v-0.053l2.108-18.006
				c0.105-2.212,1.989-5.397,4.539-6.498c3.193-1.378,8.987-4.078,11.613-6.705c1.964-1.963,4.443-0.84,4.548,1.252l2.101,15.576
				c0.814,5.088-3.324,14.221-12.45,19.49c-6.918,3.994-12.52,3.003-12.52-3.811v-0.025L122.786,133.748z"/>
			
				<linearGradient id="SVGID_00000137811396531779634070000010684578433289918359_" gradientUnits="userSpaceOnUse" x1="475.9037" y1="121.1993" x2="475.9037" y2="90.233" gradientTransform="matrix(-1 0.5774 0 1 611.9609 -257.0256)">
				<stop  offset="0" style="stop-color:#111380"/>
				<stop  offset="1" style="stop-color:#2368CE"/>
			</linearGradient>
			<path style="fill:url(#SVGID_00000137811396531779634070000010684578433289918359_);" d="M124.415,134.231v-0.049l1.971-16.831
				c0.099-2.068,1.86-5.045,4.243-6.074c2.985-1.288,8.4-3.813,10.857-6.267c1.835-1.835,4.153-0.785,4.251,1.17l1.963,14.56
				c0,0.058,0.008,0.118,0.016,0.171l0.041,0.831v0.146c0,6.368-5.236,13.342-11.694,17.07c-6.467,3.733-11.703,2.807-11.703-3.561
				v-0.024L124.415,134.231z"/>
		</g>
		<g>
			<polygon style="fill:#FFFFFF;" points="80.014,86.415 72.8,90.579 72.8,81.408 80.014,77.244 			"/>
			<polygon style="fill:#FFE252;" points="79.717,84.142 73.096,87.964 73.096,81.506 79.717,77.684 			"/>
			<polygon style="fill:#FFFFFF;" points="88.416,82.289 81.202,86.454 81.202,76.557 88.416,72.393 			"/>
			<polygon style="fill:#FFFFFF;" points="88.416,90.254 81.202,94.419 81.202,87.642 88.416,83.478 			"/>
			<polygon style="fill:#FFFFFF;" points="80.014,95.105 72.8,99.27 72.8,91.842 80.014,87.677 			"/>
			<polygon style="fill:#FFFFFF;" points="96.818,85.403 89.605,89.567 89.605,71.706 96.818,67.541 			"/>
			<polygon style="fill:#FFFFFF;" points="105.116,80.612 97.902,84.776 97.902,66.915 105.116,62.75 			"/>
			
				<linearGradient id="SVGID_00000176023978211570355590000012616665487575549370_" gradientUnits="userSpaceOnUse" x1="81.5322" y1="-52.1863" x2="88.1523" y2="-52.1863" gradientTransform="matrix(1 -0.5774 0 1 0 179.217)">
				<stop  offset="0" style="stop-color:#FF82A8"/>
				<stop  offset="0.2265" style="stop-color:#FF93A5"/>
				<stop  offset="1" style="stop-color:#FFCC9B"/>
			</linearGradient>
			<polygon style="fill:url(#SVGID_00000176023978211570355590000012616665487575549370_);" points="88.152,79.361 81.532,83.183 
				81.532,76.725 88.152,72.902 			"/>
			<polygon style="fill:#8EB7FF;" points="96.522,74.529 89.901,78.351 89.901,71.893 96.522,68.07 			"/>
			<polygon style="fill:#8EB7FF;" points="79.717,94.634 73.096,98.456 73.096,91.998 79.717,88.175 			"/>
			<polygon style="fill:#FFE252;" points="88.119,90.028 81.499,93.851 81.499,87.745 88.119,83.922 			"/>
			<g>
				<path style="fill:#FFFFFF;" d="M86.012,74.831c0.317-0.183,0.845-0.408,1.102-0.066c0.383,0.507,0.639,0.871,0.651,0.89
					l-1.052,1.346l-0.239-0.279l-0.01,2.92l-3.261,1.883l0.009-2.92l-0.242,0.558l-1.05-0.133c0.014-0.035,0.274-0.696,0.66-1.647
					c0.261-0.641,0.788-1.025,1.105-1.209c0.153-0.089,0.252-0.128,0.258-0.13c-0.002,0.544,0.403,0.588,0.902,0.3
					c0.501-0.289,0.906-0.801,0.907-1.346C85.759,74.996,85.857,74.92,86.012,74.831z"/>
			</g>
			<path style="fill:#FFFFFF;" d="M78.772,92.793c-0.567,0.65-1.271,1.269-2.048,1.777l-0.419-1.458l-0.421,1.946
				c-0.774,0.394-1.481,0.593-2.051,0.61l0.816-3.774c0.451-0.141,0.992-0.384,1.576-0.721c0.65-0.375,1.248-0.807,1.726-1.229
				L78.772,92.793z"/>
			<g>
				<path style="fill:#FFFFFF;" d="M77.254,80.975c-0.245-0.017-0.537,0.057-0.85,0.238c-0.313,0.18-0.605,0.444-0.851,0.744
					c-0.427,0.523-0.708,1.164-0.708,1.71c0,0.545,0.281,0.866,0.708,0.896c0.245,0.017,0.538-0.058,0.851-0.238
					c0.313-0.18,0.604-0.444,0.85-0.744c0.428-0.523,0.708-1.168,0.708-1.714C77.962,81.321,77.682,81.005,77.254,80.975z
					 M76.945,83.592c-0.162,0.173-0.348,0.324-0.541,0.436c-0.194,0.112-0.38,0.176-0.542,0.19c-0.427,0.045-0.72-0.217-0.72-0.723
					c0-0.589,0.407-1.319,0.957-1.771c0.099-0.085,0.197-0.154,0.305-0.215c0.106-0.061,0.205-0.107,0.305-0.136
					c0.549-0.183,0.956,0.076,0.956,0.666C77.665,82.544,77.373,83.144,76.945,83.592z"/>
				<path style="fill:#FFFFFF;" d="M76.532,82.437c-0.039,0.003-0.081,0.014-0.128,0.041c-0.027,0.016-0.052,0.038-0.076,0.06
					l-0.463-0.345l-0.138,0.184l0.454,0.339c-0.04,0.074-0.068,0.151-0.068,0.221c0,0.161,0.13,0.215,0.291,0.123
					c0.16-0.093,0.29-0.298,0.29-0.458c0-0.05-0.016-0.086-0.037-0.114l0.423-0.784l-0.136-0.028L76.532,82.437z"/>
				<path style="fill:#FFFFFF;" d="M77.254,80.777v-1.465l-1.7,0.982v1.464c0.245-0.299,0.538-0.563,0.851-0.744
					C76.717,80.834,77.009,80.76,77.254,80.777z"/>
				<path style="fill:#FFFFFF;" d="M75.554,84.76v1.579l1.7-0.981v-1.579c-0.245,0.299-0.537,0.563-0.85,0.744
					C76.092,84.703,75.799,84.776,75.554,84.76z"/>
			</g>
			<g>
				<path style="fill:#FFFFFF;" d="M94.498,74.865l-2.572,1.485c-0.641,0.37-1.162,0.149-1.162-0.491v-2.461
					c0-0.641,0.521-1.462,1.162-1.832l2.572-1.485c0.641-0.37,1.161-0.149,1.161,0.491v2.461
					C95.659,73.674,95.139,74.496,94.498,74.865z M91.926,71.897c-0.458,0.264-0.83,0.852-0.83,1.309v2.462
					c0,0.458,0.372,0.615,0.83,0.351l2.572-1.485c0.457-0.264,0.829-0.851,0.829-1.309v-2.461c0-0.457-0.372-0.615-0.829-0.351
					L91.926,71.897z"/>
			</g>
			<g>
				<path style="fill:#FFFFFF;" d="M93.212,74.405c-0.656,0.379-1.19,0.153-1.19-0.502c0-0.656,0.534-1.499,1.19-1.877
					c0.656-0.379,1.189-0.153,1.189,0.503C94.401,73.185,93.868,74.027,93.212,74.405z M93.212,72.358
					c-0.474,0.273-0.858,0.88-0.858,1.353c0,0.473,0.385,0.636,0.858,0.363c0.473-0.273,0.857-0.88,0.857-1.354
					C94.069,72.247,93.685,72.085,93.212,72.358z"/>
			</g>
			<path style="fill:#FFFFFF;" d="M94.819,70.85c0,0.145-0.117,0.33-0.262,0.414c-0.146,0.083-0.263,0.034-0.263-0.111
				c0-0.145,0.117-0.33,0.263-0.413C94.702,70.656,94.819,70.706,94.819,70.85z"/>
			<g>
				<path style="fill:#FFFFFF;" d="M84.779,91.538c-1.451,0.838-2.631,0.339-2.631-1.112c0-1.449,1.18-3.31,2.631-4.147
					c1.451-0.837,2.631-0.34,2.631,1.109C87.41,88.838,86.23,90.7,84.779,91.538z M84.779,86.942
					c-1.085,0.626-1.968,2.017-1.968,3.1c0,1.085,0.883,1.458,1.968,0.831c1.085-0.626,1.968-2.019,1.968-3.104
					C86.747,86.688,85.864,86.316,84.779,86.942z"/>
			</g>
			<g>
				<path style="fill:#FFFFFF;" d="M84.042,90.877c-0.058,0.033-0.115,0.051-0.166,0.052c-0.103,0-0.166-0.073-0.166-0.192v-2.422
					c0-0.118,0.063-0.265,0.166-0.383c0.102-0.119,0.228-0.191,0.332-0.192h2.098c0.103,0,0.165,0.073,0.165,0.191
					c0,0.119-0.063,0.265-0.165,0.383l-2.098,2.422C84.156,90.796,84.099,90.844,84.042,90.877z M84.374,88.506v1.272l1.102-1.272
					H84.374z"/>
			</g>
			<polygon style="fill:#8EB7FF;" points="96.522,75.616 89.901,79.438 89.901,78.999 96.522,75.177 			"/>
			
				<linearGradient id="SVGID_00000105421351992495504940000002188007473788980889_" gradientUnits="userSpaceOnUse" x1="100.1982" y1="-55.1952" x2="102.8193" y2="-55.1952" gradientTransform="matrix(1 -0.5774 0 1 0 179.217)">
				<stop  offset="0" style="stop-color:#FF82A8"/>
				<stop  offset="0.2265" style="stop-color:#FF93A5"/>
				<stop  offset="1" style="stop-color:#FFCC9B"/>
			</linearGradient>
			<polygon style="fill:url(#SVGID_00000105421351992495504940000002188007473788980889_);" points="102.819,64.873 100.198,66.387 
				100.198,65.948 102.819,64.435 			"/>
			
				<linearGradient id="SVGID_00000068668799091616370030000001154127323034167970_" gradientUnits="userSpaceOnUse" x1="98.1992" y1="-54.3536" x2="104.8193" y2="-54.3536" gradientTransform="matrix(1 -0.5774 0 1 0 179.217)">
				<stop  offset="0" style="stop-color:#FF82A8"/>
				<stop  offset="0.2265" style="stop-color:#FF93A5"/>
				<stop  offset="1" style="stop-color:#FFCC9B"/>
			</linearGradient>
			<polygon style="fill:url(#SVGID_00000068668799091616370030000001154127323034167970_);" points="104.819,64.56 98.199,68.383 
				98.199,67.944 104.819,64.121 			"/>
			
				<linearGradient id="SVGID_00000169515520008796625600000007580545882892710284_" gradientUnits="userSpaceOnUse" x1="98.1992" y1="-53.5121" x2="104.8193" y2="-53.5121" gradientTransform="matrix(1 -0.5774 0 1 0 179.217)">
				<stop  offset="0" style="stop-color:#FF82A8"/>
				<stop  offset="0.2265" style="stop-color:#FF93A5"/>
				<stop  offset="1" style="stop-color:#FFCC9B"/>
			</linearGradient>
			<polygon style="fill:url(#SVGID_00000169515520008796625600000007580545882892710284_);" points="104.819,65.401 98.199,69.224 
				98.199,68.785 104.819,64.963 			"/>
			
				<linearGradient id="SVGID_00000009558132170274606840000016780083469410298257_" gradientUnits="userSpaceOnUse" x1="98.1992" y1="-52.6708" x2="104.8193" y2="-52.6708" gradientTransform="matrix(1 -0.5774 0 1 0 179.217)">
				<stop  offset="0" style="stop-color:#FF82A8"/>
				<stop  offset="0.2265" style="stop-color:#FF93A5"/>
				<stop  offset="1" style="stop-color:#FFCC9B"/>
			</linearGradient>
			<polygon style="fill:url(#SVGID_00000009558132170274606840000016780083469410298257_);" points="104.819,66.243 98.199,70.065 
				98.199,69.627 104.819,65.804 			"/>
			
				<linearGradient id="SVGID_00000114036864380205739680000005494731395424302254_" gradientUnits="userSpaceOnUse" x1="98.1992" y1="-51.8294" x2="100.9531" y2="-51.8294" gradientTransform="matrix(1 -0.5774 0 1 0 179.217)">
				<stop  offset="0" style="stop-color:#FF82A8"/>
				<stop  offset="0.2265" style="stop-color:#FF93A5"/>
				<stop  offset="1" style="stop-color:#FFCC9B"/>
			</linearGradient>
			<polygon style="fill:url(#SVGID_00000114036864380205739680000005494731395424302254_);" points="100.953,69.317 98.199,70.907 
				98.199,70.468 100.953,68.878 			"/>
			
				<linearGradient id="SVGID_00000142889917125419383680000006511836574888985276_" gradientUnits="userSpaceOnUse" x1="98.1992" y1="-50.1466" x2="104.8193" y2="-50.1466" gradientTransform="matrix(1 -0.5774 0 1 0 179.217)">
				<stop  offset="0" style="stop-color:#FF82A8"/>
				<stop  offset="0.2265" style="stop-color:#FF93A5"/>
				<stop  offset="1" style="stop-color:#FFCC9B"/>
			</linearGradient>
			<polygon style="fill:url(#SVGID_00000142889917125419383680000006511836574888985276_);" points="104.819,68.767 98.199,72.59 
				98.199,72.151 104.819,68.328 			"/>
			
				<linearGradient id="SVGID_00000137855062604681255930000012034067818031423421_" gradientUnits="userSpaceOnUse" x1="99.5762" y1="-49.3052" x2="103.4424" y2="-49.3052" gradientTransform="matrix(1 -0.5774 0 1 0 179.217)">
				<stop  offset="0" style="stop-color:#FF82A8"/>
				<stop  offset="0.2265" style="stop-color:#FF93A5"/>
				<stop  offset="1" style="stop-color:#FFCC9B"/>
			</linearGradient>
			<polygon style="fill:url(#SVGID_00000137855062604681255930000012034067818031423421_);" points="103.442,70.404 99.576,72.636 
				99.576,72.197 103.442,69.965 			"/>
			
				<linearGradient id="SVGID_00000086669925467647334160000009909078924626970766_" gradientUnits="userSpaceOnUse" x1="98.1992" y1="-47.6225" x2="104.8193" y2="-47.6225" gradientTransform="matrix(1 -0.5774 0 1 0 179.217)">
				<stop  offset="0" style="stop-color:#FF82A8"/>
				<stop  offset="0.2265" style="stop-color:#FF93A5"/>
				<stop  offset="1" style="stop-color:#FFCC9B"/>
			</linearGradient>
			<polygon style="fill:url(#SVGID_00000086669925467647334160000009909078924626970766_);" points="104.819,71.291 98.199,75.114 
				98.199,74.675 104.819,70.853 			"/>
			
				<linearGradient id="SVGID_00000091734861481991535900000007055469432586545555_" gradientUnits="userSpaceOnUse" x1="98.1992" y1="-46.7811" x2="104.8193" y2="-46.7811" gradientTransform="matrix(1 -0.5774 0 1 0 179.217)">
				<stop  offset="0" style="stop-color:#FF82A8"/>
				<stop  offset="0.2265" style="stop-color:#FF93A5"/>
				<stop  offset="1" style="stop-color:#FFCC9B"/>
			</linearGradient>
			<polygon style="fill:url(#SVGID_00000091734861481991535900000007055469432586545555_);" points="104.819,72.133 98.199,75.955 
				98.199,75.516 104.819,71.694 			"/>
			
				<linearGradient id="SVGID_00000051341248029196998970000011544932370280504253_" gradientUnits="userSpaceOnUse" x1="98.1992" y1="-45.9397" x2="104.8193" y2="-45.9397" gradientTransform="matrix(1 -0.5774 0 1 0 179.217)">
				<stop  offset="0" style="stop-color:#FF82A8"/>
				<stop  offset="0.2265" style="stop-color:#FF93A5"/>
				<stop  offset="1" style="stop-color:#FFCC9B"/>
			</linearGradient>
			<polygon style="fill:url(#SVGID_00000051341248029196998970000011544932370280504253_);" points="104.819,72.974 98.199,76.796 
				98.199,76.358 104.819,72.535 			"/>
			<polygon style="fill:#8EB7FF;" points="96.522,76.466 89.901,80.289 89.901,79.85 96.522,76.028 			"/>
			<polygon style="fill:#FFE252;" points="79.727,85.313 73.106,89.135 73.106,88.696 79.727,84.873 			"/>
			<polygon style="fill:#FFE252;" points="76.116,88.248 73.106,89.985 73.106,89.547 76.116,87.809 			"/>
			<polygon style="fill:#8EB7FF;" points="94.295,78.603 89.901,81.139 89.901,80.701 94.295,78.164 			"/>
			
				<linearGradient id="SVGID_00000044174065318157372760000000666491209501284779_" gradientUnits="userSpaceOnUse" x1="81.4736" y1="-48.0894" x2="83.916" y2="-48.0894" gradientTransform="matrix(1 -0.5774 0 1 0 179.217)">
				<stop  offset="0" style="stop-color:#FF82A8"/>
				<stop  offset="0.2265" style="stop-color:#FF93A5"/>
				<stop  offset="1" style="stop-color:#FFCC9B"/>
			</linearGradient>
			<polygon style="fill:url(#SVGID_00000044174065318157372760000000666491209501284779_);" points="83.916,82.894 81.474,84.304 
				81.474,83.865 83.916,82.456 			"/>
			
				<linearGradient id="SVGID_00000042735283882714454890000014515732653307014801_" gradientUnits="userSpaceOnUse" x1="81.4736" y1="-47.2387" x2="88.0947" y2="-47.2387" gradientTransform="matrix(1 -0.5774 0 1 0 179.217)">
				<stop  offset="0" style="stop-color:#FF82A8"/>
				<stop  offset="0.2265" style="stop-color:#FF93A5"/>
				<stop  offset="1" style="stop-color:#FFCC9B"/>
			</linearGradient>
			<polygon style="fill:url(#SVGID_00000042735283882714454890000014515732653307014801_);" points="88.095,81.332 81.474,85.154 
				81.474,84.716 88.095,80.893 			"/>
			
				<linearGradient id="SVGID_00000090997460704122649560000016078937988671458957_" gradientUnits="userSpaceOnUse" x1="81.4736" y1="-46.3885" x2="82.9404" y2="-46.3885" gradientTransform="matrix(1 -0.5774 0 1 0 179.217)">
				<stop  offset="0" style="stop-color:#FF82A8"/>
				<stop  offset="0.2265" style="stop-color:#FF93A5"/>
				<stop  offset="1" style="stop-color:#FFCC9B"/>
			</linearGradient>
			<polygon style="fill:url(#SVGID_00000090997460704122649560000016078937988671458957_);" points="82.94,85.158 81.474,86.005 
				81.474,85.566 82.94,84.719 			"/>
			<polygon style="fill:#8EB7FF;" points="96.522,79.018 89.901,82.84 89.901,82.401 96.522,78.579 			"/>
			<polygon style="fill:#8EB7FF;" points="96.522,79.868 89.901,83.691 89.901,83.252 96.522,79.43 			"/>
			<polygon style="fill:#8EB7FF;" points="91.847,83.418 89.901,84.541 89.901,84.103 91.847,82.979 			"/>
			<polygon style="fill:#8EB7FF;" points="96.522,82.42 89.901,86.242 89.901,85.804 96.522,81.981 			"/>
			
				<linearGradient id="SVGID_00000181796715925159526310000016817695300680537260_" gradientUnits="userSpaceOnUse" x1="98.1992" y1="-41.5792" x2="104.8193" y2="-41.5792" gradientTransform="matrix(1 -0.5774 0 1 0 179.217)">
				<stop  offset="0" style="stop-color:#FF82A8"/>
				<stop  offset="0.2265" style="stop-color:#FF93A5"/>
				<stop  offset="1" style="stop-color:#FFCC9B"/>
			</linearGradient>
			<polygon style="fill:url(#SVGID_00000181796715925159526310000016817695300680537260_);" points="104.819,80.442 98.199,84.264 
				98.199,77.611 104.819,73.789 			"/>
			<path style="fill:#FFFFFF;" d="M103.982,78.23l-0.43,0.001c0.015-0.109,0.024-0.217,0.024-0.323c0-0.104-0.009-0.204-0.024-0.296
				l0.43-0.496c0.044-0.05,0.058-0.113,0.033-0.142l-0.664-0.767c-0.025-0.029-0.08-0.011-0.123,0.038l-0.43,0.497
				c-0.162-0.035-0.341-0.036-0.535,0v-0.497c0-0.049-0.041-0.066-0.09-0.038l-1.329,0.767c-0.049,0.029-0.09,0.093-0.09,0.142
				v0.496c-0.194,0.189-0.374,0.397-0.535,0.618l-0.43-0.001c-0.043,0.001-0.098,0.046-0.123,0.104l-0.664,1.533
				c-0.024,0.058-0.011,0.104,0.033,0.104l0.429-0.001c-0.014,0.109-0.022,0.218-0.022,0.322c0,0.105,0.009,0.204,0.022,0.297
				l-0.429,0.496c-0.044,0.05-0.058,0.113-0.033,0.142l0.664,0.767c0.025,0.029,0.08,0.012,0.123-0.038l0.43-0.497
				c0.161,0.035,0.341,0.036,0.535,0v0.496c0,0.05,0.041,0.067,0.09,0.038l1.329-0.767c0.049-0.028,0.09-0.092,0.09-0.142V80.59
				c0.194-0.189,0.373-0.397,0.535-0.618l0.43,0c0.043,0,0.098-0.047,0.123-0.104l0.664-1.533
				C104.04,78.277,104.026,78.231,103.982,78.23z M101.51,80.201c-0.608,0.351-1.1,0.143-1.1-0.465c0-0.607,0.491-1.383,1.1-1.733
				c0.607-0.351,1.099-0.143,1.099,0.464C102.608,79.075,102.117,79.85,101.51,80.201z"/>
		</g>
		<path style="fill:#2B231F;" d="M101.467,144.141v8.65c-1.28,0.48-2.98,0.38-4.1-0.26c-0.641-0.37-0.971-0.86-0.971-1.35
			c0-1.551-0.399-17.91-0.399-21.311c0-0.16,0.01-0.311,0.02-0.47C96.017,129.401,101.467,133.491,101.467,144.141z"/>
		<path style="fill:#EBC4A5;" d="M97.507,111.751c0,0-1.47-0.17-3.311-1.319c-0.149-0.15-0.12-0.32-0.01-0.471
			c0.021,0,0.021-0.01,0.021-0.021c0,0-0.027,0.048,0.772,0.487C95.779,110.868,97.507,111.751,97.507,111.751z"/>
		<path style="fill:#EBC4A5;" d="M96.467,112.281c0,0-1.17,0.07-3.31-1.12c-0.02-0.01-0.05-0.03-0.069-0.04
			c-0.011-0.01-0.021-0.01-0.03-0.02c-0.28-0.17-0.72-0.511-0.55-0.88c0.03-0.061,0.069-0.11,0.11-0.141
			c-0.021,0.06-0.178,0.343,0.782,0.813C94.46,111.404,96.467,112.281,96.467,112.281z"/>
		<path style="fill:#EBC4A5;" d="M95.646,113.161c0,0-0.75,0.11-2.09-0.49c-1.08-0.71-1.3-0.89-1.18-1.39
			c0.01-0.04,0.019-0.07,0.05-0.1c0,0-0.246,0.159,0.725,0.709C94.121,112.44,95.646,113.161,95.646,113.161z"/>
	</g>
</g>
</svg>
