<?xml version="1.0" encoding="utf-8"?>
<!-- Generator: Adobe Illustrator 27.5.0, SVG Export Plug-In . SVG Version: 6.00 Build 0)  -->
<svg version="1.1" xmlns="http://www.w3.org/2000/svg" xmlns:xlink="http://www.w3.org/1999/xlink" x="0px" y="0px"
	 viewBox="0 0 500 500" style="enable-background:new 0 0 500 500;" xml:space="preserve">
<g id="BACKGROUND">
	<rect id="XMLID_7_" style="fill:#4D4697;" width="500" height="500"/>
</g>
<g id="OBJECTS">
	<g>
		<g>
			<defs>
				<rect id="SVGID_1_" width="500" height="500"/>
			</defs>
			<clipPath id="SVGID_00000159453697121824229660000017082368661192870064_">
				<use xlink:href="#SVGID_1_"  style="overflow:visible;"/>
			</clipPath>
			<path style="opacity:0.39;clip-path:url(#SVGID_00000159453697121824229660000017082368661192870064_);fill:#4C4797;" d="
				M170.975,519.008c-34.928,20.702-84.943,26.042-96.508-23.667c-4.132-17.758-1.443-36.273-0.318-54.47
				c1.048-16.956,0.642-34.401-5.372-50.29c-6.014-15.888-18.478-30.104-34.881-34.525c-10.829-2.919-22.284-1.429-33.494-1.803
				c-73.313-2.451-111.187-82.076-105.755-148.025c5.264-63.913,66.062-138.758,135.9-118.72
				c15.574,4.468,31.335,10.516,47.451,8.843c21.313-2.213,39.178-17.782,50.808-35.779c11.63-17.997,18.372-38.63,27.29-58.113
				c11.397-24.899,28.852-47.193,53.277-60.196c25.618-13.638,56.439-19.355,84.115-10.619c7.023,2.217,13.888,5.408,19.249,10.459
				c19.3,18.187,11.794,50.511,21.846,75.051c12.168,29.705,47.325,42.302,79.152,46.485c31.827,4.182,65.866,3.863,93.148,20.778
				c24.047,14.909,39.32,42.325,41.309,70.549c1.989,28.224-8.726,56.735-27.322,78.059c-13.158,15.089-29.898,26.665-43.507,41.348
				c-20.821,22.464-33.724,52.126-35.961,82.674c-0.909,12.409-0.156,25.167-4.043,36.986c-7.209,21.921-29.077,36.05-51.321,42.187
				c-22.245,6.137-45.681,6.021-68.503,9.43c-28.731,4.292-56.601,14.27-81.527,29.187
				C213.512,488.296,193.526,505.642,170.975,519.008z"/>
			<path style="clip-path:url(#SVGID_00000159453697121824229660000017082368661192870064_);fill:#4C4797;" d="M339.826,41.955
				c0-13.105-10.624-23.729-23.729-23.729c-6.787,0-12.903,2.854-17.228,7.421c-3.359-14.442-16.3-25.205-31.764-25.205
				c-1.214,0-2.411,0.072-3.591,0.201c-7.481-10.733-19.907-17.763-33.982-17.763c-21.992,0-39.969,17.149-41.312,38.802
				c-3.595-2.192-7.818-3.456-12.337-3.456c-13.105,0-23.729,10.624-23.729,23.729c0,12.604,9.829,22.908,22.239,23.677v0.031
				h143.879V65.58C330.358,64.481,339.826,54.326,339.826,41.955z"/>
			<path style="clip-path:url(#SVGID_00000159453697121824229660000017082368661192870064_);fill:#4C4797;" d="M575.748,348.129
				c0-13.105-10.624-23.729-23.729-23.729c-6.787,0-12.903,2.854-17.228,7.421c-3.359-14.442-16.3-25.205-31.764-25.205
				c-1.214,0-2.411,0.072-3.591,0.201c-7.481-10.733-19.907-17.763-33.982-17.763c-21.992,0-39.969,17.149-41.312,38.802
				c-3.595-2.192-7.818-3.456-12.337-3.456c-13.105,0-23.729,10.624-23.729,23.729c0,12.604,9.829,22.908,22.239,23.677v0.031
				h143.879v-0.083C566.28,370.655,575.748,360.5,575.748,348.129z"/>
			<path style="clip-path:url(#SVGID_00000159453697121824229660000017082368661192870064_);fill:#4C4797;" d="M105.558,317.752
				c0-11.929-9.67-21.599-21.6-21.599c-6.178,0-11.745,2.598-15.682,6.755c-3.057-13.146-14.837-22.944-28.914-22.944
				c-1.105,0-2.195,0.065-3.269,0.183c-6.809-9.77-18.121-16.169-30.933-16.169c-20.018,0-36.383,15.61-37.605,35.32
				c-3.272-1.996-7.117-3.146-11.23-3.146c-11.929,0-21.6,9.67-21.6,21.599c0,11.473,8.947,20.852,20.243,21.553v0.028H85.94v-0.076
				C96.94,338.256,105.558,329.013,105.558,317.752z"/>
		</g>
		<g>
			<g>
				<g>
					<g>
						<path style="fill:#6DC6D9;" d="M316.454,88.632c2.515,0.16,4.857,0.202,7.168,0.487c2.342,0.289,3.086,1.269,3.125,3.672
							c0.029,1.824,0.055,3.65-0.007,5.472c-0.051,1.521,0.598,2.452,1.993,3.014c3.215,1.294,6.411,2.633,9.606,3.975
							c1.243,0.522,2.286,0.375,3.249-0.635c1.336-1.401,2.713-2.767,4.125-4.091c1.683-1.579,3.022-1.872,4.693-0.345
							c3.478,3.179,6.815,6.53,10,10.003c1.499,1.635,1.205,3.071-0.338,4.696c-1.295,1.363-2.611,2.712-3.989,3.989
							c-1.137,1.054-1.242,2.191-0.674,3.547c1.317,3.143,2.605,6.299,3.886,9.458c0.502,1.238,1.342,1.932,2.722,1.928
							c1.938-0.006,3.877-0.01,5.814,0.037c2.378,0.058,3.543,0.837,3.638,3.169c0.191,4.654,0.172,9.327-0.004,13.983
							c-0.082,2.183-1.305,3.037-3.536,3.096c-1.88,0.05-3.764,0.079-5.643,0.016c-1.607-0.054-2.518,0.664-3.086,2.131
							c-1.19,3.075-2.435,6.13-3.731,9.161c-0.609,1.424-0.545,2.59,0.641,3.7c1.373,1.284,2.688,2.633,3.968,4.01
							c1.52,1.635,1.856,2.978,0.411,4.545c-3.307,3.586-6.829,6.984-10.396,10.316c-1.306,1.22-2.882,0.842-4.152-0.384
							c-1.395-1.345-2.802-2.682-4.118-4.102c-1.147-1.238-2.313-1.345-3.824-0.664c-2.902,1.309-5.851,2.518-8.819,3.67
							c-2.05,0.796-2.478,1.28-2.47,3.514c0.007,1.767,0.059,3.534,0.028,5.3c-0.039,2.241-0.911,3.473-3.074,3.548
							c-4.657,0.162-9.327,0.176-13.983,0.007c-2.266-0.082-3.071-1.199-3.154-3.467c-0.069-1.879-0.063-3.761-0.061-5.642
							c0.002-1.704-0.772-2.631-2.431-3.225c-2.884-1.031-5.693-2.291-8.484-3.562c-1.9-0.865-2.769-0.813-4.262,0.663
							c-1.297,1.282-2.548,2.613-3.888,3.847c-1.633,1.503-2.967,1.761-4.56,0.295c-3.47-3.194-6.812-6.542-10.016-10.002
							c-1.455-1.571-1.144-3.106,0.396-4.704c1.305-1.354,2.615-2.706,3.984-3.993c1.124-1.057,1.238-2.194,0.654-3.555
							c-1.344-3.132-2.648-6.281-3.956-9.429c-0.505-1.216-1.32-1.939-2.709-1.933c-1.938,0.009-3.876,0-5.813-0.051
							c-2.297-0.06-3.506-0.812-3.594-3.027c-0.191-4.82-0.114-9.657,0.031-14.481c0.053-1.763,1.311-2.718,3.122-2.732
							c1.995-0.015,3.99-0.003,5.984,0.021c1.648,0.02,2.569-0.783,3.153-2.321c1.128-2.973,2.357-5.911,3.651-8.816
							c0.688-1.545,0.663-2.788-0.655-3.992c-1.387-1.266-2.702-2.618-3.974-4.001c-1.417-1.54-1.713-2.913-0.327-4.429
							c3.255-3.559,6.68-6.977,10.215-10.26c1.423-1.322,2.84-1.072,4.294,0.25c1.474,1.341,2.897,2.749,4.233,4.227
							c1.069,1.183,2.219,1.177,3.536,0.635c3.102-1.276,6.193-2.58,9.315-3.803c1.461-0.573,2.185-1.509,2.149-3.099
							c-0.044-1.937-0.051-3.878,0.016-5.814c0.07-2.024,0.789-3.004,2.786-3.284C311.727,88.834,314.185,88.791,316.454,88.632z
							 M316.673,113.41c-16.798-0.041-30.604,13.481-30.669,30.036c-0.067,17.347,13.331,31.067,30.451,31.18
							c16.806,0.111,30.71-13.679,30.781-30.53C347.308,127.105,333.708,113.451,316.673,113.41z"/>
					</g>
					<g>
						<path style="fill:#E67A27;" d="M393.391,169.51c1.859,0.118,3.589,0.149,5.296,0.36c1.731,0.213,2.281,0.938,2.309,2.713
							c0.022,1.348,0.04,2.697-0.005,4.043c-0.051,1.508,0.83,2.232,2.726,2.564c1.784,0.312,3.439,1.101,4.947,2.104
							c1.334,0.888,2.367,1.004,3.298,0.027c0.988-1.035,2.005-2.044,3.048-3.023c1.244-1.167,2.233-1.383,3.467-0.255
							c2.57,2.349,5.035,4.825,7.388,7.391c1.108,1.208,0.89,2.27-0.25,3.47c-0.957,1.007-1.929,2.003-2.948,2.947
							c-0.992,0.919-0.921,1.924-0.224,3.18c1.08,1.945,1.802,4.058,2.501,6.169c0.357,1.077,0.994,1.688,2.106,1.684
							c1.432-0.004,2.864-0.008,4.296,0.027c1.757,0.043,2.618,0.619,2.688,2.341c0.141,3.439,0.127,6.891-0.003,10.332
							c-0.061,1.613-0.964,2.244-2.613,2.287c-1.389,0.037-2.781,0.059-4.169,0.012c-1.565-0.053-2.237,0.886-2.612,2.777
							c-0.307,1.547-0.919,3.016-1.762,4.349c-1.04,1.645-1.381,2.837-0.189,3.951c1.014,0.948,1.986,1.945,2.932,2.963
							c1.123,1.208,1.371,2.201,0.303,3.359c-2.443,2.65-5.046,5.16-7.681,7.622c-0.965,0.902-2.129,0.622-3.068-0.284
							c-1.03-0.994-2.07-1.982-3.042-3.031c-0.848-0.915-1.709-0.994-2.825-0.49c-2.144,0.967-4.323,1.861-6.516,2.712
							c-1.515,0.588-1.831,0.946-1.825,2.596c0.005,1.305,0.043,2.611,0.02,3.916c-0.029,1.656-0.673,2.566-2.271,2.622
							c-3.427,0.119-6.864,0.13-10.29,0.006c-1.267-0.046-2.309-1.039-2.362-2.306c-0.061-1.474-0.057-2.951-0.055-4.426
							c0.002-1.324-0.63-2.013-1.989-2.448c-1.578-0.505-3.137-1.081-4.611-1.838c-2.531-1.3-3.186-1.649-4.613-0.238
							c-0.958,0.947-1.882,1.931-2.873,2.842c-1.207,1.11-2.193,1.301-3.369,0.218c-2.564-2.36-5.033-4.834-7.401-7.391
							c-1.075-1.161-0.845-2.295,0.293-3.476c0.964-1,1.932-1.999,2.944-2.95c1.058-0.994,0.905-2.085,0.019-3.49
							c-0.999-1.585-1.758-3.309-2.164-5.137c-0.327-1.469-0.942-2.401-2.296-2.394c-1.432,0.007-2.864,0-4.295-0.037
							c-1.697-0.044-2.59-0.6-2.655-2.237c-0.141-3.562-0.084-7.135,0.023-10.7c0.039-1.303,0.969-2.008,2.307-2.018
							c1.443-0.011,2.887-0.002,4.33,0.014c1.066,0.012,2.017-0.648,2.395-1.646c0.84-2.22,1.758-4.413,2.724-6.582
							c0.509-1.141,0.49-2.06-0.484-2.95c-1.025-0.936-1.997-1.934-2.936-2.956c-1.047-1.138-1.266-2.153-0.242-3.272
							c2.405-2.63,4.936-5.155,7.547-7.581c1.052-0.977,2.099-0.792,3.173,0.185c1.089,0.991,2.141,2.032,3.128,3.123
							c1.16,1.283,2.447,0.673,4.064-0.302c1.401-0.845,2.942-1.412,4.538-1.773c1.676-0.379,2.514-1.092,2.481-2.556
							c-0.032-1.431-0.037-2.865,0.012-4.296c0.051-1.495,0.583-2.22,2.058-2.427C389.899,169.659,391.715,169.627,393.391,169.51z
							 M393.553,187.817c-12.412-0.03-22.613,9.961-22.66,22.193c-0.05,12.818,9.85,22.955,22.499,23.038
							c12.418,0.082,22.691-10.107,22.743-22.558C416.189,197.937,406.14,187.848,393.553,187.817z"/>
					</g>
					<path style="fill:#6DC6D9;" d="M299.887,328.602h-97.743c-11.622,0-21.043-9.421-21.043-21.043v-9.919
						c0-11.622,9.421-21.043,21.043-21.043h97.743c11.622,0,21.043,9.421,21.043,21.043v9.919
						C320.93,319.181,311.509,328.602,299.887,328.602z"/>
					<path style="fill:#231F49;" d="M344.529,311.143H157.502c-15.022,0-27.199-12.178-27.199-27.199V169.715
						c0-15.022,12.178-27.199,27.199-27.199h187.027c15.022,0,27.199,12.178,27.199,27.199v114.228
						C371.728,298.965,359.55,311.143,344.529,311.143z"/>
					<path style="fill:#FFFFFF;" d="M140.398,291.785V159.748c0-4.528,3.671-8.199,8.199-8.199h204.835c4.529,0,8.2,3.671,8.2,8.2
						v132.036c0,4.528-3.671,8.199-8.199,8.199H148.597C144.069,299.984,140.398,296.314,140.398,291.785z"/>
					<g>
						<defs>
							<path id="XMLID_13_" d="M145.628,285.761V164.539c0-4.528,3.671-8.199,8.199-8.199h194.376c4.529,0,8.2,3.671,8.2,8.2
								v121.221c0,4.528-3.671,8.199-8.199,8.199H153.827C149.298,293.96,145.628,290.289,145.628,285.761z"/>
						</defs>
						<use xlink:href="#XMLID_13_"  style="overflow:visible;fill:#0098A7;"/>
						<clipPath id="XMLID_00000078735025122075659630000015486128645512544163_">
							<use xlink:href="#XMLID_13_"  style="overflow:visible;"/>
						</clipPath>
						
							<rect x="136.181" y="140.659" style="clip-path:url(#XMLID_00000078735025122075659630000015486128645512544163_);fill:#E67A27;" width="229.911" height="30.085"/>
					</g>
					<path style="fill:#231F49;" d="M338.3,337.885H163.731c-5.231,0-9.471-4.24-9.471-9.471l0,0c0-5.231,4.241-9.471,9.471-9.471
						H338.3c5.231,0,9.471,4.241,9.471,9.471l0,0C347.771,333.645,343.531,337.885,338.3,337.885z"/>
					<g>
						<circle style="fill:#FFFFFF;" cx="157.162" cy="163.899" r="2.735"/>
						<path style="fill:#FFFFFF;" d="M170.138,163.899c0,1.511-1.225,2.735-2.735,2.735c-1.511,0-2.735-1.225-2.735-2.735
							c0-1.511,1.225-2.735,2.735-2.735C168.913,161.164,170.138,162.388,170.138,163.899z"/>
						<circle style="fill:#FFFFFF;" cx="177.643" cy="163.899" r="2.735"/>
					</g>
					<path style="fill:#FFFFFF;" d="M200.033,287h-37.291c-5.908,0-10.697-4.789-10.697-10.697v-89.29
						c0-5.908,4.789-10.697,10.697-10.697h37.291c5.908,0,10.697,4.789,10.697,10.697v89.29C210.729,282.211,205.94,287,200.033,287
						z"/>
					<path style="fill:#6DC6D9;" d="M339.289,287H229.598c-5.908,0-10.697-4.789-10.697-10.697v-89.29
						c0-5.908,4.789-10.697,10.697-10.697h109.691c5.908,0,10.697,4.789,10.697,10.697v89.29
						C349.986,282.211,345.197,287,339.289,287z"/>
					<g>
						<g>
							<path style="fill:#E67A27;" d="M308.945,230.679h-2.207c-2.194,0-3.972-1.779-3.972-3.973v-23.665
								c0-2.194,1.778-3.972,3.972-3.972h2.207c2.194,0,3.972,1.779,3.972,3.972v23.665
								C312.917,228.9,311.139,230.679,308.945,230.679z"/>
							<path style="fill:#E67A27;" d="M323.481,230.679h-2.207c-2.194,0-3.972-1.779-3.972-3.973v-34.055
								c0-2.194,1.779-3.972,3.972-3.972h2.207c2.194,0,3.972,1.779,3.972,3.972v34.055
								C327.453,228.9,325.675,230.679,323.481,230.679z"/>
							<path style="fill:#E67A27;" d="M338.013,230.679h-2.207c-2.194,0-3.973-1.779-3.973-3.973v-41.466
								c0-2.194,1.779-3.973,3.973-3.973h2.207c2.194,0,3.972,1.779,3.972,3.973v41.466
								C341.986,228.9,340.207,230.679,338.013,230.679z"/>
						</g>
						<path style="fill:#412681;" d="M342.564,232.525h-40.378c-1.402,0-2.538-1.136-2.538-2.538l0,0
							c0-1.402,1.136-2.538,2.538-2.538h40.378c1.402,0,2.538,1.136,2.538,2.538l0,0
							C345.102,231.388,343.966,232.525,342.564,232.525z"/>
					</g>
					<g>
						<defs>
							<circle id="XMLID_12_" cx="181.099" cy="257.039" r="18.819"/>
						</defs>
						<use xlink:href="#XMLID_12_"  style="overflow:visible;fill:#E67A27;"/>
						<clipPath id="XMLID_00000045615112160560076600000014560323434305919165_">
							<use xlink:href="#XMLID_12_"  style="overflow:visible;"/>
						</clipPath>
						<path style="clip-path:url(#XMLID_00000045615112160560076600000014560323434305919165_);fill:#412681;" d="M180.45,232.163
							v24.876h24.659C205.109,257.039,207.489,229.351,180.45,232.163z"/>
					</g>
					<path style="fill:#412681;" d="M234.004,236.102h100.585c6.799,0,12.31,5.512,12.31,12.31v21.712
						c0,6.799-5.512,12.31-12.31,12.31H234.004c-6.799,0-12.31-5.512-12.31-12.31v-21.712
						C221.694,241.614,227.205,236.102,234.004,236.102z"/>
					<g>
						<text transform="matrix(1 0 0 1 253.7402 276.9229)" style="fill:#FFFFFF; font-family:'BebasNeueRegular'; font-size:49px;">CMS</text>
					</g>
					<path style="fill:#412681;" d="M281.289,233.283h-49.803c-5.302,0-9.601-4.298-9.601-9.601v-32.55
						c0-5.302,4.298-9.601,9.601-9.601h49.803c5.302,0,9.601,4.298,9.601,9.601v32.55
						C290.889,228.985,286.591,233.283,281.289,233.283z"/>
					<g>
						<path style="fill:#FFFFFF;" d="M137.006,241.975c0-6.735-5.46-12.195-12.195-12.195c-3.488,0-6.632,1.467-8.854,3.814
							c-1.726-7.422-8.377-12.954-16.325-12.954c-0.624,0-1.239,0.037-1.845,0.103c-3.845-5.516-10.231-9.129-17.465-9.129
							c-11.302,0-20.542,8.814-21.232,19.942c-1.848-1.127-4.018-1.776-6.34-1.776c-6.735,0-12.195,5.46-12.195,12.195
							c0,6.478,5.051,11.773,11.43,12.169v0.016h73.946v-0.043C132.14,253.552,137.006,248.333,137.006,241.975z"/>
						<g>
							<path style="fill:#E67A27;" d="M87.746,233.983l-7.371-7.371c-0.475-0.475-1.244-0.475-1.718,0l-7.371,7.371
								c-0.765,0.766-0.223,2.074,0.859,2.074h4.034v12.064c0,0.671,0.544,1.215,1.215,1.215h4.243c0.671,0,1.215-0.544,1.215-1.215
								v-12.064h4.034C87.969,236.058,88.511,234.749,87.746,233.983z"/>
							<path style="fill:#412681;" d="M89.815,241.61l7.371,7.371c0.475,0.475,1.244,0.475,1.718,0l7.371-7.371
								c0.765-0.765,0.223-2.074-0.859-2.074h-4.034v-12.064c0-0.671-0.544-1.215-1.215-1.215h-4.243
								c-0.671,0-1.215,0.544-1.215,1.215v12.064h-4.034C89.592,239.535,89.05,240.844,89.815,241.61z"/>
						</g>
					</g>
					<g>
						<g>
							<defs>
								<path id="XMLID_11_" d="M140.286,337.472h-23.215c-5.908,0-10.697-4.789-10.697-10.697v-39.404
									c0-5.908,4.789-10.697,10.697-10.697h23.215c5.908,0,10.697,4.789,10.697,10.697v39.404
									C150.983,332.683,146.194,337.472,140.286,337.472z"/>
							</defs>
							<use xlink:href="#XMLID_11_"  style="overflow:visible;fill:#6DC6D9;"/>
							<clipPath id="XMLID_00000098221826690668286440000014308838539722639772_">
								<use xlink:href="#XMLID_11_"  style="overflow:visible;"/>
							</clipPath>
							
								<rect x="101.224" y="271.732" style="clip-path:url(#XMLID_00000098221826690668286440000014308838539722639772_);fill:#412681;" width="61.49" height="14.537"/>
						</g>
						<g>
							<path style="fill:#412681;" d="M119.747,297c0.531-0.618,0.854-1.42,0.854-2.299c0-1.951-1.581-3.532-3.532-3.532
								c-1.951,0-3.532,1.582-3.532,3.532c0,0.879,0.323,1.681,0.854,2.299c-1.964,0.983-3.313,3.013-3.313,5.359h11.982
								C123.06,300.013,121.711,297.983,119.747,297z"/>
							<path style="fill:#412681;" d="M119.747,310.469c0.531-0.618,0.854-1.42,0.854-2.299c0-1.951-1.581-3.532-3.532-3.532
								c-1.951,0-3.532,1.581-3.532,3.532c0,0.879,0.323,1.681,0.854,2.299c-1.964,0.983-3.313,3.013-3.313,5.359h11.982
								C123.06,313.482,121.711,311.453,119.747,310.469z"/>
							<path style="fill:#412681;" d="M119.747,323.939c0.531-0.618,0.854-1.42,0.854-2.299c0-1.951-1.581-3.532-3.532-3.532
								c-1.951,0-3.532,1.582-3.532,3.532c0,0.879,0.323,1.681,0.854,2.299c-1.964,0.983-3.313,3.013-3.313,5.359h11.982
								C123.06,326.952,121.711,324.922,119.747,323.939z"/>
						</g>
						<path style="fill:#E67A27;" d="M143.04,302.259h-11.821c-3.078,0-5.574-2.495-5.574-5.574l0,0
							c0-3.078,2.495-5.573,5.574-5.573h11.821c3.078,0,5.574,2.495,5.574,5.573l0,0
							C148.614,299.764,146.118,302.259,143.04,302.259z"/>
						<path style="fill:#E67A27;" d="M143.04,315.924h-11.821c-3.078,0-5.574-2.495-5.574-5.573l0,0
							c0-3.078,2.495-5.574,5.574-5.574h11.821c3.078,0,5.574,2.495,5.574,5.574l0,0
							C148.614,313.429,146.118,315.924,143.04,315.924z"/>
						<path style="fill:#E67A27;" d="M143.04,329.589h-11.821c-3.078,0-5.574-2.495-5.574-5.574l0,0
							c0-3.078,2.495-5.573,5.574-5.573h11.821c3.078,0,5.574,2.495,5.574,5.573l0,0
							C148.614,327.093,146.118,329.589,143.04,329.589z"/>
						<g>
							<path style="fill:#FFFFFF;" d="M112.942,281.492c0,0.991-0.803,1.794-1.794,1.794c-0.991,0-1.794-0.803-1.794-1.794
								s0.803-1.794,1.794-1.794C112.139,279.698,112.942,280.501,112.942,281.492z"/>
							<circle style="fill:#FFFFFF;" cx="117.863" cy="281.492" r="1.794"/>
							<path style="fill:#FFFFFF;" d="M126.372,281.492c0,0.991-0.803,1.794-1.794,1.794c-0.991,0-1.794-0.803-1.794-1.794
								s0.803-1.794,1.794-1.794C125.569,279.698,126.372,280.501,126.372,281.492z"/>
						</g>
					</g>
					<g>
						<path style="fill:#0098A7;" d="M200.461,192.817h-38.289c-2.077,0-3.76-1.683-3.76-3.76l0,0c0-2.077,1.683-3.76,3.76-3.76
							h38.289c2.077,0,3.76,1.683,3.76,3.76l0,0C204.221,191.133,202.538,192.817,200.461,192.817z"/>
						<path style="fill:#0098A7;" d="M200.461,202.327h-38.289c-2.077,0-3.76-1.683-3.76-3.76l0,0c0-2.077,1.683-3.76,3.76-3.76
							h38.289c2.077,0,3.76,1.683,3.76,3.76l0,0C204.221,200.644,202.538,202.327,200.461,202.327z"/>
						<path style="fill:#0098A7;" d="M200.461,211.838h-38.289c-2.077,0-3.76-1.683-3.76-3.76l0,0c0-2.076,1.683-3.76,3.76-3.76
							h38.289c2.077,0,3.76,1.683,3.76,3.76l0,0C204.221,210.154,202.538,211.838,200.461,211.838z"/>
						<path style="fill:#0098A7;" d="M200.461,221.348h-38.289c-2.077,0-3.76-1.683-3.76-3.76l0,0c0-2.077,1.683-3.76,3.76-3.76
							h38.289c2.077,0,3.76,1.683,3.76,3.76l0,0C204.221,219.665,202.538,221.348,200.461,221.348z"/>
						<path style="fill:#0098A7;" d="M200.993,230.327h-38.289c-2.077,0-3.76-1.683-3.76-3.76l0,0c0-2.076,1.683-3.76,3.76-3.76
							h38.289c2.076,0,3.76,1.683,3.76,3.76l0,0C204.753,228.644,203.069,230.327,200.993,230.327z"/>
					</g>
					<g>
						<path style="fill:#FFFFFF;" d="M281.732,194.235h-51.363c-1.824,0-3.303-1.479-3.303-3.303l0,0
							c0-1.824,1.479-3.303,3.303-3.303h51.363c1.824,0,3.303,1.479,3.303,3.303l0,0
							C285.035,192.756,283.556,194.235,281.732,194.235z"/>
						<path style="fill:#FFFFFF;" d="M281.732,202.589h-51.363c-1.824,0-3.303-1.479-3.303-3.303l0,0
							c0-1.824,1.479-3.303,3.303-3.303h51.363c1.824,0,3.303,1.479,3.303,3.303l0,0
							C285.035,201.11,283.556,202.589,281.732,202.589z"/>
						<path style="fill:#FFFFFF;" d="M281.732,210.943h-51.363c-1.824,0-3.303-1.479-3.303-3.303l0,0
							c0-1.824,1.479-3.303,3.303-3.303h51.363c1.824,0,3.303,1.479,3.303,3.303l0,0
							C285.035,209.465,283.556,210.943,281.732,210.943z"/>
						<path style="fill:#FFFFFF;" d="M281.732,219.298h-51.363c-1.824,0-3.303-1.479-3.303-3.303l0,0
							c0-1.824,1.479-3.303,3.303-3.303h51.363c1.824,0,3.303,1.479,3.303,3.303l0,0
							C285.035,217.819,283.556,219.298,281.732,219.298z"/>
						<path style="fill:#FFFFFF;" d="M282.405,227.185h-51.363c-1.824,0-3.303-1.479-3.303-3.303l0,0
							c0-1.824,1.479-3.303,3.303-3.303h51.363c1.824,0,3.303,1.479,3.303,3.303l0,0
							C285.708,225.707,284.229,227.185,282.405,227.185z"/>
					</g>
					<g>
						
							<ellipse transform="matrix(0.788 -0.6156 0.6156 0.788 -106.0628 272.2948)" style="opacity:0.41;fill:#6DC6D9;" cx="342.4" cy="290.174" rx="25.832" ry="25.832"/>
						<path style="fill:#E67A27;" d="M370.505,272.03c-10.021-15.522-30.727-19.981-46.249-9.96
							c-15.522,10.021-19.981,30.727-9.96,46.249c8.966,13.887,26.484,18.917,41.191,12.646c0.101,0.208,0.212,0.414,0.34,0.613
							l24.038,37.234c1.723,2.669,5.284,3.436,7.954,1.713c2.669-1.723,3.436-5.284,1.713-7.954l-24.038-37.234
							c-0.129-0.199-0.271-0.385-0.419-0.563C376.843,303.953,379.47,285.917,370.505,272.03z M356.412,311.876
							c-11.967,7.726-27.988,4.275-35.714-7.691c-7.726-11.967-4.276-27.988,7.691-35.714s27.988-4.275,35.714,7.691
							C371.829,288.13,368.378,304.151,356.412,311.876z"/>
					</g>
					<g>
						<g>
							<g>
								<defs>
									<path id="XMLID_10_" d="M120.588,197.373H91.001c-11.263,0-20.393-9.13-20.393-20.393V117.11
										c0-11.263,9.13-20.393,20.393-20.393h29.587c11.263,0,20.393,9.13,20.393,20.393v59.869
										C140.982,188.242,131.851,197.373,120.588,197.373z"/>
								</defs>
								<use xlink:href="#XMLID_10_"  style="overflow:visible;fill:#E67A27;"/>
								<clipPath id="XMLID_00000028321493049453845260000017677704529646724787_">
									<use xlink:href="#XMLID_10_"  style="overflow:visible;"/>
								</clipPath>
							</g>
							<g>
								<path style="fill:#A64817;" d="M128.313,133.429H85.978c-2.443,0-4.423-1.98-4.423-4.423l0,0
									c0-2.443,1.98-4.423,4.423-4.423h42.334c2.443,0,4.423,1.98,4.423,4.423l0,0
									C132.736,131.448,130.755,133.429,128.313,133.429z"/>
								<path style="fill:#A64817;" d="M128.313,148.499H85.978c-2.443,0-4.423-1.98-4.423-4.423l0,0
									c0-2.443,1.98-4.423,4.423-4.423h42.334c2.443,0,4.423,1.98,4.423,4.423l0,0
									C132.736,146.518,130.755,148.499,128.313,148.499z"/>
								<path style="fill:#A64817;" d="M128.313,163.569H85.978c-2.443,0-4.423-1.98-4.423-4.423l0,0
									c0-2.443,1.98-4.423,4.423-4.423h42.334c2.443,0,4.423,1.98,4.423,4.423l0,0
									C132.736,161.588,130.755,163.569,128.313,163.569z"/>
								<path style="fill:#A64817;" d="M128.313,178.639H85.978c-2.443,0-4.423-1.98-4.423-4.423v0c0-2.443,1.98-4.423,4.423-4.423
									h42.334c2.443,0,4.423,1.98,4.423,4.423v0C132.736,176.658,130.755,178.639,128.313,178.639z"/>
							</g>
						</g>
						<path style="fill:#A64817;" d="M107.365,99.974c-5.996,0-10.874,4.878-10.874,10.875c0,5.996,4.878,10.875,10.874,10.875
							c5.996,0,10.874-4.878,10.874-10.875C118.239,104.852,113.361,99.974,107.365,99.974z M97.381,111.288h4.582
							c0.009,0.77,0.075,1.535,0.203,2.292c0.123,0.731,0.303,1.453,0.536,2.168c-1.33,0.625-2.282,1.373-2.757,1.788
							C98.437,115.865,97.485,113.685,97.381,111.288z M106.874,100.866v5.246c-0.982-0.06-1.961-0.279-2.935-0.657
							c0.912-2.358,2.131-4.022,2.557-4.563C106.621,100.881,106.747,100.872,106.874,100.866z M110.916,105.466
							c-0.2,0.077-0.406,0.15-0.619,0.216c-0.849,0.265-1.697,0.413-2.544,0.442v-5.262c0.205,0.008,0.409,0.021,0.611,0.041
							C108.798,101.456,110.01,103.118,110.916,105.466z M109.609,101.107c1.734,0.399,3.296,1.251,4.557,2.423
							c-0.434,0.373-1.281,1.027-2.439,1.585C111.042,103.346,110.202,101.964,109.609,101.107z M111.425,106.987
							c0.323,1.146,0.511,2.289,0.567,3.421h-4.239v-3.417c1.07-0.03,2.029-0.224,2.843-0.481c0.212-0.067,0.417-0.14,0.617-0.216
							C111.288,106.52,111.358,106.751,111.425,106.987z M111.302,115.51c-1.263-0.512-2.456-0.746-3.549-0.799v-3.423h4.255
							c-0.009,0.729-0.072,1.452-0.194,2.166C111.698,114.147,111.526,114.832,111.302,115.51z M103.036,113.454
							c-0.121-0.715-0.185-1.438-0.194-2.166h4.031v3.418c-1.03,0.039-1.953,0.23-2.741,0.48c-0.213,0.067-0.419,0.14-0.62,0.217
							C103.306,114.76,103.147,114.11,103.036,113.454z M103.646,106.272c1.143,0.437,2.227,0.649,3.228,0.708v3.429h-4.015
							c0.056-1.132,0.244-2.275,0.567-3.421C103.495,106.743,103.568,106.505,103.646,106.272z M103.131,105.103
							c-0.853-0.409-1.7-0.941-2.542-1.594c1.291-1.193,2.896-2.05,4.675-2.432C104.672,101.929,103.822,103.318,103.131,105.103z
							 M102.833,105.927c-0.086,0.256-0.168,0.519-0.244,0.788c-0.351,1.236-0.554,2.47-0.611,3.693h-4.598
							c0.105-2.408,1.065-4.597,2.584-6.271C100.948,104.91,101.908,105.494,102.833,105.927z M103,116.582
							c0.54,1.383,1.288,2.731,2.242,4.033c-1.782-0.387-3.387-1.25-4.677-2.45C100.998,117.793,101.844,117.14,103,116.582z
							 M103.808,116.232c0.201-0.077,0.409-0.151,0.624-0.218c0.815-0.255,1.629-0.4,2.442-0.437v5.253
							c-0.126-0.006-0.251-0.015-0.375-0.026C105.319,119.337,104.42,117.808,103.808,116.232z M107.754,115.579
							c1.089,0.055,2.174,0.305,3.252,0.75c-0.609,1.537-1.493,3.03-2.644,4.464c-0.201,0.02-0.404,0.034-0.608,0.041V115.579z
							 M111.808,116.696c0.782,0.394,1.56,0.892,2.333,1.492c-1.25,1.155-2.795,1.996-4.508,2.395
							C110.549,119.327,111.276,118.028,111.808,116.696z M112.109,115.871c0.253-0.754,0.448-1.518,0.578-2.291
							c0.127-0.757,0.194-1.522,0.202-2.292h4.461c-0.105,2.408-1.065,4.597-2.584,6.271
							C113.857,116.846,112.968,116.292,112.109,115.871z M112.873,110.408c-0.057-1.223-0.26-2.457-0.611-3.693
							c-0.074-0.261-0.154-0.516-0.236-0.765c1.332-0.626,2.285-1.374,2.76-1.79c1.507,1.671,2.46,3.851,2.564,6.248H112.873z"/>
					</g>
					<g>
						<g>
							<defs>
								<path id="SVGID_00000170969972614782861450000004828331496752584623_" d="M358.789,143.919v-29.587
									c0-11.263,9.13-20.393,20.393-20.393h59.869c11.263,0,20.393,9.13,20.393,20.393v29.587c0,11.263-9.13,20.393-20.393,20.393
									h-59.869C367.92,164.312,358.789,155.181,358.789,143.919z"/>
							</defs>
							<use xlink:href="#SVGID_00000170969972614782861450000004828331496752584623_"  style="overflow:visible;fill:#FFFFFF;"/>
							<clipPath id="SVGID_00000127756829271886032850000016353505930027848085_">
								<use xlink:href="#SVGID_00000170969972614782861450000004828331496752584623_"  style="overflow:visible;"/>
							</clipPath>
							
								<rect x="354.012" y="83.646" style="clip-path:url(#SVGID_00000127756829271886032850000016353505930027848085_);fill:#412681;" width="115.327" height="27.857"/>
						</g>
						<g>
							<g>
								<path style="fill:#E67A27;" d="M370.177,138.51V133.8l19.48-8.403v5.093l-13.433,5.666l13.433,5.665v5.093L370.177,138.51z"
									/>
							</g>
							<g>
								<path style="fill:#E67A27;" d="M428.577,146.914v-5.093l13.433-5.665l-13.433-5.666v-5.093l19.48,8.403v4.711
									L428.577,146.914z"/>
							</g>
							<g>
								<path style="fill:#E67A27;" d="M413.999,119.252h4.206l-12.219,30.991h-4.206L413.999,119.252z"/>
							</g>
						</g>
					</g>
					<g>
						<defs>
							<path id="XMLID_8_" d="M159.335,116.619V87.032c0-11.263,9.13-20.393,20.393-20.393h59.869
								c11.263,0,20.393,9.13,20.393,20.393v29.587c0,11.263-9.13,20.393-20.393,20.393h-59.869
								C168.465,137.012,159.335,127.882,159.335,116.619z"/>
						</defs>
						<use xlink:href="#XMLID_8_"  style="overflow:visible;fill:#E67A27;"/>
						<clipPath id="XMLID_00000037671873421361813050000012600877645202007480_">
							<use xlink:href="#XMLID_8_"  style="overflow:visible;"/>
						</clipPath>
						
							<rect x="154.557" y="56.346" style="clip-path:url(#XMLID_00000037671873421361813050000012600877645202007480_);fill:#6DC6D9;" width="115.327" height="27.857"/>
					</g>
					<path style="fill:#412681;" d="M194.859,91.618v36.067c0,2.862,3.058,4.686,5.576,3.325l32.735-17.688
						c2.619-1.415,2.65-5.163,0.054-6.62l-32.735-18.379C197.97,86.908,194.859,88.728,194.859,91.618z"/>
				</g>
				<g style="opacity:0.3;">
					<circle style="fill:none;stroke:#6DC6D9;stroke-width:4;stroke-miterlimit:10;" cx="121.768" cy="70.662" r="5.269"/>
					<circle style="fill:none;stroke:#6DC6D9;stroke-width:4;stroke-miterlimit:10;" cx="407.557" cy="314.799" r="5.269"/>
					<circle style="fill:none;stroke:#6DC6D9;stroke-width:4;stroke-miterlimit:10;" cx="343.058" cy="85.151" r="5.269"/>
					<path style="fill:none;stroke:#6DC6D9;stroke-width:4;stroke-miterlimit:10;" d="M438.539,84.346
						c0,1.64-1.329,2.969-2.969,2.969c-1.64,0-2.969-1.329-2.969-2.969c0-1.64,1.329-2.969,2.969-2.969
						C437.21,81.377,438.539,82.706,438.539,84.346z"/>
					<path style="fill:none;stroke:#6DC6D9;stroke-width:4;stroke-miterlimit:10;" d="M336.927,348.45
						c0,2.91-2.359,5.269-5.269,5.269c-2.91,0-5.269-2.359-5.269-5.269s2.359-5.269,5.269-5.269
						C334.568,343.181,336.927,345.54,336.927,348.45z"/>
					<circle style="fill:none;stroke:#6DC6D9;stroke-width:4;stroke-miterlimit:10;" cx="57.225" cy="189.21" r="3.679"/>
					<path style="fill:none;stroke:#6DC6D9;stroke-width:4;stroke-miterlimit:10;" d="M161.86,359.129
						c0,1.773-1.437,3.211-3.211,3.211c-1.773,0-3.211-1.438-3.211-3.211s1.438-3.211,3.211-3.211
						C160.423,355.918,161.86,357.356,161.86,359.129z"/>
					<path style="fill:none;stroke:#6DC6D9;stroke-width:4;stroke-miterlimit:10;" d="M74.57,98.943c0,2.91-2.359,5.269-5.269,5.269
						c-2.91,0-5.269-2.359-5.269-5.269c0-2.91,2.359-5.269,5.269-5.269C72.211,93.674,74.57,96.033,74.57,98.943z"/>
					
						<ellipse transform="matrix(0.7071 -0.7071 0.7071 0.7071 -170.9472 142.2217)" style="fill:none;stroke:#6DC6D9;stroke-width:4;stroke-miterlimit:10;" cx="86.203" cy="277.462" rx="9.589" ry="9.589"/>
					
						<ellipse transform="matrix(0.2307 -0.973 0.973 0.2307 160.1395 326.7471)" style="fill:none;stroke:#6DC6D9;stroke-width:4;stroke-miterlimit:10;" cx="286.708" cy="62.1" rx="9.589" ry="9.589"/>
					
						<ellipse transform="matrix(0.7071 -0.7071 0.7071 0.7071 -174.4288 286.6118)" style="fill:none;stroke:#6DC6D9;stroke-width:4;stroke-miterlimit:10;" cx="258.757" cy="353.86" rx="9.589" ry="9.589"/>
					
						<ellipse transform="matrix(0.1607 -0.987 0.987 0.1607 61.5565 620.7255)" style="fill:none;stroke:#6DC6D9;stroke-width:4;stroke-miterlimit:10;" cx="395.746" cy="274.169" rx="9.589" ry="9.589"/>
				</g>
			</g>
			<g>
				<path style="fill:#231F49;" d="M324.149,187.513h-18.256c-1.824,0-3.303-1.479-3.303-3.303l0,0c0-1.824,1.479-3.303,3.303-3.303
					h18.256c1.824,0,3.303,1.479,3.303,3.303l0,0C327.452,186.034,325.973,187.513,324.149,187.513z"/>
				<g>
					<path style="fill:#FFFFFF;" d="M309.378,183.99c0,0.849-0.688,1.537-1.537,1.537c-0.849,0-1.537-0.688-1.537-1.537
						c0-0.849,0.688-1.537,1.537-1.537C308.69,182.453,309.378,183.141,309.378,183.99z"/>
					<path style="fill:#FFFFFF;" d="M315.131,183.99c0,0.849-0.688,1.537-1.537,1.537s-1.537-0.688-1.537-1.537
						c0-0.849,0.688-1.537,1.537-1.537S315.131,183.141,315.131,183.99z"/>
					<path style="fill:#FFFFFF;" d="M320.885,183.99c0,0.849-0.688,1.537-1.537,1.537c-0.849,0-1.537-0.688-1.537-1.537
						c0-0.849,0.688-1.537,1.537-1.537C320.197,182.453,320.885,183.141,320.885,183.99z"/>
				</g>
			</g>
		</g>
		<text transform="matrix(1 0 0 1 57.999 425.1554)" style="fill:#FFFFFF; font-family:'BebasNeueRegular'; font-size:40.3116px;">Content Management System</text>
	</g>
</g>
</svg>
