<?xml version="1.0" encoding="utf-8"?>
<!-- Generator: Adobe Illustrator 27.5.0, SVG Export Plug-In . SVG Version: 6.00 Build 0)  -->
<svg version="1.1" id="Ñëîé_1" xmlns="http://www.w3.org/2000/svg" xmlns:xlink="http://www.w3.org/1999/xlink" x="0px" y="0px"
	 viewBox="0 0 2398.684 2200" style="enable-background:new 0 0 2398.684 2200;" xml:space="preserve">
<rect x="0" style="fill:#FFFFFF;" width="2398.684" height="2200"/>
<g>
	<path style="fill:#322A28;" d="M605.667,302.275h21.524v97.683h-21.524V302.275z"/>
	<path style="fill:#322A28;" d="M644.159,332.905h19.868v9.106h0.276c0.642-1.287,1.563-2.574,2.759-3.863
		c1.194-1.288,2.621-2.437,4.277-3.449c1.656-1.012,3.54-1.839,5.657-2.484c2.115-0.642,4.415-0.965,6.898-0.965
		c5.243,0,9.473,0.806,12.693,2.415c3.219,1.61,5.726,3.842,7.52,6.691c1.794,2.852,3.011,6.209,3.656,10.072
		c0.642,3.863,0.966,8.05,0.966,12.555v36.976h-20.695v-32.837c0-1.932-0.069-3.932-0.208-6.003
		c-0.138-2.069-0.552-3.977-1.241-5.725c-0.689-1.746-1.748-3.173-3.173-4.277c-1.427-1.103-3.472-1.655-6.14-1.655
		c-2.669,0-4.828,0.483-6.484,1.448c-1.656,0.966-2.921,2.255-3.794,3.864c-0.876,1.61-1.449,3.427-1.725,5.45
		c-0.276,2.024-0.414,4.139-0.414,6.347v33.389h-20.696V332.905z"/>
	<path style="fill:#322A28;" d="M769.021,349.461h-18.212v22.351c0,1.84,0.09,3.519,0.276,5.036
		c0.183,1.517,0.597,2.828,1.241,3.932c0.642,1.104,1.632,1.955,2.967,2.552c1.332,0.599,3.104,0.897,5.312,0.897
		c1.104,0,2.552-0.114,4.346-0.345c1.794-0.229,3.15-0.759,4.071-1.587v17.247c-2.3,0.827-4.691,1.379-7.175,1.655
		c-2.484,0.276-4.922,0.414-7.312,0.414c-3.496,0-6.715-0.369-9.659-1.104c-2.945-0.736-5.519-1.908-7.726-3.519
		c-2.208-1.608-3.932-3.701-5.174-6.277c-1.241-2.574-1.862-5.702-1.862-9.382v-31.871h-13.245v-16.556h13.245v-19.868h20.695
		v19.868h18.212V349.461z"/>
	<path style="fill:#322A28;" d="M842.973,388.368c-3.311,4.232-7.498,7.498-12.555,9.796c-5.06,2.298-10.303,3.449-15.728,3.449
		c-5.152,0-10.003-0.828-14.556-2.484c-4.553-1.656-8.509-4.023-11.865-7.105c-3.359-3.08-6.002-6.782-7.933-11.107
		c-1.932-4.322-2.897-9.151-2.897-14.487c0-5.333,0.966-10.162,2.897-14.487c1.932-4.322,4.575-8.024,7.933-11.106
		c3.356-3.081,7.312-5.451,11.865-7.105c4.553-1.656,9.404-2.484,14.556-2.484c4.781,0,9.127,0.828,13.038,2.484
		c3.909,1.655,7.22,4.024,9.934,7.105c2.713,3.082,4.805,6.784,6.278,11.106c1.469,4.324,2.207,9.154,2.207,14.487v6.485h-48.014
		c0.828,3.955,2.622,7.106,5.381,9.451c2.76,2.345,6.161,3.518,10.21,3.518c3.402,0,6.278-0.759,8.624-2.276
		c2.345-1.517,4.391-3.471,6.139-5.864L842.973,388.368z M825.451,358.843c0.09-3.494-1.059-6.484-3.449-8.968
		c-2.393-2.483-5.474-3.725-9.244-3.725c-2.3,0-4.324,0.369-6.071,1.104c-1.748,0.738-3.243,1.68-4.484,2.828
		c-1.242,1.152-2.208,2.484-2.897,4.001c-0.69,1.517-1.082,3.104-1.173,4.76H825.451z"/>
	<path style="fill:#322A28;" d="M858.699,332.905h20.696v10.762h0.276c2.207-4.14,4.828-7.244,7.864-9.313
		c3.035-2.069,6.851-3.104,11.451-3.104c1.194,0,2.391,0.047,3.588,0.137c1.194,0.093,2.297,0.276,3.311,0.552v18.903
		c-1.472-0.46-2.921-0.805-4.346-1.036c-1.428-0.228-2.921-0.344-4.484-0.344c-3.956,0-7.084,0.552-9.383,1.655
		c-2.3,1.104-4.07,2.645-5.312,4.622c-1.242,1.979-2.047,4.346-2.414,7.105c-0.369,2.759-0.552,5.795-0.552,9.106v28.008h-20.696
		V332.905z"/>
	<path style="fill:#322A28;" d="M917.335,332.905h19.868v9.106h0.276c0.642-1.287,1.563-2.574,2.759-3.863
		c1.194-1.288,2.621-2.437,4.277-3.449c1.656-1.012,3.54-1.839,5.657-2.484c2.115-0.642,4.415-0.965,6.898-0.965
		c5.243,0,9.473,0.806,12.694,2.415c3.218,1.61,5.725,3.842,7.52,6.691c1.793,2.852,3.011,6.209,3.656,10.072
		c0.642,3.863,0.966,8.05,0.966,12.555v36.976H961.21v-32.837c0-1.932-0.069-3.932-0.208-6.003
		c-0.138-2.069-0.552-3.977-1.241-5.725c-0.689-1.746-1.748-3.173-3.173-4.277c-1.427-1.103-3.472-1.655-6.14-1.655
		c-2.669,0-4.828,0.483-6.484,1.448c-1.656,0.966-2.921,2.255-3.794,3.864c-0.876,1.61-1.449,3.427-1.725,5.45
		c-0.276,2.024-0.414,4.139-0.414,6.347v33.389h-20.696V332.905z"/>
	<path style="fill:#322A28;" d="M1059.995,388.368c-3.311,4.232-7.498,7.498-12.555,9.796c-5.06,2.298-10.303,3.449-15.728,3.449
		c-5.152,0-10.003-0.828-14.556-2.484c-4.553-1.656-8.509-4.023-11.866-7.105c-3.359-3.08-6.001-6.782-7.933-11.107
		c-1.932-4.322-2.897-9.151-2.897-14.487c0-5.333,0.966-10.162,2.897-14.487c1.932-4.322,4.574-8.024,7.933-11.106
		c3.356-3.081,7.312-5.451,11.866-7.105c4.553-1.656,9.404-2.484,14.556-2.484c4.781,0,9.127,0.828,13.038,2.484
		c3.909,1.655,7.22,4.024,9.934,7.105c2.713,3.082,4.805,6.784,6.279,11.106c1.469,4.324,2.207,9.154,2.207,14.487v6.485h-48.014
		c0.828,3.955,2.622,7.106,5.381,9.451c2.76,2.345,6.161,3.518,10.21,3.518c3.402,0,6.277-0.759,8.624-2.276
		c2.345-1.517,4.391-3.471,6.139-5.864L1059.995,388.368z M1042.474,358.843c0.09-3.494-1.059-6.484-3.449-8.968
		c-2.394-2.483-5.474-3.725-9.244-3.725c-2.3,0-4.324,0.369-6.071,1.104c-1.748,0.738-3.243,1.68-4.484,2.828
		c-1.242,1.152-2.208,2.484-2.897,4.001c-0.69,1.517-1.082,3.104-1.173,4.76H1042.474z"/>
	<path style="fill:#322A28;" d="M1121.391,349.461h-18.212v22.351c0,1.84,0.09,3.519,0.276,5.036
		c0.183,1.517,0.597,2.828,1.242,3.932c0.642,1.104,1.632,1.955,2.967,2.552c1.332,0.599,3.104,0.897,5.312,0.897
		c1.104,0,2.552-0.114,4.346-0.345c1.793-0.229,3.15-0.759,4.071-1.587v17.247c-2.3,0.827-4.691,1.379-7.175,1.655
		c-2.484,0.276-4.922,0.414-7.312,0.414c-3.497,0-6.715-0.369-9.659-1.104c-2.944-0.736-5.519-1.908-7.726-3.519
		c-2.208-1.608-3.932-3.701-5.174-6.277c-1.241-2.574-1.862-5.702-1.862-9.382v-31.871h-13.245v-16.556h13.245v-19.868h20.695
		v19.868h18.212V349.461z"/>
	<path style="fill:#322A28;" d="M1170.092,351.116c0-7.816,1.311-14.9,3.932-21.247c2.621-6.347,6.277-11.749,10.969-16.211
		c4.691-4.461,10.255-7.886,16.694-10.279c6.437-2.391,13.474-3.588,21.11-3.588c7.633,0,14.671,1.197,21.109,3.588
		c6.437,2.393,12.003,5.818,16.694,10.279c4.692,4.462,8.348,9.864,10.969,16.211c2.621,6.347,3.932,13.431,3.932,21.247
		c0,7.82-1.311,14.901-3.932,21.248c-2.621,6.347-6.278,11.751-10.969,16.211c-4.691,4.463-10.257,7.888-16.694,10.279
		c-6.439,2.391-13.476,3.588-21.109,3.588c-7.635,0-14.673-1.197-21.11-3.588c-6.439-2.391-12.003-5.816-16.694-10.279
		c-4.692-4.46-8.348-9.864-10.969-16.211C1171.403,366.017,1170.092,358.936,1170.092,351.116z M1192.443,351.116
		c0,4.601,0.712,8.809,2.139,12.625c1.425,3.818,3.471,7.129,6.14,9.934c2.667,2.807,5.864,4.991,9.588,6.553
		c3.725,1.565,7.886,2.345,12.487,2.345c4.598,0,8.761-0.781,12.487-2.345c3.724-1.563,6.92-3.747,9.588-6.553
		c2.667-2.805,4.713-6.116,6.14-9.934c1.425-3.816,2.139-8.024,2.139-12.625c0-4.505-0.714-8.692-2.139-12.555
		c-1.427-3.863-3.473-7.196-6.14-10.003c-2.669-2.804-5.864-4.988-9.588-6.553c-3.725-1.563-7.888-2.345-12.487-2.345
		c-4.6,0-8.761,0.783-12.487,2.345c-3.724,1.565-6.922,3.749-9.588,6.553c-2.669,2.807-4.715,6.14-6.14,10.003
		C1193.155,342.424,1192.443,346.611,1192.443,351.116z"/>
	<path style="fill:#322A28;" d="M1294.677,349.461h-13.659v-16.556h13.659v-11.865c0-3.678,0.321-7.151,0.966-10.417
		c0.642-3.264,1.885-6.139,3.725-8.623c1.839-2.484,4.484-4.437,7.933-5.864c3.449-1.425,7.979-2.139,13.59-2.139
		c2.116,0,4.185,0.093,6.209,0.276c2.022,0.186,4.001,0.507,5.932,0.966l-0.965,17.522c-1.196-0.459-2.3-0.804-3.311-1.035
		c-1.014-0.229-2.163-0.345-3.449-0.345c-3.312,0-5.795,0.714-7.451,2.139c-1.656,1.427-2.484,4.347-2.484,8.761v10.624h15.315
		v16.556h-15.315v50.497h-20.695V349.461z"/>
	<path style="fill:#322A28;" d="M1400.912,321.315h-27.87v-19.04h77.264v19.04h-27.87v78.643h-21.524V321.315z"/>
	<path style="fill:#322A28;" d="M1479.279,295.652v46.358h0.276c0.459-1.287,1.242-2.574,2.345-3.863
		c1.103-1.288,2.436-2.437,4-3.449c1.564-1.012,3.402-1.839,5.52-2.484c2.115-0.642,4.415-0.965,6.898-0.965
		c5.243,0,9.473,0.806,12.694,2.415c3.219,1.61,5.725,3.842,7.52,6.691c1.793,2.852,3.011,6.209,3.656,10.072
		c0.642,3.863,0.966,8.05,0.966,12.555v36.976h-20.695v-32.837c0-1.932-0.069-3.932-0.208-6.003
		c-0.137-2.069-0.552-3.977-1.241-5.725c-0.69-1.746-1.748-3.173-3.173-4.277c-1.427-1.103-3.472-1.655-6.14-1.655
		c-2.668,0-4.828,0.483-6.484,1.448c-1.656,0.966-2.921,2.255-3.794,3.864c-0.876,1.61-1.449,3.427-1.725,5.45
		c-0.276,2.024-0.414,4.139-0.414,6.347v33.389h-20.696V295.652H1479.279z"/>
	<path style="fill:#322A28;" d="M1536.396,311.795c0-3.312,1.173-6.14,3.519-8.485c2.345-2.345,5.173-3.519,8.485-3.519
		c3.311,0,6.14,1.173,8.485,3.519c2.345,2.345,3.518,5.174,3.518,8.485c0,3.311-1.172,6.139-3.518,8.485
		c-2.346,2.345-5.175,3.518-8.485,3.518c-3.312,0-6.14-1.172-8.485-3.518C1537.569,317.934,1536.396,315.106,1536.396,311.795z
		 M1538.052,332.905h20.696v67.053h-20.696V332.905z"/>
	<path style="fill:#322A28;" d="M1573.648,332.905h19.868v9.106h0.276c0.642-1.287,1.563-2.574,2.759-3.863
		c1.194-1.288,2.621-2.437,4.277-3.449c1.656-1.012,3.54-1.839,5.657-2.484c2.115-0.642,4.415-0.965,6.898-0.965
		c5.243,0,9.473,0.806,12.693,2.415c3.219,1.61,5.726,3.842,7.52,6.691c1.793,2.852,3.011,6.209,3.656,10.072
		c0.642,3.863,0.966,8.05,0.966,12.555v36.976h-20.695v-32.837c0-1.932-0.069-3.932-0.208-6.003
		c-0.137-2.069-0.552-3.977-1.241-5.725c-0.69-1.746-1.748-3.173-3.173-4.277c-1.427-1.103-3.472-1.655-6.14-1.655
		c-2.668,0-4.828,0.483-6.484,1.448c-1.656,0.966-2.921,2.255-3.794,3.864c-0.876,1.61-1.449,3.427-1.725,5.45
		c-0.276,2.024-0.414,4.139-0.414,6.347v33.389h-20.696V332.905z"/>
	<path style="fill:#322A28;" d="M1723.205,394.301c0,12.694-3.197,22.328-9.589,28.905c-6.394,6.575-16.121,9.864-29.181,9.864
		c-5.98,0-11.865-0.668-17.66-2c-5.795-1.335-11.13-3.932-16.004-7.796l11.452-17.108c3.219,2.668,6.599,4.782,10.14,6.347
		c3.54,1.564,7.427,2.345,11.659,2.345c6.347,0,11.013-1.54,14.004-4.622c2.988-3.083,4.484-7.015,4.484-11.796v-6.485h-0.276
		c-2.393,3.221-5.359,5.498-8.9,6.829c-3.542,1.333-6.877,2.001-10.003,2.001c-4.967,0-9.474-0.849-13.52-2.552
		c-4.048-1.701-7.52-4.092-10.417-7.175c-2.897-3.081-5.128-6.737-6.691-10.969c-1.566-4.229-2.345-8.875-2.345-13.935
		c0-4.415,0.711-8.737,2.139-12.968c1.424-4.23,3.448-7.956,6.07-11.176c2.622-3.219,5.817-5.816,9.589-7.795
		c3.771-1.977,8.048-2.967,12.831-2.967c2.943,0,5.633,0.323,8.072,0.965c2.436,0.645,4.622,1.472,6.553,2.484
		c1.931,1.013,3.587,2.139,4.967,3.38c1.38,1.242,2.484,2.462,3.311,3.656h0.276v-8.83h19.04V394.301z M1671.053,366.017
		c0,2.208,0.413,4.3,1.241,6.277c0.828,1.979,2.001,3.725,3.519,5.243c1.517,1.517,3.264,2.738,5.243,3.656
		c1.977,0.921,4.161,1.38,6.553,1.38c2.298,0,4.461-0.459,6.485-1.38c2.021-0.918,3.794-2.139,5.311-3.656
		c1.518-1.517,2.691-3.264,3.519-5.243c0.828-1.977,1.241-4.07,1.241-6.277c0-2.208-0.413-4.298-1.241-6.277
		c-0.828-1.977-2-3.725-3.519-5.243c-1.517-1.518-3.29-2.736-5.311-3.656c-2.024-0.918-4.187-1.38-6.485-1.38
		c-2.392,0-4.576,0.462-6.553,1.38c-1.979,0.92-3.725,2.138-5.243,3.656c-1.517,1.517-2.691,3.266-3.519,5.243
		C1671.466,361.719,1671.053,363.809,1671.053,366.017z"/>
	<path style="fill:#322A28;" d="M1777.703,352.634c-3.035-3.771-7.036-5.657-12.003-5.657c-1.748,0-3.449,0.414-5.105,1.241
		c-1.656,0.828-2.483,2.255-2.483,4.277c0,1.656,0.849,2.876,2.552,3.656c1.701,0.783,3.863,1.473,6.484,2.069
		c2.621,0.6,5.426,1.242,8.416,1.932c2.988,0.691,5.795,1.772,8.416,3.243c2.621,1.472,4.782,3.473,6.485,6.001
		c1.7,2.531,2.552,5.911,2.552,10.141c0,4.324-0.944,7.887-2.828,10.692c-1.887,2.807-4.301,5.059-7.244,6.76
		c-2.944,1.703-6.256,2.897-9.934,3.588c-3.68,0.689-7.312,1.035-10.9,1.035c-4.691,0-9.429-0.668-14.211-2.001
		c-4.783-1.332-8.83-3.701-12.141-7.105l12.556-13.935c1.931,2.393,4.07,4.208,6.415,5.451c2.345,1.241,5.081,1.862,8.209,1.862
		c2.391,0,4.553-0.344,6.485-1.035c1.931-0.689,2.897-1.953,2.897-3.794c0-1.746-0.852-3.057-2.553-3.932
		c-1.703-0.873-3.863-1.609-6.484-2.208c-2.621-0.597-5.428-1.241-8.416-1.932c-2.991-0.69-5.795-1.724-8.416-3.104
		c-2.621-1.38-4.784-3.333-6.485-5.864c-1.703-2.528-2.552-5.908-2.552-10.14c0-3.953,0.804-7.357,2.415-10.21
		c1.608-2.85,3.725-5.196,6.347-7.037c2.621-1.839,5.633-3.194,9.037-4.07c3.401-0.873,6.851-1.311,10.347-1.311
		c4.415,0,8.876,0.644,13.383,1.932c4.506,1.289,8.324,3.587,11.452,6.898L1777.703,352.634z"/>
</g>
<g>
	<path style="fill:#E5F0F8;" d="M1796.469,2011.655c0,0,558.285-1563.083-466.228-1457.278
		c-438.805,45.317-356.889,320.242-550.69,577.477c-125.62,166.737-367.224,30.336-457.763,176.036s15.859,561.145,53.182,703.766
		H1796.469z"/>
	<g>
		<path style="fill:#40A87B;" d="M1970.441,2013.037c0,0,29.313-116.927,102.382-153.012
			c73.069-36.086,151.056,13.318,131.253,65.268c-17.076,44.796-87.292-10.285-141.923,11.376
			c-54.632,21.66-63.243,76.369-63.243,76.369H1970.441z"/>
		<path style="fill:none;stroke:#6ADB6A;stroke-width:3.2925;stroke-miterlimit:10;" d="M2189.951,1894.139
			c0,0-78.422-44.692-136.606-3.373c-58.184,41.319-76.597,122.271-76.597,122.271"/>
		
			<line style="fill:none;stroke:#6ADB6A;stroke-width:3.2925;stroke-miterlimit:10;" x1="2177.302" y1="1873.237" x2="2159.057" y2="1881.192"/>
		
			<line style="fill:none;stroke:#6ADB6A;stroke-width:3.2925;stroke-miterlimit:10;" x1="2150.951" y1="1856.193" x2="2114.609" y2="1873.237"/>
		
			<line style="fill:none;stroke:#6ADB6A;stroke-width:3.2925;stroke-miterlimit:10;" x1="2096.351" y1="1856.193" x2="2077.444" y2="1878.527"/>
		
			<line style="fill:none;stroke:#6ADB6A;stroke-width:3.2925;stroke-miterlimit:10;" x1="2060.513" y1="1871.161" x2="2052.013" y2="1891.728"/>
		
			<line style="fill:none;stroke:#6ADB6A;stroke-width:3.2925;stroke-miterlimit:10;" x1="2168.179" y1="1922.599" x2="2140.17" y2="1876.26"/>
		
			<line style="fill:none;stroke:#6ADB6A;stroke-width:3.2925;stroke-miterlimit:10;" x1="2118.697" y1="1915.958" x2="2093.007" y2="1874.701"/>
		
			<line style="fill:none;stroke:#6ADB6A;stroke-width:3.2925;stroke-miterlimit:10;" x1="2075.059" y1="1909.634" x2="2036.438" y2="1904.834"/>
		
			<line style="fill:none;stroke:#6ADB6A;stroke-width:3.2925;stroke-miterlimit:10;" x1="2030.097" y1="1933.034" x2="2007.959" y2="1940.302"/>
	</g>
	<g>
		<path style="fill:#6ADB6A;" d="M1937.663,2009.355c0,0-20.684-391.933,166.517-341.426
			c187.201,50.506-146.027,261.74-145.744,341.426H1937.663z"/>
		<path style="fill:none;stroke:#40A87B;stroke-width:3.2925;stroke-miterlimit:10;" d="M1945.228,2009.355
			c0,0,6.536-204.772,139.979-306.025"/>
		
			<line style="fill:none;stroke:#40A87B;stroke-width:3.2925;stroke-miterlimit:10;" x1="2026.679" y1="1762.706" x2="2030.013" y2="1692.094"/>
		
			<line style="fill:none;stroke:#40A87B;stroke-width:3.2925;stroke-miterlimit:10;" x1="2131.375" y1="1733.447" x2="2041.179" y2="1745.204"/>
		
			<line style="fill:none;stroke:#40A87B;stroke-width:3.2925;stroke-miterlimit:10;" x1="2096.298" y1="1793.713" x2="2000.932" y2="1804.824"/>
		
			<line style="fill:none;stroke:#40A87B;stroke-width:3.2925;stroke-miterlimit:10;" x1="2048.615" y1="1853.434" x2="1974.956" y2="1863.844"/>
		
			<line style="fill:none;stroke:#40A87B;stroke-width:3.2925;stroke-miterlimit:10;" x1="1967.89" y1="1797.632" x2="1984.773" y2="1838.65"/>
		
			<line style="fill:none;stroke:#40A87B;stroke-width:3.2925;stroke-miterlimit:10;" x1="1995.632" y1="1731.06" x2="2010.026" y2="1788.809"/>
		
			<line style="fill:none;stroke:#40A87B;stroke-width:3.2925;stroke-miterlimit:10;" x1="1952.129" y1="1866.109" x2="1965.58" y2="1892.918"/>
		
			<line style="fill:none;stroke:#40A87B;stroke-width:3.2925;stroke-miterlimit:10;" x1="2010.026" y1="1908.798" x2="1957.244" y2="1925.439"/>
	</g>
	<g>
		<path style="fill:#40A87B;" d="M443.52,2016.215c0,0-26.276-104.812-91.774-137.159s-135.405,11.938-117.654,58.506
			c15.307,40.154,78.248-9.219,127.219,10.197c48.971,19.416,56.691,68.457,56.691,68.457H443.52z"/>
		<path style="fill:none;stroke:#6ADB6A;stroke-width:2.9514;stroke-miterlimit:10;" d="M246.753,1909.636
			c0,0,70.297-40.062,122.453-3.023c52.156,37.038,68.661,109.603,68.661,109.603"/>
		
			<line style="fill:none;stroke:#6ADB6A;stroke-width:2.9514;stroke-miterlimit:10;" x1="258.091" y1="1890.9" x2="274.446" y2="1898.03"/>
		
			<line style="fill:none;stroke:#6ADB6A;stroke-width:2.9514;stroke-miterlimit:10;" x1="281.712" y1="1875.621" x2="314.288" y2="1890.9"/>
		
			<line style="fill:none;stroke:#6ADB6A;stroke-width:2.9514;stroke-miterlimit:10;" x1="330.655" y1="1875.621" x2="347.603" y2="1895.641"/>
		
			<line style="fill:none;stroke:#6ADB6A;stroke-width:2.9514;stroke-miterlimit:10;" x1="362.78" y1="1889.038" x2="370.399" y2="1907.475"/>
		
			<line style="fill:none;stroke:#6ADB6A;stroke-width:2.9514;stroke-miterlimit:10;" x1="266.268" y1="1935.147" x2="291.376" y2="1893.61"/>
		
			<line style="fill:none;stroke:#6ADB6A;stroke-width:2.9514;stroke-miterlimit:10;" x1="310.625" y1="1929.194" x2="333.652" y2="1892.212"/>
		
			<line style="fill:none;stroke:#6ADB6A;stroke-width:2.9514;stroke-miterlimit:10;" x1="349.741" y1="1923.525" x2="384.361" y2="1919.223"/>
		
			<line style="fill:none;stroke:#6ADB6A;stroke-width:2.9514;stroke-miterlimit:10;" x1="390.045" y1="1944.501" x2="409.888" y2="1951.016"/>
	</g>
	<g>
		<path style="fill:#6ADB6A;" d="M472.902,2012.915c0,0,18.541-351.326-149.265-306.052s130.898,234.622,130.643,306.052H472.902z"
			/>
		<path style="fill:none;stroke:#40A87B;stroke-width:2.9514;stroke-miterlimit:10;" d="M466.121,2012.915
			c0,0-5.859-183.556-125.476-274.318"/>
		
			<line style="fill:none;stroke:#40A87B;stroke-width:2.9514;stroke-miterlimit:10;" x1="393.108" y1="1791.82" x2="390.12" y2="1728.524"/>
		
			<line style="fill:none;stroke:#40A87B;stroke-width:2.9514;stroke-miterlimit:10;" x1="299.26" y1="1765.593" x2="380.111" y2="1776.131"/>
		
			<line style="fill:none;stroke:#40A87B;stroke-width:2.9514;stroke-miterlimit:10;" x1="330.702" y1="1819.614" x2="416.188" y2="1829.574"/>
		
			<line style="fill:none;stroke:#40A87B;stroke-width:2.9514;stroke-miterlimit:10;" x1="373.445" y1="1873.149" x2="439.472" y2="1882.48"/>
		
			<line style="fill:none;stroke:#40A87B;stroke-width:2.9514;stroke-miterlimit:10;" x1="445.806" y1="1823.128" x2="430.673" y2="1859.896"/>
		
			<line style="fill:none;stroke:#40A87B;stroke-width:2.9514;stroke-miterlimit:10;" x1="420.939" y1="1763.453" x2="408.036" y2="1815.219"/>
		
			<line style="fill:none;stroke:#40A87B;stroke-width:2.9514;stroke-miterlimit:10;" x1="459.934" y1="1884.51" x2="447.877" y2="1908.542"/>
		
			<line style="fill:none;stroke:#40A87B;stroke-width:2.9514;stroke-miterlimit:10;" x1="408.036" y1="1922.776" x2="455.35" y2="1937.694"/>
	</g>
	<path style="fill:#0775EF;" d="M2040.299,2043.996H338.435c-9.616,0-17.41-7.795-17.41-17.411v-3.715
		c0-9.615,7.795-17.41,17.41-17.41h1701.864c9.615,0,17.41,7.795,17.41,17.41v3.715
		C2057.709,2036.201,2049.914,2043.996,2040.299,2043.996z"/>
	<path style="fill:#FFFFFF;" d="M1703.415,670.424c-9.007-12.868-24.273-20.993-41.307-20.018c-0.516,0.029-1.043,0.069-1.559,0.109
		c-23.218,2.079-41.607,21.276-42.713,44.563c-0.424,9.123,1.738,17.691,5.798,25.036c1.958,3.534,4.342,6.781,7.097,9.678l0,0.011
		c2.176,2.271,4.564,4.334,7.142,6.136c6.265,4.38,10.195,11.298,11.099,18.821l-2.175,0.032c-0.624,0.009-1.201,0.276-1.604,0.691
		c-0.074,0.076-0.138,0.164-0.212,0.251c-0.274,0.381-0.439,0.857-0.432,1.373c0.019,1.259,1.056,2.277,2.316,2.258
		c-0.624,0.009-1.202,0.276-1.604,0.691c-0.042,0.044-0.074,0.087-0.117,0.131c-0.338,0.414-0.535,0.934-0.527,1.493
		c0.019,1.259,1.056,2.277,2.316,2.258c-0.624,0.009-1.202,0.276-1.604,0.702c-0.064,0.065-0.127,0.142-0.19,0.218
		c-0.285,0.392-0.46,0.889-0.453,1.406c0.019,1.248,1.056,2.266,2.315,2.247c-0.624,0.009-1.201,0.276-1.604,0.702
		c-0.032,0.033-0.053,0.055-0.074,0.087c-0.36,0.404-0.578,0.945-0.569,1.537c0.019,1.259,1.056,2.266,2.316,2.247l2.357-0.035
		c0.03,0.561,0.078,1.117,0.165,1.666c0.313,1.902,0.979,3.681,1.92,5.278c0,0,0,0,0,0c0.177,0.302,0.365,0.596,0.562,0.884
		c0.098,0.143,0.203,0.281,0.306,0.421c0.137,0.187,0.277,0.372,0.423,0.553c0.107,0.132,0.214,0.263,0.325,0.391
		c0.176,0.204,0.358,0.402,0.545,0.596c0.087,0.091,0.17,0.185,0.258,0.273c0.27,0.268,0.551,0.525,0.84,0.773
		c0.101,0.086,0.205,0.167,0.308,0.251c0.214,0.174,0.433,0.344,0.657,0.507c0.114,0.083,0.228,0.165,0.344,0.245
		c0.265,0.182,0.536,0.355,0.813,0.521c0.068,0.041,0.134,0.086,0.203,0.126c0.342,0.197,0.693,0.379,1.05,0.55
		c0.111,0.053,0.224,0.101,0.336,0.152c0.268,0.12,0.54,0.234,0.816,0.339c0.122,0.046,0.243,0.093,0.366,0.137
		c0.346,0.122,0.697,0.233,1.054,0.331c0.041,0.011,0.08,0.025,0.121,0.036c0.396,0.105,0.8,0.189,1.208,0.262
		c0.12,0.021,0.24,0.038,0.36,0.056c0.309,0.048,0.62,0.086,0.934,0.115c0.125,0.012,0.249,0.024,0.375,0.033
		c0.425,0.029,0.853,0.046,1.287,0.04l2.572-0.038c4.251-0.063,8.078-1.842,10.813-4.671c2.247-2.305,3.763-5.309,4.219-8.652
		c0.035-0.288,0.061-0.579,0.079-0.871c0.019-0.261,0.029-0.524,0.035-0.787c0-0.004,0-0.008,0-0.011l2.141-0.032
		c0.624-0.009,1.202-0.276,1.604-0.691c0.414-0.426,0.663-0.989,0.654-1.624c-0.009-0.592-0.243-1.127-0.625-1.519
		c-0.416-0.467-1.034-0.749-1.701-0.739c0.624-0.009,1.201-0.276,1.604-0.691c0.414-0.426,0.663-1,0.654-1.624
		c-0.008-0.516-0.198-1.009-0.505-1.392c-0.428-0.532-1.089-0.877-1.821-0.866c0.624-0.009,1.202-0.276,1.604-0.702
		c0.414-0.415,0.663-1,0.654-1.624c-0.008-0.56-0.221-1.073-0.582-1.477c-0.427-0.478-1.056-0.781-1.745-0.77
		c0.624-0.009,1.202-0.276,1.604-0.702c0.414-0.415,0.664-0.989,0.654-1.624c-0.008-0.517-0.187-0.987-0.483-1.36
		c-0.428-0.553-1.101-0.898-1.843-0.887l-2.164,0.032c0.682-7.547,4.411-14.58,10.532-19.155
		c11.688-8.721,19.175-22.728,18.941-38.428C1711.755,686.908,1708.639,677.87,1703.415,670.424z"/>
	<g>
		<path style="fill:#FFFFFF;" d="M409.453,1402.443c-3.804-2.666-7.983-4.616-12.337-5.852c-0.776,4.693-4.974,8.151-9.834,7.903
			c-4.86-0.248-8.673-4.103-8.967-8.851c-4.446,0.776-8.801,2.29-12.857,4.554c2.763,3.871,2.254,9.277-1.363,12.543
			c-3.617,3.266-9.047,3.222-12.617,0.079c-2.665,3.804-4.616,7.983-5.84,12.326c4.693,0.776,8.14,4.962,7.892,9.822
			c-0.248,4.86-4.115,8.684-8.863,8.978c0.787,4.458,2.301,8.814,4.566,12.869c3.86-2.775,9.279-2.277,12.555,1.352
			c3.266,3.617,3.221,9.07,0.066,12.628c3.804,2.665,7.983,4.615,12.326,5.84c0.776-4.693,4.974-8.151,9.834-7.903
			c4.86,0.248,8.673,4.103,8.967,8.851c4.446-0.775,8.801-2.29,12.857-4.554c-2.763-3.871-2.254-9.278,1.363-12.543
			c3.617-3.266,9.047-3.222,12.617-0.079c2.665-3.804,4.616-7.983,5.84-12.326c-4.693-0.776-8.14-4.962-7.892-9.822
			c0.248-4.86,4.115-8.684,8.863-8.978c-0.776-4.446-2.29-8.801-4.554-12.857c-3.884,2.774-9.29,2.265-12.556-1.352
			C406.242,1411.442,406.286,1406.012,409.453,1402.443z M400.598,1423.125c7.447,8.249,6.809,20.98-1.452,28.439
			c-8.261,7.458-20.991,6.797-28.439-1.452c-7.458-8.261-6.82-20.993,1.441-28.451
			C380.409,1414.203,393.14,1414.865,400.598,1423.125z"/>
		<path style="fill:#FFFFFF;" d="M367.741,1528.333c-5.456,11.016-18.813,15.537-29.845,10.073
			c-11.032-5.464-15.529-18.829-10.073-29.845c5.465-11.032,18.821-15.553,29.853-10.089
			C368.709,1503.936,373.206,1517.301,367.741,1528.333z M392.617,1529.03c1.195-4.997,1.502-10.089,1.003-15.071
			c-5.143,1.111-10.408-1.802-12.129-6.902c-1.721-5.1,0.693-10.591,5.458-12.824c-2.606-4.258-5.935-8.123-9.914-11.374
			c-2.858,4.417-8.627,6.092-13.457,3.699c-4.831-2.393-6.993-7.996-5.212-12.947c-4.997-1.195-10.089-1.502-15.055-0.994
			c1.111,5.143-1.794,10.391-6.894,12.112c-5.1,1.721-10.607-0.702-12.84-5.466c-4.266,2.622-8.13,5.952-11.382,9.93
			c4.425,2.842,6.116,8.618,3.716,13.465c-2.393,4.831-8.021,7.002-12.963,5.204c-1.195,4.997-1.501,10.089-0.994,15.055
			c5.143-1.111,10.407,1.802,12.129,6.902c1.721,5.1-0.693,10.591-5.458,12.824c2.606,4.258,5.935,8.122,9.914,11.373
			c2.859-4.417,8.627-6.092,13.457-3.699c4.831,2.393,6.994,7.996,5.212,12.947c4.997,1.195,10.089,1.502,15.055,0.994
			c-1.111-5.143,1.794-10.391,6.894-12.112c5.1-1.721,10.607,0.701,12.84,5.466c4.258-2.606,8.122-5.935,11.373-9.914
			c-4.433-2.867-6.108-8.635-3.716-13.465C382.055,1529.387,387.659,1527.224,392.617,1529.03z"/>
	</g>
	<path style="fill:#E5F0F8;" d="M244.65,1062.219c9.766,23.029,34.72,34.792,58.27,29.033l36.252,85.485l14.814-6.282
		l-36.247-85.474c20.565-12.895,29.413-39.014,19.63-62.082c-10.85-25.585-40.4-37.629-65.985-26.779
		C245.798,1006.971,233.8,1036.634,244.65,1062.219z M327.293,1027.172c8.45,19.925-0.939,43.141-20.864,51.591
		c-20.038,8.498-43.141-0.94-51.59-20.865c-8.497-20.037,0.826-43.092,20.864-51.589
		C295.628,997.859,318.796,1007.135,327.293,1027.172z"/>
	<g>
		<g>
			<path style="fill:#E5F0F8;" d="M377.621,789.675c-13.179-13.177-30.684-20.435-49.294-20.435
				c-18.609,0-36.115,7.258-49.292,20.435l-7.079-7.079c15.068-15.07,35.088-23.369,56.372-23.369
				c21.284,0,41.303,8.299,56.373,23.369L377.621,789.675z"/>
		</g>
		<g>
			<path style="fill:#E5F0F8;" d="M345.405,821.861c-9.417-9.414-24.738-9.414-34.154,0l-7.079-7.079
				c13.319-13.32,34.994-13.319,48.313,0L345.405,821.861z"/>
		</g>
		<g>
			<path style="fill:#E5F0F8;" d="M418.57,748.519c-49.76-49.755-130.723-49.758-180.484,0l-7.079-7.08
				c53.663-53.663,140.98-53.663,194.643,0L418.57,748.519z"/>
		</g>
		<g>
			<path style="fill:#E5F0F8;" d="M458.091,709.08c-71.553-71.55-187.974-71.55-259.526,0L191.485,702
				c36.581-36.582,85.179-56.727,136.842-56.727c51.664,0,100.263,20.146,136.843,56.727L458.091,709.08z"/>
		</g>
	</g>
	<g>
		<path style="fill:#DF941E;" d="M1708.255,1184.83c-1.008-39.667-5.543-78.469-13.39-116.048c-0.432-2.376-0.936-4.679-1.44-6.983
			c-61.551-280.4-305.165-492.555-600.54-506.161c-10.078-0.504-20.229-0.72-30.452-0.72c-49.457,0-97.69,5.543-143.98,16.126
			c-37.219,8.495-73.214,20.157-107.625,34.699c-15.982,6.767-31.603,14.182-46.866,22.101
			c-104.385,54.496-191.997,136.637-253.116,236.775c-35.491,58.096-62.055,122.167-77.821,190.413
			c-0.864,3.816-1.728,7.631-2.52,11.447c-9.143,43.41-13.966,88.332-13.966,134.405c0,87.18,17.277,170.328,48.593,246.277
			c96.754,234.543,327.77,399.688,597.3,399.688c71.486,0,140.308-11.591,204.595-33.116c16.486-5.471,32.612-11.59,48.45-18.357
			c173.208-73.79,307.612-221.081,363.981-402.639c18.789-60.615,28.94-125.047,28.94-191.853
			C1708.398,1195.485,1708.398,1190.157,1708.255,1184.83z"/>
		<path style="fill:#BBDBF3;" d="M1708.398,1200.884c0,66.807-10.15,131.238-28.94,191.853
			c-24.692,79.405-64.287,152.33-115.472,215.321c-0.072,0.072-0.072,0.072-0.072,0.072
			c-65.871,80.989-151.035,145.779-248.437,187.246c-15.838,6.767-31.964,12.886-48.45,18.357
			c-64.287,21.525-133.109,33.116-204.595,33.116c-269.53,0-500.545-165.145-597.3-399.688
			c-31.316-75.949-48.593-159.098-48.593-246.277c0-46.073,4.823-90.995,13.966-134.405c0.792-3.816,1.656-7.631,2.52-11.447
			c15.766-68.246,42.33-132.317,77.821-190.413c61.119-100.138,148.731-182.278,253.116-236.775
			c4.752-2.448,9.575-4.895,14.398-7.199c10.655-5.256,21.453-10.222,32.468-14.902c34.411-14.542,70.406-26.204,107.625-34.699
			c46.289-10.582,94.523-16.126,143.98-16.126c10.223,0,20.373,0.216,30.452,0.72c295.375,13.606,538.989,225.761,600.54,506.161
			c0.504,2.304,1.007,4.608,1.44,6.983c7.847,37.578,12.382,76.381,13.39,116.048
			C1708.398,1190.157,1708.398,1195.485,1708.398,1200.884z"/>
		<path style="fill:#E5F0F8;" d="M1708.398,1200.884c0,66.807-10.15,131.238-28.94,191.853
			c-24.692,79.405-64.287,152.33-115.472,215.321c-0.072,0.072-0.072,0.072-0.072,0.072c-10.223,5.039-20.589,9.791-31.1,14.254
			c-15.838,6.767-31.964,12.886-48.521,18.358c-64.287,21.525-133.11,33.115-204.595,33.115
			c-136.061,0-262.259-42.114-366.357-113.888c-18.573-12.814-36.355-26.564-53.416-41.25
			c-40.53-34.627-76.669-74.222-107.553-117.847c-27.788-39.235-51.329-81.709-69.902-126.702
			c-4.751-11.518-9.143-23.181-13.246-34.987c-7.775-22.461-14.326-45.426-19.653-68.822
			c-10.294-45.858-15.694-93.515-15.694-142.468c0-46.074,4.823-90.995,13.966-134.405c0.792-3.815,1.656-7.631,2.447-11.446
			c15.838-68.246,42.402-132.317,77.821-190.413c2.664-4.319,5.399-8.639,8.135-12.958c0-0.072,0-0.072,0-0.072
			c12.958-20.157,27.068-39.45,42.114-57.952c10.655-5.256,21.453-10.222,32.468-14.902c34.411-14.542,70.406-26.204,107.625-34.699
			c46.289-10.582,94.523-16.126,143.98-16.126c10.223,0,20.373,0.216,30.452,0.72c295.375,13.606,538.989,225.761,600.54,506.161
			c0.504,2.304,1.007,4.608,1.44,6.983c7.847,37.578,12.382,76.381,13.39,116.048
			C1708.398,1190.157,1708.398,1195.485,1708.398,1200.884z"/>
		<path style="fill:#BBDBF3;" d="M1708.433,1200.874c0,66.824-10.149,131.281-28.993,191.89c-5.559-8.581-6.015-21.895-6.728-26.77
			c-0.998-7.042-11.061,11.061-12.572,5.36c-1.511-5.702,5.531-33.041-0.513-35.55c-6.015-2.509-9.037,4.02-14.568,6.528
			c-5.531,2.537-5.046,14.083-11.09,15.109c-6.015,0.998-13.57,15.081-17.59,22.123c-4.02,7.042-14.083,10.577-20.127,13.085
			s-11.061,13.085-13.085,19.614c-2.024,6.557-9.066,9.066-16.107,7.555c-7.042-1.511,0.513-34.21,0.513-40.739
			c0-6.557-0.998-11.09-6.528-17.105c-5.559-6.044-5.559-28.195-7.042-32.215c-1.511-4.02-4.533-7.555-7.07-11.574
			c-2.509-4.02,4.533-9.55,4.048-16.079c-0.513-6.557,0.484-12.088,7.526-17.105c7.042-5.046,3.535-8.068,4.533-13.085
			c0.998-5.046,9.066-7.042,11.574-9.579c2.509-2.509-0.513-6.015,6.529-8.039c7.07-1.996,15.622-19.101,14.596-24.147
			c-0.998-5.017,4.02-11.061,5.531-11.061c1.511,0,4.048-3.022,3.535-6.044c-0.513-3.022-1.511-6.044,2.509-10.063
			c4.02-4.02,9.55-12.572,8.039-17.618c-1.483-5.018,0.513-11.061,2.024-18.103c1.511-7.042,2.509-7.555,6.044-6.528
			c3.506,0.998,8.553,9.037,12.515,9.037c3.991,0,4.59-2.993,4.077-11.061c-0.485-8.039-4.533-13.57-4.02-18.958
			c0.513-5.36,8.039-7.184,9.55-9.722c1.511-2.509,2.024-9.55,5.046-8.552c3.022,1.026,7.042,0,13.085,0.513
			c6.015,0.513-3.022,24.146,0,29.164c2.993,5.046,21.609,15.109,21.609,15.109s1.511-26.171-0.998-36.719
			c-2.509-10.577-4.02-40.254-2.509-34.723c1.511,5.531,4.02,17.105,10.064,27.169c6.044,10.063,5.531,21.638,7.555,33.697
			c1.796,10.862,7.669,26.171,8.838,29.164C1708.376,1190.184,1708.433,1195.515,1708.433,1200.874z"/>
		<path style="fill:#93C3E6;" d="M813.277,1739.8c-13.39,2.664-51.689-10.078-72.422-26.204
			c-20.805-16.054-102.658-78.469-114.752-84.516c-12.022-6.047-22.821-48.305-34.843-68.39
			c-12.094-20.157-32.899-42.978-43.626-52.337c-10.726-9.359-27.5-30.812-32.179-41.61c-4.752-10.654-19.437-24.836-25.485-27.5
			c-6.047-2.735-5.399-28.148-16.126-30.812c-6.407-1.584-8.207,20.517-8.711,38.731c-31.316-75.949-48.593-159.098-48.593-246.277
			c0-46.073,4.823-90.995,13.966-134.405c6.263-7.127,14.542-11.59,34.483-14.902c19.941-3.383,3.527,12.022,0,20.805
			c-3.527,8.711-3.168,15.406,0,25.484c3.24,10.007,25.628,13.39,37.723,16.774c12.094,3.312-2.016-14.11,0-26.852
			c2.016-12.742,24.837-4.031,30.812-1.368c6.047,2.736,22.172,0,28.868-0.648c6.695-0.648,16.126-6.047,29.516-8.063
			c13.39-2.016,8.063,7.415,4.031,18.142c-4.031,10.726-4.68,14.038-3.384,25.484c1.368,11.375,22.821,42.258,26.853,45.57
			c4.031,3.383,8.063,8.063,10.727,18.789c2.736,10.726,5.399,26.204,10.726,25.484c5.399-0.648,6.695,10.798,20.157,22.173
			c3.167,2.664,5.831,4.535,8.207,5.831c4.104,11.806,8.495,23.469,13.246,34.987c18.573,44.994,42.114,87.468,69.902,126.702
			c-1.728,2.807-3.383,5.327-4.823,7.487c-8.063,11.951-9.431,44.346-4.68,51.689c4.68,7.415,9.359,13.39,17.422,26.132
			c8.063,12.814,12.094,7.415,20.085,12.094c8.063,4.752,18.142,25.485,26.852,36.283c8.711,10.726,10.079,22.821-2.016,28.148
			c-12.094,5.327-11.375,27.5-14.038,36.859c-2.736,9.431,14.686,10.079,18.789,19.437c3.959,9.431,13.39,9.431,14.686,14.83
			c1.368,5.327-12.742,17.421-8.711,23.469c4.031,5.975,17.421,19.437,14.11,28.148c-3.384,8.711,2.015,23.469,4.679,35.563
			C837.393,1733.105,826.667,1737.065,813.277,1739.8z"/>
		<path style="fill:#BBDBF3;" d="M793.839,1278.993c-2.664,16.701-2.015,26.78-1.368,39.522
			c0.648,12.742-9.359,23.469-15.406,38.227c-4.967,12.166-16.269,31.172-24.693,44.13c-27.788-39.235-51.329-81.709-69.902-126.702
			c-4.751-11.518-9.143-23.181-13.246-34.987c7.775,4.248,12.166,2.376,17.278,2.88c6.695,0.648,14.038,16.054,20.085,26.132
			c6.047,10.078,16.774,14.11,21.525,16.773c4.68,2.736,10.007-5.975,20.085-12.022c10.078-6.047,14.758-8.063,24.836-12.742
			c10.079-4.751,10.726-13.462,19.437-14.11C801.182,1245.374,796.503,1262.219,793.839,1278.993z"/>
		<path style="fill:#93C3E6;" d="M736.247,678.669c-2.736,4.319-5.471,8.639-8.135,12.958
			c-35.419,58.096-61.983,122.167-77.821,190.413c-0.792,3.815-1.656,7.631-2.447,11.446c-9.143,43.41-13.966,88.332-13.966,134.405
			c0,48.953,5.399,96.61,15.694,142.468c-2.88-3.455-5.759-6.983-8.711-10.799c-10.726-14.11-25.484-30.164-31.028-44.922
			c-5.471-14.83,1.512-21.525,3.455-37.579c1.944-16.126-1.943-18.141-3.239-22.821c-1.368-4.679,8.423-41.178,6.695-42.258
			c-8.063-4.823-22.677,8.351-34.771,14.902c-12.022,6.551-25.124,3.024-29.156-5.039c-3.959-7.991,7.559-13.534,12.598-31.675
			c5.039-18.07-7.559-11.519-13.534-11.087c-6.047,0.504-10.583,6.551-20.157,16.63c-9.575,10.079,1.511,27.14-3.024,37.723
			c-4.535,10.583-8.567-6.047-14.11-16.126c-5.543-10.007,0.504-11.014,2.52-27.644c2.016-16.63-1.512-27.644-9.071-43.266
			c-7.487-15.622-12.526,29.66-24.62,32.683c-12.094,3.023-13.606,17.638-20.661,29.732c-6.983,12.022-5.471,22.605-8.495,32.683
			c-2.736,8.927-10.726,15.118-21.237,13.534c15.766-68.246,42.33-132.317,77.821-190.413c19.797-2.304,28.076-15.622,33.475-15.982
			c5.327-0.36,10.367-1.008,24.116-5.399c13.75-4.319,3.672-7.991,5.327-12.382c1.728-4.32,17.134-6.047,24.189-8.711
			c7.055-2.664,2.664-8.711,4.32-21.453c1.728-12.742,6.047-5.399,14.47-10.079c8.351-4.68,10.367-8.351,8.71-10.726
			c-1.656-2.304-11.734,4.031-14.11,1.008c-2.376-3.024,3.672-14.758-0.288-12.742c-4.031,2.016-8.423,10.079-8.423,17.781
			c0,7.703-7.343,11.375-13.39,22.821c-6.047,11.374-8.783,8.351-17.422,10.078c-8.711,1.656-11.446-1.368-16.486-1.728
			c-4.967-0.36,4.752-10.727,13.102-20.805c8.351-10.078,13.102-18.717,23.181-26.492c10.006-7.703,8.999-13.102,18.069-21.093
			c9.071-8.063,21.093-19.149,37.219-27.212c16.126-7.991,20.157,2.015,20.157,2.015s7.343,5.399,24.116-13.39
			c16.774-18.789,8.063-8.063,23.469-15.406C728.401,688.172,729.912,685.292,736.247,678.669z"/>
		<path style="fill:#BBDBF3;" d="M1403.594,1097.866c0.648,4.68-13.462,7.991-28.868-3.744
			c-15.406-11.734-23.469-10.366-34.843-17.709c-11.446-7.415-16.773-11.447-26.852-28.868
			c-10.078-17.494-7.415-23.469-12.094-36.211c-4.68-12.742-15.406-6.047-20.157,2.016c-4.68,8.063-20.733,5.327-31.532,2.016
			c-10.654-3.384-10.654-14.758-30.164-24.837c-19.437-10.079-25.484-2.664-40.89-1.368c-15.406,1.368-30.236,16.773-41.61,22.821
			c-11.374,6.047-8.063,10.726-8.71,20.805c-0.648,10.007-18.142,36.211-27.5,44.922c-9.431,8.711-1.368,10.726,6.695,25.484
			c8.063,14.758,7.415,9.431,5.399,19.437c-2.016,10.079-6.695,18.142-7.415,32.251c-0.648,14.038-6.047,22.821-13.39,22.821
			c-7.415,0-18.789-14.83-25.484-28.868c-6.767-14.11-19.509-18.142-40.243-29.516c-20.805-11.446-14.11-15.406-24.188-33.547
			c-10.079-18.142-16.774-24.188-19.437-16.126c-2.664,8.063-12.742,0-30.883-3.312c-18.07-3.383-19.437-13.462-34.843-22.821
			c-15.406-9.359-25.484,4.679-34.915,7.559c-9.359,2.88-22.821,11.879-33.691,16.558c-10.871,4.752-27.356,1.368-38.011,3.384
			c-10.799,2.016-28.22,0.648-41.61,0c-13.462-0.648-18.142-11.375-31.532-19.941c-13.462-8.495-16.774,1.152-22.173,6.551
			c-5.327,5.327,2.664,8.71,13.246,18.789c10.51,10.007,14.974,7.343,25.701,17.422c10.726,10.079,20.733,17.421,29.516,7.343
			c8.711-10.007,14.038-8.063,25.484-7.343c11.374,0.648,26.852-4.031,34.195-3.383c7.343,0.72,6.695,22.821-0.648,35.563
			c-7.415,12.742,3.311,30.811,0,34.195c-3.384,3.383-14.758,4.751-22.173,10.726c-7.343,6.047-11.374,14.11-24.837,18.789
			c-13.39,4.68-10.726,13.462-13.39,22.821c-2.664,9.431-20.157,16.774-35.563,25.485c-15.406,8.711-18.789,24.836-28.868,25.484
			c-10.007,0.648-6.695-16.054-11.374-32.179c-4.679-16.126-24.836-13.39-34.195-30.452c-6.911-12.454-14.398-21.237-22.173-30.524
			c-10.294-45.858-15.694-93.515-15.694-142.468c0-46.074,4.823-90.995,13.966-134.405c0.792-3.815,1.656-7.631,2.447-11.446
			c15.838-68.246,42.402-132.317,77.821-190.413c2.664-4.319,5.399-8.639,8.135-12.958c0-0.072,0-0.072,0-0.072
			c0.792-0.864,1.656-1.728,2.591-2.664c8.711-8.711,17.422-8.063,30.812-8.063c13.462,0,20.805-2.664,32.899-8.711
			c12.022-6.047-2.664-18.141,5.327-30.164c8.063-12.094,30.883-7.415,38.227-13.462c7.415-6.047,12.742-10.726,27.572-15.406
			c14.686-4.751,22.101-8.711,30.811-16.126c3.384-2.879,8.711-7.919,13.966-12.958c46.289-10.582,94.523-16.126,143.98-16.126
			c10.223,0,20.373,0.216,30.452,0.72c7.343,4.176,13.966,7.343,17.565,7.559c11.375,0.648,17.422,2.736,35.563,8.783
			c18.07,6.047,17.422,10.007,24.117,16.054c6.695,6.047,9.359-0.648,26.852-5.399c17.421-4.607,12.742,10.798,35.563,13.462
			c22.749,2.664,41.538,24.117,55.648,32.899c14.11,8.711,17.422,9.359,11.375,20.086c-6.047,10.726-3.959,12.742,0.72,24.189
			c4.679,11.374,15.406,7.343,20.805,8.999c5.327,1.656,16.054,9.071,24.765,13.75c8.711,4.68,14.758,17.493,10.079,23.469
			c-4.679,6.047-20.085,0.72-21.453-10.726c-1.367-11.375-14.758-10.007-26.132-22.029c-11.447-11.951-12.095,3.24-16.774,9.935
			c-4.752,6.767-8.711,4.031-17.494-5.975c-8.711-10.078-7.991,1.368-13.39,10.007c-5.399,8.782,2.664,14.11,10.727,20.805
			c8.063,6.695,10.078-1.296,14.11-3.96c4.031-2.735,12.023-10.078,10.079,0c-2.087,10.007,2.664,18.79,10.007,14.686
			c7.415-4.031,9.431,5.399,18.141,15.478c8.711,10.007,18.07,12.023,33.548,18.07c15.406,6.047,9.359,13.462,14.758,28.22
			c5.327,14.758,9.359,29.516,8.711,42.258c-0.648,12.742,1.296,19.437-8.711,32.827c-10.079,13.462-11.447,14.758-28.868,21.453
			c-17.421,6.767-6.695,0.72-14.11,4.031c-7.343,3.383-5.975,10.727-7.991,24.837c-2.088,14.11,5.327,11.374,16.054,20.157
			c10.726,8.711,22.173,6.695,36.93,11.374c14.686,4.679,14.038,9.359,19.437,20.157c5.327,10.726,6.695,15.406,0.648,24.116
			c-6.047,8.711-2.664,18.142-2.016,31.532c0.72,13.39-10.078,11.374-12.742-6.695c-2.664-18.142-9.359-5.399-19.437-5.399
			c-10.079,0-14.758-8.063-26.852-11.375c-12.023-3.383-10.007,2.016-17.422,12.095c-7.343,10.006,6.047,22.1,10.079,32.827
			c4.031,10.726,16.774,9.431,34.195,14.758c17.422,5.399,14.11,3.383,24.189,15.478
			C1394.163,1090.452,1402.873,1093.115,1403.594,1097.866z"/>
		<path style="fill:#93C3E6;" d="M915.214,1619.361c-7.703,2.376-22.821-5.687-35.563-12.382
			c-12.742-6.695-3.671-9.719-4.319-23.829c-0.648-14.11-8.423-14.758-15.766-21.453c-7.415-6.695-12.454-14.398-17.134-21.453
			c-3.959-5.975,4.319-13.606,17.494-21.525c17.062,14.686,34.843,28.436,53.416,41.25c0.864,2.736,1.512,5.615,1.872,8.783
			c1.368,12.022,9.719,21.813,11.447,34.195C928.316,1615.329,922.917,1617.057,915.214,1619.361z"/>
		<path style="fill:#BBDBF3;" d="M913.342,1559.969c-18.573-12.814-36.355-26.564-53.416-41.25c2.448-1.44,4.967-2.88,7.703-4.32
			c17.421-9.359-6.119-33.115,7.703-32.179c9.719,0.648,10.726,5.687,15.766,13.03c5.039,7.415,10.367,11.447,14.398,19.509
			c4.031,7.991,1.656,11.734,2.016,22.749C907.799,1545.715,911.111,1552.266,913.342,1559.969z"/>
		<path style="fill:#BBDBF3;" d="M1299.426,1106.394c-3.95-11.287,22.136-13.583,32.198-7.043
			c10.062,6.54,16.602,14.59,30.688,17.105c14.087,2.516,15.596,2.012,24.148,0c8.553-2.012,20.124-12.074,21.633-2.012
			c1.509,10.062-3.521,16.602,5.031,19.62c8.553,3.019,18.614,3.019,25.658,6.54c7.043,3.522,5.534,3.019,7.546,11.068
			c2.012,8.05,7.043,22.136-1.006,22.136s-15.093-5.031-31.695-7.043c-16.602-2.012-20.124-1.509-31.695-12.577
			s0.503-8.05-20.124-14.59c-20.627-6.54-24.148-14.087-35.719-21.13C1314.518,1111.425,1302.947,1116.456,1299.426,1106.394z"/>
		<path style="fill:#BBDBF3;" d="M1457.899,1173.808c4.519,9.603,14.59-4.025,23.645-6.54c9.056-2.515,7.043-0.503,17.608-2.515
			c10.565-2.012,13.08-14.087,21.633-13.08c8.553,1.006-5.534-10.062-14.59-7.043s-10.062,3.019-22.639,7.546
			C1470.979,1156.703,1453.874,1165.255,1457.899,1173.808z"/>
		<path style="fill:#BBDBF3;" d="M1694.891,1068.766c-3.763-1.767-7.042-3.535-7.583-4.476c-1.34-2.338-6.044-14.083-10.406-17.419
			c-4.362-3.364-2.338,9.037-0.313,16.421c1.996,7.384,1.34,10.406-2.366,8.381c-3.677-1.996-5.702-1.34-9.721,2.366
			c-4.02,3.678-7.042,2.993-5.017-12.743c1.996-15.765-4.191-15.195-14.425-19.471c-5.987-2.48-13.085-1.682-20.127-2.68
			c-7.042-0.998-12.43-6.044-16.449-12.743c-4.02-6.699,4.362-13.428,10.406-14.083c6.044-0.684,3.364,10.406,15.081,16.763
			c11.745,6.386,2.024-7.384,3.022-19.443c1.026-12.088,11.09-3.022,22.493-1.682c11.403,1.34,10.719,13.085,14.397,20.783
			c3.706,7.726,6.728,12.087,9.066,19.785c0.998,3.307,5.588,8.467,10.463,13.256
			C1693.922,1064.119,1694.435,1066.428,1694.891,1068.766z"/>
		<path style="fill:#BBDBF3;" d="M1450.856,1075.883c-3.742,9.875,4.025,17.598,8.72,22.294c4.696,4.696,9.391,11.403,11.739,15.764
			c2.348,4.36,6.037,7.043,12.074,2.348c6.037-4.695,6.037-10.062,17.105-9.391s17.105,11.739,20.794,0.335
			c3.689-11.403,1.951-12.745,2.149-21.801c0.199-9.056,7.242-20.794,3.552-26.831c-3.689-6.037-11.465-8.049-3.552-14.087
			s0.869-8.049-4.832-9.391c-5.702-1.342-13.416-2.348-14.087-10.733c-0.671-8.385,2.012-12.745,4.696-18.111
			c2.683-5.366,6.372-13.08-5.366-10.062c-11.739,3.018-21.465,3.018-20.124,13.08c1.342,10.062,0.335,16.434-7.379,22.136
			c-7.714,5.702-1.006,19.232-5.031,25.715C1467.29,1063.631,1453.204,1069.688,1450.856,1075.883z"/>
		<path style="fill:#BBDBF3;" d="M1333.133,643.048c-11.608,1.786,14.59,7.546,21.633,18.614
			c7.043,11.068,22.639,10.062,16.099,24.148s-10.062,12.074-7.043,20.627s-6.037,16.099,1.509,16.099s17.105-2.515,24.651,7.043
			c7.546,9.559,7.546,0.503,1.006-12.074c-6.54-12.577-7.546-16.602-4.025-22.639c3.522-6.037,4.528-15.596-2.515-23.645
			c-7.043-8.049-11.816-5.534-19.995-14.086C1356.275,648.582,1339.673,642.042,1333.133,643.048z"/>
		<path style="fill:#BBDBF3;" d="M1121.583,1137.082c-7.014,3.167-2.516,12.326,0.252,18.363c2.767,6.037-2.264,9.81,3.521,15.596
			c5.786,5.786,13.583,14.086,18.111,10.062s18.614-9.307,11.32-17.608c-7.295-8.301-10.565-8.552-16.099-14.59
			C1133.154,1142.868,1129.381,1133.561,1121.583,1137.082z"/>
		<path style="fill:#BBDBF3;" d="M1539.064,1045.185c1.232,14.71,8.049,15.093,5.702,25.155c-2.348,10.062-2.766,17.44,1.635,17.44
			s6.414-25.154,10.774-16.099c4.36,9.056,9.056,13.751,10.062,8.385c1.006-5.366-13.08-15.984-7.714-22.917
			c5.366-6.933,16.77-24.709,3.354-15.989c-13.416,8.72-18.447,19.788-20.459,10.062c-2.012-9.726-4.696-14.086,6.708-17.44
			c11.403-3.354,21.13-2.683,22.471-10.397c1.342-7.714,2.348-23.477-8.049-12.409c-10.397,11.068-11.068,9.391-19.453,15.093
			c-8.385,5.702-16.434,6.037-13.08,10.733C1534.369,1041.495,1538.501,1038.457,1539.064,1045.185z"/>
		<path style="fill:#BBDBF3;" d="M1447.334,869.942c-9.6,0.48-8.553,7.043-2.516,14.086c6.037,7.043,7.043,15.093,15.093,22.639
			c8.05,7.546,17.608,10.565,19.62,17.105c2.012,6.54,9.806-0.503,9.431-7.546c-0.375-7.043,9.687-4.025,14.718,1.006
			s10.565,4.691,13.08,9.137c2.516,4.446,12.074-2.597,2.012-9.137c-10.062-6.54-11.571-9.559-22.136-13.583
			c-10.565-4.025-9.315-3.522-14.468,0c-5.153,3.522-8.674,4.715-15.214-5.692c-6.54-10.407-4.217-19.966-9.655-24.997
			C1451.862,867.929,1457.396,869.438,1447.334,869.942z"/>
	</g>
	<g>
		<path style="fill:#FFFFFF;" d="M1482.691,1154.96c0,78.391-63.513,141.904-141.803,141.904H874.133
			c-61.714,0-111.747-50.031-111.747-111.745c0-61.714,50.033-111.745,111.747-111.745c11.183,0,21.969,1.598,32.155,4.693
			c18.573-35.751,56.021-60.116,99.062-60.116c5.293,0,10.386,0.399,15.479,1.098c22.769-69.903,88.479-120.333,165.969-120.333
			c75.396,0,139.609,47.734,164.075,114.741C1424.47,1018.549,1482.691,1079.964,1482.691,1154.96z"/>
		<g>
			<polygon style="fill:#BBDBF3;" points="1098.287,1171.807 1021.077,1075.345 943.868,1171.807 986.9,1171.807 986.9,1241.067 
				1055.254,1241.067 1055.254,1171.807 			"/>
			<polygon style="fill:#BBDBF3;" points="1146.79,1144.605 1223.999,1241.067 1301.209,1144.605 1258.176,1144.605 
				1258.176,1075.345 1189.822,1075.345 1189.822,1144.605 			"/>
		</g>
	</g>
	<g>
		<rect x="1257.85" y="1332.261" style="fill:#93C3E6;" width="68.592" height="673.188"/>
		<rect x="1326.442" y="1332.261" style="fill:#BBDBF3;" width="68.592" height="673.188"/>
		<rect x="1498.303" y="1332.261" style="fill:#93C3E6;" width="68.592" height="673.188"/>
		<rect x="1566.895" y="1332.261" style="fill:#BBDBF3;" width="68.592" height="673.188"/>
		<rect x="1249.152" y="1332.258" style="fill:#5999C7;" width="154.576" height="11.489"/>
		<rect x="1249.152" y="1489.551" style="fill:#5999C7;" width="154.576" height="11.489"/>
		<rect x="1249.152" y="1646.844" style="fill:#5999C7;" width="154.576" height="11.489"/>
		<rect x="1257.85" y="1783.856" style="fill:#5999C7;" width="137.184" height="221.593"/>
		<rect x="1489.605" y="1332.258" style="fill:#5999C7;" width="154.576" height="11.489"/>
		<rect x="1489.605" y="1489.551" style="fill:#5999C7;" width="154.576" height="11.489"/>
		<rect x="1489.605" y="1646.844" style="fill:#5999C7;" width="154.576" height="11.489"/>
		<rect x="1334.393" y="1715.061" style="fill:#93C3E6;" width="255.473" height="290.388"/>
		<rect x="1589.866" y="1587.425" style="fill:#5999C7;" width="367.757" height="418.025"/>
		<rect x="1358.913" y="1742.861" style="fill:#BBDBF3;" width="206.433" height="45.377"/>
		<rect x="1358.913" y="1825.29" style="fill:#BBDBF3;" width="206.433" height="45.377"/>
		<rect x="1358.913" y="1907.719" style="fill:#BBDBF3;" width="206.433" height="45.377"/>
		<g>
			<rect x="1624.635" y="1621.657" style="fill:#93C3E6;" width="55.17" height="79.257"/>
			<rect x="1705.651" y="1621.657" style="fill:#93C3E6;" width="55.17" height="79.257"/>
			<rect x="1786.667" y="1621.657" style="fill:#93C3E6;" width="55.17" height="79.257"/>
			<rect x="1867.683" y="1621.657" style="fill:#93C3E6;" width="55.17" height="79.257"/>
		</g>
		<g>
			<rect x="1624.635" y="1725.922" style="fill:#93C3E6;" width="55.17" height="79.257"/>
			<rect x="1705.651" y="1725.922" style="fill:#93C3E6;" width="55.17" height="79.257"/>
			<rect x="1786.667" y="1725.922" style="fill:#93C3E6;" width="55.17" height="79.257"/>
			<rect x="1867.683" y="1725.922" style="fill:#93C3E6;" width="55.17" height="79.257"/>
		</g>
		<g>
			<rect x="1624.635" y="1830.186" style="fill:#93C3E6;" width="55.17" height="147.919"/>
			<rect x="1867.683" y="1830.186" style="fill:#93C3E6;" width="55.17" height="147.919"/>
		</g>
		<rect x="1730.006" y="1859.623" style="fill:#93C3E6;" width="87.477" height="145.826"/>
		<polygon style="fill:#93C3E6;" points="1773.744,1813.636 1699.285,1870.667 1848.204,1870.667 		"/>
		<polygon style="fill:#5999C7;" points="1722.271,1862.875 1773.743,1823.451 1825.217,1862.875 		"/>
	</g>
	<g>
		<path style="fill:#0775EF;" d="M614.419,1657.796c0,192.016-40.615,347.653-90.679,347.653
			c-50.097,0-90.713-155.637-90.713-347.653c0-191.983,40.615-347.653,90.713-347.653
			C573.804,1310.143,614.419,1465.813,614.419,1657.796z"/>
		<path style="fill:#2EC6FC;" d="M838.107,1657.796c0,192.016-40.616,347.653-90.713,347.653H523.74
			c50.063,0,90.679-155.637,90.679-347.653c0-191.983-40.615-347.653-90.679-347.653h223.655
			C797.492,1310.143,838.107,1465.813,838.107,1657.796z"/>
		<rect x="840.478" y="1691.718" style="fill:#586773;" width="17.907" height="13.26"/>
		<path style="fill:#93ACBF;" d="M862.974,1708.944h-6.8c-0.657,0-1.19-0.533-1.19-1.19v-18.813c0-0.657,0.533-1.19,1.19-1.19h6.8
			c0.657,0,1.19,0.533,1.19,1.19v18.813C864.164,1708.411,863.632,1708.944,862.974,1708.944z"/>
		<rect x="840.478" y="1582.798" style="fill:#586773;" width="17.907" height="13.26"/>
		<path style="fill:#586773;" d="M795.787,1831.879H575.432c-15.012,0-27.182-12.17-27.182-27.182v-293.795
			c0-15.012,12.17-27.182,27.182-27.182h220.355c15.012,0,27.182,12.17,27.182,27.182v293.795
			C822.969,1819.709,810.799,1831.879,795.787,1831.879z"/>
		<path style="fill:#93ACBF;" d="M823.25,1831.879H602.895c-15.012,0-27.182-12.17-27.182-27.182v-293.795
			c0-15.012,12.17-27.182,27.182-27.182H823.25c15.012,0,27.182,12.17,27.182,27.182v293.795
			C850.432,1819.709,838.262,1831.879,823.25,1831.879z"/>
		<path style="fill:none;stroke:#6ADB6A;stroke-width:3.3622;stroke-miterlimit:10;" d="M602.895,1822.346
			c-9.732,0-17.652-7.916-17.652-17.648v-293.797c0-9.732,7.92-17.648,17.652-17.648H823.25c9.732,0,17.652,7.916,17.652,17.648
			v293.797c0,9.732-7.92,17.648-17.652,17.648H602.895z"/>
		<rect x="606.434" y="1529.263" style="fill:#F9E181;" width="102.859" height="102.859"/>
		<rect x="728.909" y="1529.263" style="fill:#F74242;" width="102.859" height="102.859"/>
		<rect x="606.434" y="1679.615" style="fill:#088CFC;" width="102.859" height="102.859"/>
		<rect x="728.909" y="1679.615" style="fill:#6ADB6A;" width="102.859" height="102.859"/>
		<g>
			<g>
				<ellipse style="fill:#FFFFFF;" cx="799.089" cy="1611.998" rx="13.003" ry="8.342"/>
			</g>
			<g>
				<ellipse style="fill:#FFFFFF;" cx="758.978" cy="1605.33" rx="10.394" ry="6.668"/>
			</g>
			<g>
				<polygon style="fill:#FFFFFF;" points="811.816,1611.997 806.114,1611.997 806.114,1564.43 769.059,1549.487 769.059,1605.33 
					763.357,1605.33 763.357,1541.045 811.816,1560.581 				"/>
			</g>
			<g>
				
					<rect x="784.735" y="1546.626" transform="matrix(0.3829 -0.9238 0.9238 0.3829 -964.1195 1696.2242)" style="fill:#FFFFFF;" width="5.702" height="46.285"/>
			</g>
		</g>
		<polygon style="fill:#FFFFFF;" points="690.158,1580.692 632.293,1547.284 632.293,1614.1 		"/>
		<g>
			<polygon style="fill:#E5F0F8;" points="694.601,1707.384 655.585,1733.319 616.577,1707.384 			"/>
			<polygon style="fill:#FFFFFF;" points="694.601,1707.384 694.601,1759.253 616.577,1759.253 616.577,1707.384 655.585,1733.319 
							"/>
			<polygon style="fill:#FFFFFF;" points="616.577,1759.253 655.585,1733.319 694.601,1759.253 			"/>
			<circle style="fill:#F74242;" cx="694.601" cy="1707.384" r="4.549"/>
		</g>
		<g>
			<ellipse style="fill:#FFFFFF;" cx="779.006" cy="1729.458" rx="31.847" ry="20.513"/>
			<polygon style="fill:#FFFFFF;" points="808.142,1737.751 813.516,1753.144 779.006,1749.971 792.436,1733.594 			"/>
			<g>
				<circle style="fill:#6ADB6A;" cx="766.596" cy="1729.458" r="3.343"/>
				<circle style="fill:#6ADB6A;" cx="779.006" cy="1729.458" r="3.343"/>
				<path style="fill:#6ADB6A;" d="M794.76,1729.458c0,1.846-1.497,3.343-3.343,3.343c-1.846,0-3.343-1.497-3.343-3.343
					s1.497-3.343,3.343-3.343C793.263,1726.114,794.76,1727.611,794.76,1729.458z"/>
			</g>
		</g>
		<path style="fill:#93ACBF;" d="M862.974,1600.025h-6.8c-0.657,0-1.19-0.533-1.19-1.19v-18.813c0-0.657,0.533-1.19,1.19-1.19h6.8
			c0.657,0,1.19,0.533,1.19,1.19v18.813C864.164,1599.492,863.632,1600.025,862.974,1600.025z"/>
	</g>
	<g>
		<path style="fill:#93ACBF;" d="M784.379,931.712H483.377c-5.45,0-9.867-4.418-9.867-9.867V640.053
			c35.466-35.465,55.35-55.35,90.815-90.815h220.055c5.45,0,9.867,4.418,9.867,9.867v362.739
			C794.247,927.294,789.829,931.712,784.379,931.712z"/>
		<polygon style="fill:none;stroke:#F9ECB8;stroke-width:4.9962;stroke-miterlimit:10;" points="500.269,904.952 500.269,651.136 
			575.406,575.996 767.489,575.996 767.489,904.952 		"/>
		<polygon style="fill:none;stroke:#F9ECB8;stroke-width:4.9962;stroke-miterlimit:10;" points="527.028,878.193 740.73,878.193 
			740.73,602.755 586.489,602.755 527.028,662.219 		"/>
		<polygon style="fill:none;stroke:#F9ECB8;stroke-width:4.9962;stroke-miterlimit:10;" points="553.787,851.434 553.787,673.301 
			597.572,629.514 713.971,629.514 713.971,851.434 		"/>
		<polygon style="fill:none;stroke:#F9ECB8;stroke-width:4.9962;stroke-miterlimit:10;" points="580.546,824.675 580.546,684.384 
			608.655,656.273 687.212,656.273 687.212,824.675 		"/>
		<polygon style="fill:none;stroke:#F9ECB8;stroke-width:4.9962;stroke-miterlimit:10;" points="607.305,797.917 607.305,695.467 
			619.74,683.031 660.454,683.031 660.454,797.917 		"/>
	</g>
	<path style="fill:#088CFC;" d="M1114.016,903.649l-22.275-64.68l-3.648,25.337c-40.28-54.816-91.273-107.372-203.782-149.589
		l-75.867,19.952c0,0,132.547,14.104,271.217,135.109l-25.058,6.165L1114.016,903.649z"/>
	<path style="fill:#088CFC;" d="M519.399,953.491l-2.737,74.318l13.621-24.267c19.385,71.365,50.52,144.632,148.091,231.504
		l84.754,9.474c0,0-128.9-66.206-222.15-243.225l27.827,3.56L519.399,953.491z"/>
	<g>
		<polygon style="fill:#FDAE97;" points="1722.291,966.569 1777.352,965.633 1774.468,907.818 1773.091,880.171 1773.013,878.794 
			1729.931,860.682 1728.527,880.223 1727.488,894.462 		"/>
		<path style="fill:#FDAE97;" d="M1463.198,989.621c-1.128,2.171,8.921,13.076,18.375,18.347
			c8.006,4.476,27.576,12.806,33.361,15.221l14.903-25.09c-2.901-2.268-6.016-4.873-8.411-7.441
			c-5.942-6.272-24.038-21.484-26.223-18.838c-2.185,2.603,8.133,15.542,6.313,15.895c-1.82,0.353-11.59-7.374-15.477-10.991
			c-3.929-3.617-11.038-12.721-14.086-12.147c-3.092,0.575-3.395,5.157-3.395,5.157s-2.319-3.798-4.425-1.916
			c-2.106,1.882,0.024,8.692,0.024,8.692s-1.035-2.24-2.838,0.404c-1.803,2.685,4.839,11.708,4.839,11.708
			S1464.284,987.407,1463.198,989.621z"/>
		<path style="fill:#088CFC;" d="M1829.971,1145.532l23.154,191.669c0.728,4.845,0.704,9.882-0.284,14.966
			c-4.652,23.932-27.824,39.562-51.756,34.91c-23.932-4.652-33.092-23.131-37.39-50.611c-8.251-52.751-37.07-211.022-37.07-211.022
			L1829.971,1145.532z"/>
		<polygon style="fill:#088CFC;" points="1679.838,1135.884 1764.891,1141.591 1764.468,1235.82 1754.373,1250.75 1745.015,1341.59 
			1658.921,1334.708 		"/>
		<path style="fill:#F74242;" d="M1881.62,1109.256l-0.32,0.134c-14.054,5.895-30.376-0.782-36.271-14.836L1797,980.039
			c-5.895-14.054,0.782-30.376,14.836-36.271l0.32-0.134c14.054-5.895,30.376,0.782,36.271,14.836l48.029,114.515
			C1902.351,1087.04,1895.674,1103.361,1881.62,1109.256z"/>
		<path style="fill:#F74242;" d="M1648.463,1088.93c-8.535,13.42-25.291,18.261-37.112,10.695l-60.042-40.421l-21.229-14.356
			l-22.158-14.91l12.167-22.895l8.642-16.248l0.824-1.588l24.438,13.358l22.419,12.216l65.986,35.99
			C1654.219,1058.336,1656.999,1075.51,1648.463,1088.93z"/>
		<path style="fill:#FDAE97;" d="M1749.107,942.39c-20.203,0.445-28.807-9.597-31.402-13.542l7.555-3.414l49.96-2.514l6.002,1.921
			C1778.688,929.558,1769.747,941.936,1749.107,942.39z"/>
		<path style="fill:#F74242;" d="M1677.411,1068.086l-1.196,82.62h155.522l-1.844-208.294l-53.369-19.284
			c-0.598,1.096-1.246,2.242-2.043,3.438l-0.199,0.249c-2.89,3.688-8.421,7.176-23.919,7.525
			c-12.906,0.299-19.235-1.495-22.822-3.837l-0.05-0.05c-1.943-1.296-3.089-2.84-3.986-4.236l-50.379,11.112l3.389,105.144
			L1677.411,1068.086z"/>
		<path style="fill:#088CFC;" d="M1869.25,1531.746l-80.003-0.055l-24.115-186.174c-2.518-24.262,15.07-45.988,39.301-48.542
			c24.262-2.518,45.953,15.068,48.508,39.298c0.23,2.106,0.257,4.164,0.18,6.248l13.927,163.409L1869.25,1531.746L1869.25,1531.746z
			"/>
		<path style="fill:#F74242;" d="M1612.4,1099.957L1612.4,1099.957c13.789,7.029,30.822,1.497,37.851-12.292l56.485-110.816
			c7.029-13.789,1.497-30.822-12.292-37.851h0c-13.789-7.029-30.822-1.497-37.851,12.292l-56.484,110.816
			C1593.079,1075.895,1598.611,1092.928,1612.4,1099.957z"/>
		<path style="fill:#D6EAFF;" d="M1727.541,930.502l22.822,36.078l23.919-39.765c-2.89,3.688-8.421,7.176-23.919,7.525
			C1737.457,934.638,1731.128,932.845,1727.541,930.502z"/>
		<path style="fill:#FDAE97;" d="M1842.534,1261.587c2.391,0.517,10.265-12.05,12.859-22.558c2.209-8.902,5.091-29.975,5.897-36.192
			l-28.129-7.768c-1.424,3.396-3.116,7.087-4.963,10.073c-4.486,7.384-14.394,28.847-11.266,30.258
			c3.087,1.422,12.851-11.94,13.671-10.277c0.82,1.663-4.061,13.123-6.526,17.825c-2.454,4.743-9.365,13.999-8.008,16.788
			c1.369,2.831,5.869,1.917,5.869,1.917s-3.053,3.238-0.683,4.773c2.37,1.536,8.379-2.313,8.379-2.313s-1.888,1.588,1.137,2.631
			c3.065,1.032,10.021-7.752,10.021-7.752S1840.113,1261.122,1842.534,1261.587z"/>
		<path style="fill:#088CFC;" d="M1745.322,1338.242l-20.545,193.504h-78.597l12.602-194.563c-0.103-2.051,0.479-4.341,0.649-6.46
			c2.153-24.301,21.464-42.449,45.765-40.33C1729.463,1292.546,1747.441,1313.941,1745.322,1338.242z"/>
		<path style="fill:#F74242;" d="M1822.722,1196.399l4.225-28.064l3.856-25.399l10.221-67.785
			c3.005-13.708,18.152-22.169,33.71-18.801c15.539,3.397,25.816,17.41,22.839,31.137l-19.066,67.711l-6.901,24.613l-7.154,25.43
			L1822.722,1196.399z"/>
		<polygon style="fill:#EA9D85;" points="1725.969,915.533 1756.92,892.965 1727.488,894.462 		"/>
		<path style="fill:#FDAE97;" d="M1730.568,828.622c0,0-4.904,17.842-8.382,30.499l-2.875,10.461
			c-2.272,8.265-3.323,21.163,5.199,26.556c8.492,5.385,22.336,5.023,33.898-2.197c11.571-7.251,43.338-45.494,20.293-69.18
			C1755.626,801.066,1732.382,824.528,1730.568,828.622z"/>
		<path style="fill:#322A28;" d="M1773.659,891.573c0,0-14.951-22.988-6.804-36.076c8.147-13.088,0-16.375-5.717-15.375
			s-15.659,0.715-19.693-0.858c0,0,12.117,0.286,17.263-2.716c0,0-23.886,1.957-29.094-4.453l-1.281,4.66
			c0,0-8.607-20.271,4.336-24.988c12.943-4.717,18.321,0.626,18.321,0.626s-4.118-8.29,1.8-9.862
			c5.918-1.572,11.349,10.434,11.349,10.434s8.29-10.291,16.866-0.143c8.576,10.148,5.002,19.438,5.002,19.438
			s10.005,8.29,5.145,21.296C1786.293,866.564,1774.745,878.848,1773.659,891.573z"/>
		<g>
			<path style="fill:#FDAE97;" d="M1766.636,874.9c-4.616,4.166-6.455,7.486-3.184,11.11c3.271,3.624,10.088,4.637,14.703,0.47
				c4.616-4.166,5.705-10.482,2.434-14.105C1777.319,868.751,1771.251,870.734,1766.636,874.9z"/>
		</g>
		<path style="fill:#332B27;" d="M1748.897,858.623c-0.527,1.917-1.959,3.195-3.2,2.854c-1.24-0.341-1.819-2.171-1.292-4.089
			c0.527-1.917,1.959-3.195,3.2-2.854C1748.846,854.875,1749.424,856.706,1748.897,858.623z"/>
		<path style="fill:#332B27;" d="M1725.707,852.25c-0.527,1.917,0.051,3.748,1.292,4.089c1.24,0.341,2.673-0.937,3.2-2.854
			c0.527-1.917-0.051-3.748-1.292-4.089C1727.667,849.055,1726.234,850.333,1725.707,852.25z"/>
		<path style="fill:#E89780;" d="M1741.849,870.302c0.106,1.924,3.292,3.312,7.116,3.102c3.825-0.21,6.839-1.94,6.733-3.864
			c-0.106-1.924-3.292-3.312-7.117-3.102S1741.743,868.378,1741.849,870.302z"/>
		<path style="fill:#E89780;" d="M1722.186,859.121l-1.869,6.801c2.775,1.123,5.341,0.976,6.149-0.41
			C1727.378,863.861,1725.472,861.008,1722.186,859.121z"/>
		
			<path style="fill:none;stroke:#EA9D85;stroke-width:1.4364;stroke-linecap:round;stroke-linejoin:round;stroke-miterlimit:10;" d="
			M1774.671,881.654c-2.969-1.452-5.706-1.568-5.706-1.568c4.225-4.455,8.134-2.727,8.134-2.727"/>
		<path style="fill:none;stroke:#332B27;stroke-width:0.9188;stroke-miterlimit:10;" d="M1741.472,880.001
			c0,0-5.121,5.578-13.139,1.736"/>
		<path style="fill:none;stroke:#332B27;stroke-width:0.9188;stroke-miterlimit:10;" d="M1738.996,857.329l-7.596,11.08
			c-0.77,1.122-0.676,2.625,0.228,3.643l1.399,1.576l1.433,1.615"/>
		<path style="fill:none;stroke:#332B27;stroke-width:0.9188;stroke-miterlimit:10;" d="M1752.79,855.497
			c0,0-2.99-5.185-8.146-5.196"/>
		<path style="fill:none;stroke:#332B27;stroke-width:0.9188;stroke-miterlimit:10;" d="M1725.259,845.724
			c0,0,4.134-2.217,8.065,1.119"/>
		<polygon style="fill:#FFFFFF;" points="1725.383,923.671 1750.358,934.357 1737.234,950.3 1722.291,926.74 		"/>
		<polygon style="fill:#FFFFFF;" points="1775.141,921.306 1750.358,934.357 1762.177,949.629 1777.352,923.453 		"/>
		<polygon style="fill:#FDAE97;" points="1713.437,1561.987 1715.543,1531.746 1656.656,1531.746 1654.357,1561.987 		"/>
		<polygon style="fill:#EA9D85;" points="1655.615,1545.446 1715.543,1531.746 1656.656,1531.746 		"/>
		<polygon style="fill:#FDAE97;" points="1800.843,1561.987 1798.585,1531.697 1858.901,1531.746 1859.923,1561.987 		"/>
		<polygon style="fill:#EA9D85;" points="1799.844,1548.592 1858.901,1531.746 1798.585,1531.697 		"/>
		<path style="fill:#322A28;" d="M1784.149,831.404c0,0,7.003-3.716,14.007,2.144c0,0-12.006-3.43-14.007,1.143
			C1782.148,839.265,1784.149,831.404,1784.149,831.404z"/>
		
			<polyline style="fill:none;stroke:#FFFFFF;stroke-width:0.7475;stroke-linecap:round;stroke-linejoin:round;stroke-miterlimit:10;" points="
			1780.276,929.556 1750.358,977.68 1720.838,932.663 		"/>
		<path style="fill:#322A28;" d="M1625.337,1587.425h86.955l0.149-3.538l1.068-23.436h-59.171c-7.325,0-14.102,4.301-19.284,8.786
			c-4.286,3.837-7.475,8.87-8.97,14.65C1625.736,1585.033,1625.486,1586.229,1625.337,1587.425z"/>
		<path style="fill:#FFF1F0;" d="M1625.337,1587.425h86.955l0.149-3.538h-86.357
			C1625.736,1585.033,1625.486,1586.229,1625.337,1587.425z"/>
		<g>
			
				<path style="fill:none;stroke:#FFF1F0;stroke-width:1.1376;stroke-linecap:round;stroke-linejoin:round;stroke-miterlimit:10;" d="
				M1652.558,1565.272c0,0,7.516-13.191,12.578-7.976C1670.198,1562.511,1652.558,1565.272,1652.558,1565.272"/>
			
				<path style="fill:none;stroke:#FFF1F0;stroke-width:1.1376;stroke-linecap:round;stroke-linejoin:round;stroke-miterlimit:10;" d="
				M1655.204,1567.899l-2.646-2.627c0,0-7.516-13.191-12.578-7.976c-5.062,5.215,12.578,7.976,12.578,7.976"/>
			
				<line style="fill:none;stroke:#FFF1F0;stroke-width:1.1376;stroke-linecap:round;stroke-linejoin:round;stroke-miterlimit:10;" x1="1650.539" y1="1567.899" x2="1652.558" y2="1565.272"/>
		</g>
		<path style="fill:#322A28;" d="M1888.491,1587.425h-86.955l-0.149-3.538l-1.068-23.436h59.171c7.325,0,14.102,4.301,19.285,8.786
			c4.286,3.837,7.475,8.87,8.97,14.65C1888.092,1585.033,1888.342,1586.229,1888.491,1587.425z"/>
		<path style="fill:#FFF1F0;" d="M1888.491,1587.425h-86.955l-0.149-3.538h86.357
			C1888.092,1585.033,1888.342,1586.229,1888.491,1587.425z"/>
		<g>
			
				<path style="fill:none;stroke:#FFF1F0;stroke-width:1.1376;stroke-linecap:round;stroke-linejoin:round;stroke-miterlimit:10;" d="
				M1861.27,1566.071c0,0-7.516-13.191-12.578-7.976C1843.63,1563.31,1861.27,1566.071,1861.27,1566.071"/>
			
				<path style="fill:none;stroke:#FFF1F0;stroke-width:1.1376;stroke-linecap:round;stroke-linejoin:round;stroke-miterlimit:10;" d="
				M1858.624,1568.697l2.646-2.627c0,0,7.516-13.191,12.578-7.976c5.062,5.215-12.578,7.976-12.578,7.976"/>
			
				<line style="fill:none;stroke:#FFF1F0;stroke-width:1.1376;stroke-linecap:round;stroke-linejoin:round;stroke-miterlimit:10;" x1="1863.289" y1="1568.697" x2="1861.27" y2="1566.071"/>
		</g>
		<polyline style="fill:none;stroke:#FFFFFF;stroke-width:1.6477;stroke-miterlimit:10;" points="1752.213,1271.714 
			1749.385,1248.546 1735.167,1238.737 1723.614,1191.672 		"/>
		
			<line style="fill:none;stroke:#FFFFFF;stroke-width:1.6477;stroke-miterlimit:10;" x1="1654.357" y1="1508.036" x2="1710.284" y2="1508.036"/>
		
			<line style="fill:none;stroke:#FFFFFF;stroke-width:1.6477;stroke-miterlimit:10;" x1="1803.996" y1="1508.036" x2="1859.923" y2="1508.036"/>
	</g>
	<g>
		<path style="fill:#FDAE97;" d="M1186.158,1375.191c1.219,2.164-8.604,13.573-18.017,19.244
			c-7.971,4.815-27.543,13.937-33.33,16.585l-15.979-24.949c2.866-2.4,5.938-5.15,8.28-7.838
			c5.814-6.568,23.656-22.621,25.963-20.011c2.306,2.567-7.721,16.048-5.862,16.344c1.859,0.296,11.508-7.879,15.328-11.681
			c3.863-3.804,10.765-13.285,13.878-12.806c3.156,0.478,3.621,5.116,3.621,5.116s2.223-3.933,4.424-2.096
			c2.201,1.838,0.272,8.821,0.272,8.821s0.974-2.308,2.893,0.312c1.921,2.663-4.509,12.046-4.509,12.046
			S1184.981,1372.982,1186.158,1375.191z"/>
		<path style="fill:#322A28;" d="M935.31,1227.219c-20.734,1.803-38.738,19.422-38.991,44.591
			c-0.254,25.168-4.818,38.117-20.032,35.192c0,0,42.615,24.715,98.772,2.908c0,0-7.039-8.346-8.024-27.248
			C966.049,1263.761,935.31,1227.219,935.31,1227.219z"/>
		<path style="fill:#F9E181;" d="M1044.356,1484.352L1044.356,1484.352c-13.212,7.11-29.839,2.119-36.949-11.093l-53.448-99.307
			c-7.111-13.211-2.119-29.839,11.093-36.949h0c13.211-7.11,29.839-2.119,36.949,11.093l53.448,99.307
			C1062.559,1460.615,1057.567,1477.242,1044.356,1484.352z"/>
		<path style="fill:#B86B76;" d="M922.883,1517.394c-17.86,23.385-24.589,71.865-13.201,124.091
			c11.388,52.226,15.235,86.558,15.235,86.558c2.968,24.175,24.973,41.367,49.148,38.399c24.175-2.968,41.367-24.973,38.399-49.148
			l-18.159-199.9H922.883z"/>
		<path style="fill:#F9E181;" d="M918.945,1325.689l-47.739,21.621c0,0,10.614,122.895,11.712,136.338
			c1.097,13.443-3.018,33.745-3.018,33.745h114.405c0,0-1.372-65.845,6.31-84.226c5.204-12.453,8.779-20.028,5.761-34.294
			c-3.018-14.266-25.1-39.487-21.533-64.178l-24.905-7.976L918.945,1325.689z"/>
		<path style="fill:#F9E181;" d="M832.906,1504.179L832.906,1504.179c-14.089-5.159-21.395-20.906-16.237-34.995l38.776-105.901
			c5.159-14.089,20.906-21.395,34.995-16.236l0,0c14.089,5.159,21.395,20.906,16.237,34.995l-38.776,105.901
			C862.743,1502.031,846.995,1509.338,832.906,1504.179z"/>
		<path style="fill:#332B27;" d="M965.695,1254.472c0,0,6.495-15.981-9.118-20.819L965.695,1254.472z"/>
		<path style="fill:#FDAE97;" d="M959.932,1271.175v55.533c0,0-1.119,12.183-15.584,13.259
			c-12.484,0.947-20.448-7.275-23.806-11.666l-1.765-2.583l-0.043-0.043l5.898-54.5H959.932z"/>
		<polygon style="fill:#E89780;" points="959.923,1320.385 935.31,1293.62 959.938,1302.871 		"/>
		<path style="fill:#FDAE97;" d="M935.51,1299.549c11.507,6.784,25.081,6.775,33.27,1.267c8.196-5.477,6.849-18.097,4.409-26.109
			c-0.008-0.031-0.008-0.031-0.017-0.062c-0.509-1.656-1.231-3.987-2.036-6.626c-3.131-10.351-7.758-25.679-7.758-25.679
			c-2.024-8.1-25.226-26.323-47.193-2.56C894.227,1263.575,924.003,1292.765,935.51,1299.549z"/>
		<path style="fill:#322A28;" d="M962.642,1239.065c0,0-0.301,9.707-13.899,16.193c-13.598,6.486-26.504,16.404-24.878,30.74
			c1.627,14.336-3.288,22.423-3.288,22.423s-2.024-17.865-11.035-32.994c-3.495-5.869-6.557-18.249-0.753-28.923
			C917.949,1229.661,941.595,1216.865,962.642,1239.065z"/>
		<path style="fill:#FDAE97;" d="M926.192,1282.917c2.924,4.322,3.756,7.396,0.364,9.692c-3.393,2.296-9.151,1.752-12.075-2.569
			c-2.924-4.322-2.544-9.686,0.849-11.982C918.722,1275.761,923.268,1278.595,926.192,1282.917z"/>
		
			<path style="fill:none;stroke:#E89780;stroke-width:0.6481;stroke-linecap:round;stroke-linejoin:round;stroke-miterlimit:10;" d="
			M918.538,1286.139c2.848-1.387,5.328-0.142,5.328-0.142c-1.967-4.93-7.888-2.937-7.888-2.937"/>
		<path style="fill:#2C3447;" d="M947.557,1270.119c0.54,1.942,1.996,3.234,3.253,2.885s1.838-2.207,1.298-4.149
			c-0.54-1.943-1.996-3.234-3.253-2.885C947.598,1266.318,947.017,1268.176,947.557,1270.119z"/>
		<path style="fill:#2C3447;" d="M963.35,1264.055c0.499,1.794,1.844,2.987,3.004,2.664c1.161-0.323,1.697-2.038,1.199-3.832
			c-0.499-1.794-1.844-2.987-3.004-2.664C963.389,1260.546,962.852,1262.261,963.35,1264.055z"/>
		<path style="fill:#B86B76;" d="M1028.29,1955.497H950.8l-26.602-227.768l-0.341-5.214c0-24.763,20.403-44.723,45.336-43.973
			c22.481,0.647,41.317,18.938,42.645,41.419L1028.29,1955.497z"/>
		<path style="fill:none;stroke:#2C3447;stroke-width:0.9621;stroke-miterlimit:10;" d="M940.906,1267.046
			c0,0,2.554-5.925,7.586-5.437"/>
		<path style="fill:none;stroke:#2C3447;stroke-width:0.9621;stroke-miterlimit:10;" d="M961.166,1257.152
			c0,0,2.686-1.315,6.554,0.914"/>
		<path style="fill:#E7888B;" d="M886.781,1955.497h-73.948l23.469-235.263l0.068-0.818c1.567-22.855,20.641-40.908,43.905-40.908
			c24.32,0,44.008,19.688,44.008,44.008c0,1.363-0.068,2.691-0.204,3.985L886.781,1955.497z"/>
		<path style="fill:#F9E181;" d="M1142.308,1422.754l-90.495,57.26l-5.354,4.446c-10.914,7.562-26.907,3.628-35.497-8.766
			s-6.647-28.723,4.267-36.284l101.359-56.81l2.243,3.473l15.979,24.949L1142.308,1422.754z"/>
		<path style="fill:none;stroke:#2C3447;stroke-width:0.9621;stroke-miterlimit:10;" d="M956.802,1265.508
			c0,0,2.898,9.562,8.873,9.17c0,0-1.343,2.135-3.407,3.433"/>
		<path style="fill:#E7888B;" d="M958.425,1517.415l-1.033,6.414l-33.191,202.804c-2.54,24.237-24.236,41.801-48.473,39.26
			c-24.193-2.54-41.8-24.237-39.26-48.473c0,0,4.003-34.31,4.648-87.777c0.517-41.413,9.901-74.819,24.667-96.43
			c4.305-6.285,9.04-11.58,14.12-15.799H958.425z"/>
		<path style="fill:none;stroke:#2C3447;stroke-width:0.9621;stroke-miterlimit:10;" d="M965.452,1285.862
			c0,0-5.541,4.39-11.978-1.275"/>
		<path style="fill:#E89780;" d="M938.163,1278.604c-0.058,2.1,3.233,3.895,7.351,4.009c4.118,0.114,7.503-1.496,7.562-3.596
			s-3.233-3.895-7.351-4.009C941.607,1274.894,938.221,1276.504,938.163,1278.604z"/>
		<path style="fill:#E89780;" d="M968.823,1273.65c0.664,1.117,2.341,1.432,4.349,0.996c-0.509-1.656-1.231-3.987-2.036-6.626
			C968.974,1269.991,967.952,1272.256,968.823,1273.65z"/>
		<path style="fill:none;stroke:#FFFFFF;stroke-width:0.8515;stroke-miterlimit:10;" d="M928.148,1292.604
			c0.478,1.79-0.585,3.629-2.375,4.107c-1.79,0.478-3.629-0.585-4.107-2.375c-0.478-1.79,0.585-3.629,2.375-4.107
			S927.669,1290.814,928.148,1292.604z"/>
		<polygon style="fill:#FDAE97;" points="797.95,2005.461 855.033,2005.461 862.438,1994.182 862.271,2005.461 874.841,2005.461 
			873.716,1972.873 876.471,1955.481 829.978,1955.481 829.806,1972.873 		"/>
		<path style="fill:#E5F0F8;" d="M961.691,1326.482l-2.878,58.385l-38.271-56.566c3.358,4.391,11.322,12.613,23.806,11.666
			C958.813,1338.89,961.691,1326.482,961.691,1326.482z"/>
		<polygon style="fill:#FFFFFF;" points="919.085,1322.524 947.624,1339.501 941.593,1350.063 915.062,1327.448 		"/>
		<polygon style="fill:#FFFFFF;" points="959.923,1324.959 947.624,1339.501 955.052,1348.466 962.798,1327.634 		"/>
		<g>
			<polygon style="fill:#A5BBD6;" points="1113.331,1504.979 959.654,1511.424 994.934,1394.663 1148.612,1388.217 			"/>
			<g>
				<polygon style="fill:#89A5C7;" points="961.095,1505.767 908.978,1463.425 1057.619,1457.191 1114.773,1499.322 				"/>
				<polygon style="fill:#A5BBD6;" points="1110.322,1502.553 956.644,1508.999 991.925,1392.238 1145.602,1385.792 				"/>
				<polygon style="fill:#89A5C7;" points="1145.602,1385.792 1148.612,1388.217 994.934,1394.663 959.654,1511.424 
					956.644,1508.999 991.925,1392.238 				"/>
				<polygon style="fill:#586773;" points="908.978,1463.425 907.537,1469.082 959.654,1511.424 961.366,1505.756 				"/>
			</g>
			<path style="fill:#89A5C7;" d="M1077.706,1450.143c0.175,4.165-7.312,7.861-16.722,8.256s-17.18-2.662-17.355-6.827
				c-0.175-4.165,7.312-7.861,16.722-8.256S1077.531,1445.978,1077.706,1450.143z"/>
		</g>
		<polygon style="fill:#FDAE97;" points="1003.283,2005.461 989.635,1995.301 990.798,2005.461 978.099,2005.461 971.857,1972.873 
			968.499,1955.481 1017.747,1955.481 1019.641,1972.873 1059.16,2005.461 		"/>
		<polygon style="fill:#322A28;" points="829.806,1972.873 797.95,2005.461 855.033,2005.461 862.438,1994.182 862.271,2005.461 
			874.841,2005.461 873.716,1972.873 		"/>
		<polygon style="fill:#322A28;" points="1003.283,2005.461 989.635,1995.301 990.798,2005.461 978.099,2005.461 971.857,1972.873 
			1019.641,1972.873 1059.16,2005.461 		"/>
		<path style="fill:#FDAE97;" d="M1023.102,1477.193c2.229,2.271-0.167,6.265-0.167,6.265s4.154-1.823,4.778,0.95
			c0.61,2.581-4.289,6.659-4.926,7.187c0.466-0.226,2.047-0.784,1.999,2.037c-0.028,3.11-9.796,6.572-10.719,6.889
			c0.351,0.052,2.147,0.328,1.825,2.571c-0.38,2.498-15.047,5.753-25.972,4.685c-9.215-0.921-30.246-5.374-36.538-6.716
			l1.663-29.497c3.847-0.18,8.161-0.586,11.695-1.361c8.615-1.797,32.511-3.939,32.799-0.466c0.305,3.433-15.795,8.238-14.483,9.572
			s13.92,0.582,19.252-0.148C1009.697,1478.408,1020.913,1474.938,1023.102,1477.193z"/>
		<path style="fill:#F9E181;" d="M955.562,1462.649l-0.517,8.916l-1.663,29.497l-0.441,7.83l-114.364-1.895
			c-13.273-0.456-23.722-13.158-23.222-28.229c0.556-15.095,11.86-27.007,25.173-26.535l8.617,1.465l0.04,0.016L955.562,1462.649z"
			/>
		<polyline style="fill:none;stroke:#2C3447;stroke-width:0.9621;stroke-miterlimit:10;" points="934.092,1460.846 
			879.502,1456.261 890.723,1425.613 		"/>
		
			<line style="fill:none;stroke:#2C3447;stroke-width:0.9621;stroke-miterlimit:10;" x1="881.524" y1="1507.709" x2="856.71" y2="1507.709"/>
		<path style="fill:none;stroke:#FFFFFF;stroke-width:1.2537;stroke-miterlimit:10;" d="M953.979,1268.837
			c1.695,3.413,0.961,7.226-1.639,8.517c-2.6,1.291-6.081-0.429-7.776-3.842c-1.695-3.413-0.96-7.226,1.639-8.517
			C948.803,1263.704,952.284,1265.424,953.979,1268.837z"/>
		<path style="fill:none;stroke:#FFFFFF;stroke-width:1.2537;stroke-miterlimit:10;" d="M969.575,1262.864
			c1.694,3.413,0.96,7.226-1.639,8.517c-2.6,1.291-6.081-0.429-7.776-3.842c-1.695-3.413-0.961-7.226,1.639-8.517
			C964.399,1257.731,967.88,1259.451,969.575,1262.864z"/>
		
			<line style="fill:none;stroke:#FFFFFF;stroke-width:1.2537;stroke-miterlimit:10;" x1="953.06" y1="1267.374" x2="959.379" y2="1265.201"/>
	</g>
</g>
</svg>
