<?xml version="1.0" encoding="UTF-8"?>
<svg version="1.1" xmlns="http://www.w3.org/2000/svg" width="1239" height="913">
<path d="M0 0 C408.87 0 817.74 0 1239 0 C1239 301.29 1239 602.58 1239 913 C830.13 913 421.26 913 0 913 C0 611.71 0 310.42 0 0 Z " fill="#FEFEFE" transform="translate(0,0)"/>
<path d="M0 0 C19.14 0 38.28 0 58 0 C62.45374449 10.02092511 62.45374449 10.02092511 63.5 13.9375 C64.44887488 17.26876504 65.53722815 20.43040082 66.875 23.625 C69.74414814 30.58350871 71.79547826 37.81101724 74 45 C75.62022063 50.15026655 77.45183594 55.16600304 79.4375 60.1875 C81.68404689 65.94511718 83.39232571 71.75271357 85.03125 77.70703125 C86.376446 82.27961282 88.15370537 86.61215334 90 91 C91.76228878 95.46328415 93.3403847 99.97709921 94.8515625 104.53125 C95.20444336 105.59327637 95.55732422 106.65530273 95.92089844 107.74951172 C96.45505371 109.35850342 96.45505371 109.35850342 97 111 C97.64294013 112.92978382 98.28616133 114.85947403 98.9296875 116.7890625 C99.24671631 117.74031006 99.56374512 118.69155762 99.89038086 119.67163086 C100.57049508 121.71163625 101.25102248 123.75150392 101.93188477 125.79125977 C103.47529347 130.41652885 105.01701484 135.04214964 106.53515625 139.67578125 C107.00209083 141.09652298 107.46952608 142.51710028 107.9375 143.9375 C108.16501953 144.62811523 108.39253906 145.31873047 108.62695312 146.03027344 C110.13640798 150.55659269 111.73391337 155.04558666 113.37109375 159.52734375 C113.78431885 160.65986572 114.19754395 161.7923877 114.62329102 162.95922852 C115.44450942 165.20024015 116.27162719 167.43910062 117.10522461 169.67553711 C117.48042236 170.69784424 117.85562012 171.72015137 118.2421875 172.7734375 C118.5810498 173.68528809 118.91991211 174.59713867 119.26904297 175.53662109 C120 178 120 178 120 182 C104.16 182 88.32 182 72 182 C68.6875 170.625 68.6875 170.625 67.6628418 167.10400391 C67.07549398 165.08872548 66.48639809 163.07395609 65.89599609 161.05957031 C65.31656749 159.08098741 64.74109939 157.10123849 64.17041016 155.12011719 C63.7863501 153.80382324 63.7863501 153.80382324 63.39453125 152.4609375 C63.1725708 151.69313965 62.95061035 150.9253418 62.72192383 150.13427734 C61.92910814 147.6298095 61.92910814 147.6298095 60 144 C29.805 143.505 29.805 143.505 -1 143 C-1.99 146.96 -2.98 150.92 -4 155 C-5.26389856 159.09037819 -6.57317933 163.15569208 -7.92578125 167.21679688 C-9.42923644 171.83782285 -10.3830976 176.18438432 -11 181 C-12 182 -12 182 -13.90455627 182.12025452 C-14.73728561 182.11803391 -15.57001495 182.11581329 -16.42797852 182.11352539 C-17.36887833 182.11344986 -18.30977814 182.11337433 -19.27919006 182.11329651 C-20.30209641 182.10813522 -21.32500275 182.10297394 -22.37890625 182.09765625 C-23.941605 182.09553383 -23.941605 182.09553383 -25.53587341 182.09336853 C-28.87811094 182.0877508 -32.22028257 182.0751953 -35.5625 182.0625 C-37.82226466 182.05748728 -40.08203037 182.05292398 -42.34179688 182.04882812 C-47.89455391 182.03777561 -53.44727225 182.02102024 -59 182 C-57.21579057 169.13668185 -52.34850475 156.95739569 -48.22070312 144.68261719 C-47.45830575 142.41385453 -46.69739393 140.14460233 -45.9375 137.875 C-45.68911377 137.13378906 -45.44072754 136.39257812 -45.18481445 135.62890625 C-43.51087732 130.60654513 -41.9261369 125.56144672 -40.375 120.5 C-39.08036467 116.27831884 -37.71678754 112.13472005 -36 108.0625 C-33.82761814 102.89099986 -32.33498381 97.54833842 -30.83789062 92.15063477 C-29.55076978 87.58358594 -27.87953536 83.36584986 -26 79 C-25.20989768 76.46193158 -24.46084667 73.93429399 -23.75 71.375 C-19.8147374 57.63835907 -15.29388103 44.10902902 -10.04296875 30.8203125 C-9.05442869 28.1471817 -8.27464295 25.50801026 -7.5625 22.75 C-5.46693243 15.03831136 -2.65967935 7.53575815 0 0 Z " fill="#020202" transform="translate(912,327)"/>
<path d="M0 0 C14.19 0 28.38 0 43 0 C43.00410889 3.60260742 43.00821777 7.20521484 43.01245117 10.91699219 C43.02968251 22.84730495 43.07399093 34.77740267 43.13209057 46.70757675 C43.16664542 53.93773474 43.19208353 61.16770396 43.19555664 68.39794922 C43.19860986 74.70477198 43.21928107 81.01125773 43.26052457 87.31795049 C43.28173522 90.65306441 43.291889 93.98729156 43.28615379 97.32253265 C43.28122716 101.05896098 43.30743573 104.79401454 43.34057617 108.53027344 C43.32763771 110.16271751 43.32763771 110.16271751 43.31443787 111.82814026 C43.47685538 122.82005031 47.40698399 132.93878193 55 141 C57.25 142.91666667 57.25 142.91666667 60 144 C60.61230469 144.27585937 61.22460938 144.55171875 61.85546875 144.8359375 C70.74459777 148.36568272 80.73332643 148.17824391 89.72265625 145.03125 C97.14182032 141.67162854 102.45380339 136.34085285 106 129 C108.08792258 122.26693658 108.30509514 116.00441082 108.31884766 108.984375 C108.32889328 107.80302475 108.3389389 106.6216745 108.34928894 105.40452576 C108.38005328 101.51968855 108.39713758 97.63492006 108.4140625 93.75 C108.43170145 91.04856911 108.45225815 88.34716252 108.4727478 85.64575195 C108.51940702 79.27471902 108.55621303 72.90366937 108.58942068 66.53255367 C108.62773332 59.27489445 108.67711931 52.01732353 108.72740483 44.75973892 C108.83053331 29.8398854 108.91839387 14.91998967 109 0 C123.52 0 138.04 0 153 0 C153.067989 15.50009793 153.12313903 31.00012085 153.15543652 46.50032806 C153.17083823 53.69900388 153.19179784 60.89757977 153.22631836 68.09619141 C153.25642775 74.37799387 153.27562351 80.65972388 153.28226548 86.94159651 C153.28614177 90.26107057 153.29673626 93.58017495 153.31719017 96.89961243 C153.44432908 118.40338429 152.8023054 137.43595713 141 156 C140.27490234 157.28003906 140.27490234 157.28003906 139.53515625 158.5859375 C132.11352297 170.25659747 116.08456793 178.74469257 102.97851562 181.71801758 C100.58291799 182.23220269 98.18363529 182.72177603 95.78125 183.203125 C92.21138876 183.78882315 92.21138876 183.78882315 90 185 C65.18636532 186.74862803 41.32881347 184.65765993 21.85400391 167.84594727 C17.11219628 163.51343409 12.07385288 158.71628781 9 153 C9 152.01 9 151.02 9 150 C8.34 150 7.68 150 7 150 C5.50178941 146.62902617 5 144.79557881 5 141 C4.34 141 3.68 141 3 141 C0.45385977 132.46068227 -0.42298305 124.68233731 -0.34057617 115.79589844 C-0.34101425 114.53593552 -0.34145233 113.2759726 -0.34190369 111.97782898 C-0.34275529 108.56322644 -0.32526723 105.14894787 -0.30418181 101.73441982 C-0.2852736 98.15102776 -0.28365354 94.56762615 -0.28010559 90.98419189 C-0.27082627 84.21652949 -0.246269 77.44901457 -0.21605712 70.68141675 C-0.18238406 62.96909329 -0.16599485 55.25676234 -0.15097082 47.54438353 C-0.1197151 31.69615604 -0.06475538 15.8481314 0 0 Z " fill="#030303" transform="translate(374,327)"/>
<path d="M0 0 C14.19 0 28.38 0 43 0 C43.0093457 3.67366699 43.01869141 7.34733398 43.02832031 11.13232422 C43.06212593 23.28616004 43.11749523 35.43980847 43.18390274 47.59350395 C43.22363153 54.96045143 43.25605514 62.32729304 43.27099609 69.69433594 C43.28404474 76.11903285 43.31109067 82.54349622 43.35461307 88.96806157 C43.37715631 92.36664331 43.39291502 95.76493778 43.39188385 99.16360092 C43.39425681 102.96733114 43.42136615 106.77015674 43.45410156 110.57373047 C43.4490712 111.68791855 43.44404083 112.80210663 43.43885803 113.95005798 C43.56393664 123.3779429 45.71627902 130.81860459 52 138 C52 138.66 52 139.32 52 140 C52.58007812 140.28746094 53.16015625 140.57492187 53.7578125 140.87109375 C55.14056217 141.56728653 56.51321806 142.28452466 57.8671875 143.03515625 C67.45161989 147.93925298 78.80122577 148.1918386 89 145 C96.04181714 142.15618923 101.34756954 137.67513152 105 131 C107.91402222 123.58866118 108.44272083 116.65638625 108.43237305 108.75732422 C108.4425647 107.57568192 108.45275635 106.39403961 108.46325684 105.17658997 C108.49325432 101.30257341 108.50263279 97.42880467 108.51171875 93.5546875 C108.52694538 90.85610828 108.54658304 88.15756592 108.56611633 85.45901489 C108.60962119 79.10220772 108.63826606 72.74542586 108.66143972 66.38851559 C108.6885778 59.14529925 108.7324836 51.90221404 108.77772844 44.65909171 C108.87034509 29.77278509 108.93991765 14.88648016 109 0 C123.19 0 137.38 0 152 0 C152.09059143 16.56046209 152.16415031 33.12070989 152.20724869 49.68135166 C152.22779947 57.3722126 152.25577516 65.06290769 152.30175781 72.75366211 C152.34185669 79.4635831 152.36748707 86.17338386 152.37635398 92.88342136 C152.38153014 96.43035753 152.39353559 99.97695003 152.42292023 103.5237751 C152.63101156 129.69605253 149.76647389 146.80218844 131.61328125 166.63671875 C129.0612423 168.94461646 127.15118298 169.79140267 124 171 C123.67 171.99 123.34 172.98 123 174 C120.8203125 175.16796875 120.8203125 175.16796875 118.125 176.1875 C116.79855469 176.70376953 116.79855469 176.70376953 115.4453125 177.23046875 C113 178 113 178 110 178 C110 178.66 110 179.32 110 180 C98.08665398 183.95354403 86.78139396 185.30928521 74.25 185.125 C73.0640625 185.11597656 71.878125 185.10695313 70.65625 185.09765625 C67.77061093 185.07438497 64.88542145 185.04169684 62 185 C62 184.34 62 183.68 62 183 C61.42894531 183.04640625 60.85789062 183.0928125 60.26953125 183.140625 C44.94701805 183.82270826 31.53440879 176.42782515 20 167 C14.56559572 161.83524174 10.38799021 155.67669865 7 149 C7 148.34 7 147.68 7 147 C6.34 147 5.68 147 5 147 C-0.65627949 131.84962071 -0.67377922 117.13355244 -0.50696969 101.12605619 C-0.47526284 97.55874799 -0.47274117 93.9914081 -0.46684265 90.42398071 C-0.45143213 83.69888851 -0.41058149 76.97421296 -0.3600952 70.24930251 C-0.30379786 62.58040831 -0.2766148 54.91149199 -0.25161803 47.24244189 C-0.19965041 31.49468036 -0.10812386 15.74749133 0 0 Z " fill="#020202" transform="translate(556,327)"/>
<path d="M0 0 C47.19 0 94.38 0 143 0 C143 8.58 143 17.16 143 26 C141.35 27.65 139.7 29.3 138 31 C136.7183603 32.90319642 135.48679851 34.84126182 134.3125 36.8125 C133.26242662 38.57504001 132.17118301 40.31550252 131 42 C130.34 42 129.68 42 129 42 C128.7834375 42.66902344 128.566875 43.33804688 128.34375 44.02734375 C126.56658496 47.95880479 124.10396179 51.14101533 121.5 54.5625 C120.50759264 55.8741702 119.51791546 57.18791143 118.53125 58.50390625 C118.09361328 59.07955322 117.65597656 59.6552002 117.20507812 60.24829102 C115.93579015 62.00446798 115.93579015 62.00446798 114.95898438 64.10131836 C113.71980002 66.55476458 111.94125864 68.05874136 110 70 C109.06451088 71.39059194 108.13150666 72.78294331 107.21337891 74.18505859 C104.78423901 77.81850446 102.18903774 81.33615529 99.625 84.875 C99.07328125 85.63941406 98.5215625 86.40382813 97.953125 87.19140625 C95.26369423 90.90989151 92.54967129 94.60360978 89.7734375 98.2578125 C87.6452574 101.07672386 85.79812593 103.95782182 84 107 C82.85975872 108.47908656 81.6911205 109.93657059 80.5 111.375 C75.93534869 116.99824392 71.67723272 122.82473829 67.41796875 128.6796875 C66.99692871 129.25557617 66.57588867 129.83146484 66.14208984 130.42480469 C65.178804 131.75338961 64.23723484 133.09768044 63.30078125 134.4453125 C62.87152344 134.95835937 62.44226563 135.47140625 62 136 C61.34 136 60.68 136 60 136 C59.34 137.32 58.68 138.64 58 140 C56.02 142.64 54.04 145.28 52 148 C82.03 148 112.06 148 143 148 C143 159.55 143 171.1 143 183 C95.81 183 48.62 183 0 183 C0 153.21590112 0 153.21590112 7.16015625 145.8046875 C8.09730469 144.87914062 9.03445312 143.95359375 10 143 C11.70353964 140.83768665 13.25603574 138.58209168 14.8125 136.3125 C15.64392869 135.13537115 16.47731366 133.95962199 17.3125 132.78515625 C17.74433594 132.17559082 18.17617187 131.56602539 18.62109375 130.93798828 C21.16577712 127.36155475 23.74047174 123.80679142 26.3125 120.25 C26.85285889 119.50186035 27.39321777 118.7537207 27.94995117 117.98291016 C30.83207132 113.99359004 33.7196516 110.00832387 36.61328125 106.02734375 C37.20133545 105.2168457 37.78938965 104.40634766 38.39526367 103.57128906 C39.52002806 102.02122562 40.6464063 100.4723315 41.7746582 98.92480469 C43.90082328 95.99230217 45.9264655 93.12711906 47.7421875 89.98828125 C48.15726563 89.33214844 48.57234375 88.67601562 49 88 C49.66 88 50.32 88 51 88 C51.2371875 87.30132812 51.474375 86.60265625 51.71875 85.8828125 C53.2376783 82.46522382 55.21609271 79.83369808 57.5 76.875 C59.74662565 73.95001012 61.95398459 71.06902312 64 68 C64.66 68 65.32 68 66 68 C66.25652344 67.10667969 66.51304687 66.21335937 66.77734375 65.29296875 C68.00756588 61.97962289 69.30506575 59.99861874 71.5625 57.3125 C72.26890625 56.46042969 72.9753125 55.60835938 73.703125 54.73046875 C74.84007812 53.37888672 74.84007812 53.37888672 76 52 C77.6065575 50.04362756 79.2107506 48.08531095 80.8125 46.125 C81.54082031 45.24070312 82.26914062 44.35640625 83.01953125 43.4453125 C84.27469969 41.89553844 85.48717592 40.30934965 86.63671875 38.6796875 C87.08660156 38.12539063 87.53648437 37.57109375 88 37 C88.66 37 89.32 37 90 37 C90 36.34 90 35.68 90 35 C60.3 35 30.6 35 0 35 C0 23.45 0 11.9 0 0 Z " fill="#020202" transform="translate(205,326)"/>
<path d="M0 0 C40.59 0 81.18 0 123 0 C123 11.55 123 23.1 123 35 C96.6 35 70.2 35 43 35 C43 50.51 43 66.02 43 82 C67.09 82 91.18 82 116 82 C116 93.22 116 104.44 116 116 C91.91 116 67.82 116 43 116 C43 137.78 43 159.56 43 182 C28.81 182 14.62 182 0 182 C0 121.94 0 61.88 0 0 Z " fill="#020202" transform="translate(737,327)"/>
<path d="M0 0 C0.66 0 1.32 0 2 0 C3.93995042 6.21884816 5.63434941 12.46130968 7.1796875 18.7890625 C8.06609218 22.25870368 9.05610283 25.68834003 10.0625 29.125 C11.4672685 33.96424053 12.65117132 38.75372764 13.5078125 43.71875 C14.12147099 46.56300839 15.07582807 49.2409267 16 52 C16.88751917 55.2854955 17.74708383 58.5754589 18.58789062 61.87304688 C19.24798466 65.21288979 19.24798466 65.21288979 21 68 C21 69.98 21 71.96 21 74 C8.13 74 -4.74 74 -18 74 C-18 67.36923077 -18 67.36923077 -16.25 63.25 C-14.01642727 57.47270235 -12.71700911 51.65948739 -11.43066406 45.62060547 C-10.36853849 40.63863142 -9.167107 35.73525359 -7.78125 30.83203125 C-6.23807119 25.23800807 -4.88113558 19.59398646 -3.48632812 13.96142578 C-2.74539762 10.97315486 -1.99753749 7.98662384 -1.25 5 C-1.00765625 4.030625 -0.7653125 3.06125 -0.515625 2.0625 C-0.34546875 1.381875 -0.1753125 0.70125 0 0 Z " fill="#F8F8F8" transform="translate(940,364)"/>
<path d="M0 0 C0.99 0.66 1.98 1.32 3 2 C1.73742767 3.17560179 0.46462916 4.34022865 -0.8125 5.5 C-1.87404297 6.47453125 -1.87404297 6.47453125 -2.95703125 7.46875 C-5 9 -5 9 -8 9 C-5.36 6.03 -2.72 3.06 0 0 Z " fill="#2B2B2B" transform="translate(292,365)"/>
</svg>
